<svg xmlns="http://www.w3.org/2000/svg" xmlns:xlink="http://www.w3.org/1999/xlink" xmlns:fi="http://pattern.flaticon.com/" x="0" y="0" width="1250" height="625" viewBox="0 0 1250 625"><rect x="0px" y="0px" width="100%" height="100%" opacity="1" fill="#f7fafc"/><defs><g transform="matrix(0.1171875 0 0 0.1171875 91 126)" id="L1_0"><path d="m512 294.767c0-16.516-6.174-31.395-15.992-41.71l-.01-173.147c5.107-4.963 8.29-11.897 8.29-19.564v-5.907c0-15.05-12.244-27.293-27.293-27.293h-22.915c-15.05 0-27.294 12.244-27.294 27.293v5.907c0 8.506 3.913 16.114 10.031 21.123l-7.658 20.846h-346.319l-7.653-20.848c6.117-5.009 10.028-12.616 10.028-21.121v-5.907c0-15.05-12.244-27.293-27.294-27.293h-22.915c-15.05 0-27.293 12.244-27.293 27.293v5.907c0 7.665 3.18 14.597 8.285 19.559v173.148c-9.821 10.316-15.998 25.198-15.998 41.718v170.776c0 10.646 8.661 19.306 19.306 19.306h14.363c6.117 0 11.937-2.941 15.569-7.867 3.66-4.964 4.716-11.181 2.897-17.057-.961-3.104-.667-5.604.953-8.108 2.166-3.347 6.273-6.505 10.621-9.849 8.717-6.703 20.155-15.501 23.496-32.134h33.424c5.523 0 10-4.477 10-10 0-.69-.07-1.365-.203-2.016-.931-4.558-4.964-7.987-9.797-7.987l-100.629.005v-31.426h472v31.424h-283.381c-5.523 0-10 4.477-10 10v.001.001c0 5.523 4.477 10 10 10h216.175c3.342 16.633 14.779 25.43 23.496 32.134 4.348 3.344 8.456 6.502 10.621 9.849 1.62 2.503 1.914 5.004.953 8.108-1.819 5.875-.763 12.092 2.897 17.057 3.632 4.926 9.452 7.867 15.569 7.867h14.363c10.646 0 19.306-8.661 19.306-19.306zm-46.432-56.276c-.753-.039-1.508-.066-2.263-.066h-19.465c.002-19.007-3.047-34.342-5.088-42.471-.065-.258-.03-.544.114-.837l.192-.394c3.853-7.869 2.539-17.148-3.346-23.641-5.884-6.491-14.988-8.708-23.231-5.631-.274.105-.631.094-1.006-.082-8.39-3.904-26.822-10.454-56.009-10.454-29.206 0-47.624 6.551-56.014 10.46-.343.16-.701.185-1.012.067-.061-.022-.138-.05-.214-.077-8.166-2.984-17.198-.762-23.046 5.685-5.885 6.487-7.203 15.764-3.398 23.551l.21.44c.017.035.034.07.051.105.129.263.161.55.095.813-2.039 8.124-5.091 23.469-5.092 42.464h-22.096c.002-19.005-3.047-34.341-5.088-42.473-.065-.257-.029-.543.11-.827l.197-.403c3.853-7.869 2.541-17.148-3.341-23.64-5.881-6.49-14.985-8.707-23.235-5.632-.273.105-.639.091-1.001-.08-8.38-3.905-26.798-10.456-56.004-10.456-29.214 0-47.634 6.551-56.024 10.46-.329.153-.673.181-.973.082-.037-.014-.074-.028-.11-.042-8.21-3.061-17.312-.846-23.193 5.641-5.882 6.486-7.199 15.761-3.316 23.707l.177.353c.133.271.167.578.1.845-2.039 8.126-5.091 23.472-5.092 42.463h-19.462c-4.292 0-8.597.645-12.697 1.914v-78.154c0-21.984 17.881-39.87 39.86-39.87h360.28c16.48 0 31.633 10.641 37.383 26.062 1.642 4.403 2.487 9.108 2.487 13.808v78.156c-3.387-1.045-6.9-1.656-10.44-1.846zm-374.484-52.224-.181-.361c-.123-.252-.379-.775.2-1.414.531-.585 1.02-.468 1.316-.364.035.014.07.027.104.04 5.311 1.993 11.328 1.749 16.499-.668 5.539-2.581 21.261-8.584 47.566-8.584 26.296 0 42.017 6.003 47.521 8.568 2.865 1.349 5.926 2.032 9.099 2.032 2.566 0 5.075-.456 7.413-1.34.282-.105.808-.301 1.386.336.58.64.323 1.164.197 1.423l-.19.389c-2.221 4.519-2.768 9.681-1.544 14.516 1.458 5.811 4.46 19.924 4.477 37.585h-136.786c.019-17.649 3.026-31.779 4.49-37.613 1.205-4.835.663-9.97-1.567-14.545zm198.936.112-.227-.474c-.123-.252-.379-.777.201-1.417.576-.635 1.098-.44 1.378-.335.054.02.123.044.192.069 5.276 1.934 11.228 1.67 16.349-.724 5.539-2.581 21.26-8.584 47.556-8.584 26.282 0 42.023 6.005 47.531 8.567 2.865 1.349 5.926 2.033 9.099 2.033 2.566 0 5.075-.456 7.416-1.341.279-.105.802-.299 1.381.339.581.641.325 1.164.194 1.43l-.185.379c-2.222 4.518-2.769 9.68-1.546 14.518 1.458 5.81 4.461 19.921 4.477 37.585h-136.785c.019-17.652 3.027-31.78 4.491-37.613 1.203-4.831.663-9.954-1.522-14.432zm-254.022-68.824v-29.915h20.151l5.971 16.267c-9.671 2.279-18.719 7.028-26.122 13.648zm413.877-13.634 5.981-16.281h20.141v29.922c-7.42-6.636-16.443-11.329-26.122-13.641zm-3.09-49.482c0-4.021 3.272-7.293 7.294-7.293h22.915c4.021 0 7.293 3.272 7.293 7.293v5.907c0 3.992-3.225 7.242-7.207 7.289h-23.089c-3.982-.047-7.207-3.297-7.207-7.289v-5.907zm-419.072 0c0-4.021 3.272-7.293 7.293-7.293h22.915c4.022 0 7.294 3.272 7.294 7.293v5.907c0 3.992-3.226 7.242-7.207 7.289h-23.088c-3.981-.047-7.207-3.297-7.207-7.289zm23.805 371.681c-5.499 4.229-11.185 8.601-15.22 14.838-4.672 7.221-5.895 15.463-3.558 23.896h-12.74v-55.014h46.433c-2.706 6.891-8.319 11.207-14.915 16.28zm-31.518-87.706v-43.642c0-16.225 10.188-36.346 28.698-36.346h414.61c18.506 0 28.692 20.122 28.692 36.342v43.646zm472 126.44h-12.74c2.336-8.434 1.114-16.676-3.558-23.896-4.036-6.237-9.722-10.609-15.22-14.838-6.596-5.072-12.208-9.388-14.915-16.279h46.433z" fill="#00a388"/><path d="m174.26 396.02c-3.395-8.288-15.633-7.955-18.646.455-1.433 3.998-.109 8.636 3.257 11.243 3.259 2.525 7.804 2.8 11.333.665 4.159-2.516 5.931-7.866 4.056-12.363z" fill="#00a388"/></g><g transform="matrix(0.1171875 0 0 0.1171875 92 16.99999673843388)" id="L1_1"><path d="m484.329 265.322v-30.648h15.281c5.522 0 10-4.477 10-10s-4.478-10-10-10h-15.281v-15.275h4.234c5.522 0 10-4.477 10-10s-4.478-10-10-10h-29.075c-5.522 0-10 4.477-10 10s4.478 10 10 10h4.841v15.275h-6.222c-9.945 0-19.27 4.408-25.584 12.093l-6.119 7.45c-3.505 4.268-2.888 10.569 1.38 14.075 4.595 3.773 10.859 2.515 14.465-1.855 1.915-2.32 3.819-4.65 5.728-6.975 2.5-3.043 6.192-4.788 10.13-4.788h6.222v30.348h-236.608c-34.031 0-68.222-5.18-101.622-15.397-23.562-7.208-50.629-11.873-80.598-13.911v-44.855h18.012v4.048c0 5.523 4.478 10 10 10s10-4.477 10-10v-28.096c0-5.523-4.478-10-10-10s-10 4.477-10 10v4.048h-18.012v-42.74c11.901-.807 21.34-10.74 21.34-22.842v-23.943c4.313 4.106 10.127 6.255 16.263 5.881 7.757-.477 14.496-4.894 18.027-11.816l13.974-27.386c3.464-6.791 3.155-14.727-.827-21.229-3.981-6.501-10.91-10.382-18.534-10.382h-47.655c-34.906 0-42.551 28.119-42.551 38.954v49.921c0 11.632 8.719 21.259 19.963 22.706v107.662c-5.821 1.184-11.203 3.986-15.624 8.22-6.369 6.1-9.877 14.316-9.877 23.135v4.181c0 14.642 9.814 27.023 23.366 30.803l30.845 94.111c-2.777 9.99-4.197 20.313-4.197 30.742 0 5.098-2.796 8.44-7.737 13.907-5.245 5.803-11.772 13.026-11.772 24.173 0 2.106.136 4.161.402 6.108 1.92 14.008 14.171 24.572 28.497 24.572h13.97c14.396 0 26.667-10.75 28.545-24.998 1.308-9.886 3.765-21.227 7.289-33.762h280.942c3.525 12.543 5.981 23.883 7.291 33.756 1.878 14.254 14.149 25.004 28.544 25.004h13.97c14.326 0 26.577-10.563 28.497-24.572.268-1.952.403-4.007.403-6.108 0-11.147-6.527-18.37-11.772-24.173-4.941-5.467-7.737-8.809-7.737-13.907 0-8.788-1.008-17.531-2.99-26.042l27.121-71.786h6.531c17.642 0 31.994-14.353 31.994-31.995-.002-16.173-12.07-29.574-27.673-31.692zm-458.791-209.967c0-4.998 2.499-10.533 6.181-13.87 4.417-4.003 10.597-5.084 16.37-5.084h47.654c1.271 0 2.126 1.382 1.546 2.522l-13.973 27.386c-.593 1.162-2.25 1.265-2.981.184l-2.87-4.246c-3.089-4.573-8.229-7.302-13.846-7.302-9.252 0-16.778 7.527-16.778 16.778v33.553c0 1.6-1.302 2.901-2.902 2.901h-15.5c-1.6 0-2.901-1.302-2.901-2.901zm47.835 420.243h-13.97c-4.38 0-8.113-3.133-8.683-7.288-.144-1.05-.217-2.191-.217-3.392 0-3.288 2.389-6.091 6.61-10.762 5.444-6.023 12.899-14.272 12.899-27.318 0-1.543.039-3.081.113-4.617 5.513 5.088 12.036 9.013 19.177 11.511-3.443 12.561-5.863 24.045-7.213 34.25-.571 4.342-4.318 7.616-8.716 7.616zm375.263-7.287c-.569 4.154-4.303 7.288-8.683 7.288h-13.97c-4.396 0-8.144-3.274-8.717-7.625-1.321-9.968-3.666-21.17-6.989-33.413 6.989-2.065 13.448-5.479 19.039-10.005.019.76.027 1.521.027 2.283 0 13.045 7.455 21.294 12.899 27.318 4.222 4.671 6.61 7.474 6.61 10.762.002 1.195-.072 2.336-.216 3.392zm31.371-159.3-13.415-.001c-.01 0-.019-.002-.028-.002h-31.678c-5.453 0-10.001 4.552-10.001 10 .032 5.443 4.527 10 9.999 10l17.212.001-24.567 65.026c-5.103 13.517-18.539 22.803-32.985 22.803h-286.95c-1.454 0-2.892-.09-4.307-.262-.069-.01-.135-.029-.205-.038-13.314-1.702-24.667-11.045-28.922-23.804-.001-.003-.003-.007-.004-.01-.019-.057-.041-.113-.06-.171l-28.978-88.415c16.161 1.438 32.301 3.955 47.969 8.219 18.447 5.017 37.443 8.899 56.868 11.655 23.354 3.315 47.327 4.998 71.731 4.998l125.233-.002c4.434 0 8.188-2.889 9.498-6.884.016-.048.037-.094.052-.142.177-.57.298-1.164.371-1.772.047-.395.079-.794.079-1.201 0-5.523-4.478-10-10-10h-125.235c-23.087 0-45.753-1.566-67.83-4.646-18.979-2.649-37.527-6.412-55.518-11.305-19.497-5.303-39.262-7.888-55.005-9.138-4.274-.34-8.269-.588-11.863-.759-.012 0-.025.001-.037.001-6.412-.32-11.43-5.574-11.43-11.979v-4.183c0-6.692 5.72-12.292 12.438-11.987 33.165 1.437 62.709 6.058 87.812 13.736 35.297 10.797 71.456 16.272 107.472 16.272h252.285c6.613 0 11.994 5.381 11.994 11.995s-5.383 11.995-11.995 11.995z" fill="#00a388"/><path d="m130.231 81.305c.185.089 18.596 9.116 37.557 29.59 25.188 27.198 39.453 60.76 42.399 99.755.396 5.251 4.78 9.247 9.961 9.247.253 0 .508-.01.765-.029 5.507-.416 9.634-5.218 9.218-10.725-4.138-54.763-28.558-91.422-48.315-112.532-21.495-22.968-42.085-32.935-42.951-33.348-4.976-2.374-10.923-.267-13.308 4.704-2.387 4.971-.289 10.94 4.674 13.338z" fill="#00a388"/><path d="m107.922 98.535c-3.938 3.854-4.004 10.178-.165 14.129.256.264 25.615 26.855 25.615 69.444 0 5.523 4.478 10 10 10s10-4.477 10-10c0-51.075-30.067-82.162-31.348-83.46-3.867-3.923-10.167-3.966-14.102-.113z" fill="#00a388"/><path d="m154.624 51.659c.597.096 60.012 10.212 85.289 58.637 1.784 3.418 5.268 5.375 8.874 5.375 1.559 0 3.141-.366 4.619-1.137 4.896-2.556 6.793-8.596 4.237-13.492-30.013-57.497-97.044-68.687-99.883-69.135-5.449-.862-10.556 2.854-11.426 8.301-.869 5.447 2.845 10.571 8.29 11.451z" fill="#00a388"/><path d="m396.25 310.69c-7.546-5.028-17.612 2.272-15.186 10.984 1.145 4.109 4.881 7.104 9.147 7.323 4.26.219 8.279-2.429 9.807-6.394 1.666-4.325.076-9.325-3.768-11.913z" fill="#00a388"/></g><g transform="matrix(-0.1171875 0 0 0.1171875 335.17128047943015 66)" id="L1_2"><path d="m460.805 492h-40v-218.084h17.982c5.522 0 10-4.477 10-10v-91.71c0-5.523-4.478-10-10-10h-107.599c16.189-28.49 34.025-59.919 34.734-61.343h.001c4.837-9.72 7.289-20.169 7.289-31.057 0-38.492-31.315-69.806-69.805-69.806s-69.804 31.314-69.804 69.805c0 10.777 2.402 21.123 7.141 30.758.118.258.248.513.389.763l.055.098.002-.001c2.269 4.13 19.091 33.769 34.439 60.784h-18.862-3.357c-5.523 0-10 4.477-10 10s4.477 10 10 10h33.586c2.777 4.885 5.314 9.348 7.476 13.15 1.832 3.29 5.095 5.484 8.936 5.483 3.975 0 7.131-2.31 9.035-5.659 2.14-3.763 4.642-8.162 7.377-12.973h108.967v71.71h-13.984l-39.671-37.754c-1.858-1.77-4.327-2.756-6.894-2.756h-129.662c-2.58 0-5.061.998-6.923 2.784l-39.328 37.727h-14.297v-81.71c0-5.523-4.477-10-10-10s-10 4.477-10 10v91.71c0 5.523 4.477 10 10 10h18.306l-.31 218.081h-73.312v-19.912c29.179-4.792 51.517-30.177 51.517-60.692 0-15.799-6.01-30.788-16.702-42.141 1.615-4.826 2.452-9.914 2.452-15.024 0-26.063-21.204-47.267-47.267-47.267s-47.267 21.204-47.267 47.267c0 5.11.837 10.198 2.452 15.024-10.692 11.353-16.702 26.341-16.702 42.141 0 30.515 22.337 55.9 51.517 60.692v19.912h-41.517c-5.523 0-10 4.477-10 10s4.477 10 10 10h409.609c5.522 0 10-4.477 10-10s-4.477-10-9.999-10zm-207.202-422.195c0-27.462 22.342-49.805 49.804-49.805s49.805 22.342 49.805 49.805c0 7.733-1.731 15.152-5.148 22.052-1.526 2.829-44.654 78.747-44.654 78.747s-43.272-76.173-44.635-78.699c-3.432-6.914-5.172-14.349-5.172-22.1zm-192.408 341.591c0-12.381 5.472-24.027 15.013-31.952 3.651-3.033 4.667-8.214 2.432-12.401-2.12-3.973-3.195-8.283-3.195-12.812 0-15.035 12.232-27.267 27.267-27.267s27.267 12.232 27.267 27.267c0 4.529-1.075 8.839-3.195 12.812-2.235 4.187-1.218 9.368 2.433 12.401 9.541 7.925 15.013 19.571 15.013 31.952 0 19.445-13.44 35.804-31.517 40.292v-48.828c0-5.523-4.477-10-10-10s-10 4.477-10 10v48.828c-18.077-4.488-31.518-20.846-31.518-40.292zm231.993 80.604v-29.57h20.438v29.57zm40.439 0v-39.57c0-5.523-4.478-10-10-10h-40.438c-5.522 0-10 4.477-10 10v39.57h-67.165l.317-223.814 36.255-34.78h121.645l36.563 34.797v223.797z" fill="#00a388"/><path d="m204.41 176.03c2.095 5.028 8.021 7.502 13.06 5.41 5.03-2.088 7.494-8.025 5.41-13.06-2.083-5.031-8.027-7.499-13.06-5.41-5.024 2.085-7.507 8.026-5.41 13.06z" fill="#00a388"/><path d="m283.188 266.603h-43.283c-5.523 0-10 4.477-10 10v44.233c0 5.523 4.477 10 10 10h43.283c5.522 0 10-4.477 10-10v-44.233c0-5.523-4.477-10-10-10zm-10 44.232h-23.283v-24.233h23.283z" fill="#00a388"/><path d="m283.188 350.973h-43.283c-5.523 0-10 4.477-10 10v44.233c0 5.523 4.477 10 10 10h43.283c5.522 0 10-4.477 10-10v-44.233c0-5.523-4.477-10-10-10zm-10 44.233h-23.283v-24.233h23.283z" fill="#00a388"/><path d="m366.909 266.603h-43.282c-5.522 0-10 4.477-10 10v44.233c0 5.523 4.478 10 10 10h43.282c5.522 0 10-4.477 10-10v-44.233c0-5.523-4.477-10-10-10zm-10 44.232h-23.282v-24.233h23.282z" fill="#00a388"/><path d="m366.909 350.973h-43.282c-5.522 0-10 4.477-10 10v44.233c0 5.523 4.478 10 10 10h43.282c5.522 0 10-4.477 10-10v-44.233c0-5.523-4.477-10-10-10zm-10 44.233h-23.282v-24.233h23.282z" fill="#00a388"/><path d="m296.627 79.358h13.561v14.338c0 4.694 3.806 8.5 8.5 8.5s8.5-3.806 8.5-8.5v-44.162c0-4.694-3.806-8.5-8.5-8.5s-8.5 3.806-8.5 8.5v12.824h-13.561v-12.824c0-4.694-3.806-8.5-8.5-8.5s-8.5 3.806-8.5 8.5v44.163c0 4.694 3.806 8.5 8.5 8.5s8.5-3.806 8.5-8.5z" fill="#00a388"/></g><g transform="matrix(0.1171877309679985 0 0 0.1171877309679985 270.99999559401624 182.0000004720696)" id="L1_4"><path d="m509.402 310.152c1.643-1.815 2.597-4.244 2.597-6.699 0-32.985-18.088-63.102-47.204-78.597l-.323-.172c-4.875-2.596-10.93-.748-13.527 4.126-2.596 4.875-.749 10.931 4.126 13.527l.325.173c17.154 9.129 29.372 24.802 34.25 43.024l-153.598-81.894c-12.309-6.563-26.188-10.032-40.137-10.032h-79.824c-13.949 0-27.828 3.469-40.137 10.032l-153.6 81.895c4.879-18.222 17.096-33.895 34.25-43.024l125.024-66.535c9.411-5.009 20.021-7.656 30.683-7.656h87.383c10.662 0 21.271 2.647 30.683 7.656l47.234 25.137c4.877 2.596 10.932.746 13.526-4.13 2.595-4.875.746-10.931-4.13-13.525l-47.233-25.138c-12.293-6.542-26.153-10.001-40.079-10.001h-33.626c.57-6.823 5.025-12.913 11.678-15.78 21.041-9.066 34.075-29.733 33.204-52.651-1.083-28.532-24.283-51.732-52.815-52.815-15.098-.574-29.401 4.871-40.266 15.331-10.868 10.464-16.854 24.534-16.854 39.617 0 5.523 4.477 10 10 10s10-4.477 10-10c0-9.598 3.809-18.55 10.726-25.209 6.912-6.655 16.013-10.121 25.636-9.753 18.146.689 32.899 15.443 33.589 33.589.554 14.596-7.741 27.755-21.133 33.525-14.007 6.035-23.191 19.332-23.773 34.147h-33.748c-13.926 0-27.786 3.458-40.079 10.001l-125.025 66.535c-29.082 15.477-47.159 45.539-47.204 78.476-.067 5.487 4.519 10.119 9.994 10.119h124.49v161.517c0 5.523 4.477 10 10 10h162.502c5.523 0 10-4.477 10-10v-17.728h47.908c5.523 0 10-4.477 10-10v-133.79h127.055c2.828.011 5.56-1.206 7.452-3.298zm-354.917 154.815v-172.785c0-9.834 8-17.834 17.834-17.834h129.147c-2.921 5.437-4.469 11.612-4.481 17.782v155.11c0 .016.002.032.002.048v17.679zm200.41-171.517h-37.908c-.238-10.159 7.304-19.1 17.873-19.1 11.397-.053 20.181 7.227 20.035 19.1zm0 143.79h-37.908v-123.79h37.908zm-17.876-182.9-2.157.01c-.015 0-.029-.002-.044-.002h-162.5c-20.862 0-37.834 16.973-37.834 37.834v1.268h-84.47l135.345-72.162c9.423-5.024 20.048-7.68 30.727-7.68h79.824c10.679 0 21.304 2.656 30.728 7.68l135.344 72.162h-87.088v-1.27c.001-20.865-16.97-37.84-37.875-37.84z" fill="#00a388"/><path d="m411.446 216.88c2.484 5.963 8.643 7.521 13.249 5.592s7.658-7.343 5.221-13.242c-2.577-6.236-9.025-7.639-13.734-5.332-4.255 2.083-7.068 7.292-4.736 12.982z" fill="#00a388"/></g><g transform="matrix(0.1171875 0 0 0.1171875 87 235.00000228881822)" id="L1_6"><path d="m504.299 374.305c3.763-19.935 6.346-40.549 7.681-61.271.027-.428.027-.857 0-1.285-1.336-20.738-3.92-41.362-7.676-61.277-2.415-12.974-9.498-28.217-3.083-40.829 7.8-15.959 5.228-34.045-6.711-47.2-11.908-13.119-29.604-17.417-46.217-11.204-5.611 2.125-11.988 1.764-17.401-.781-19.247-8.975-60.3-24-124.603-27.558.184-2.147.304-4.3.304-6.461 0-29.349-16.465-56.665-46.362-76.917-28.704-19.444-66.68-30.152-106.935-30.152s-78.231 10.708-106.934 30.151c-29.897 20.253-46.362 47.569-46.362 76.918s16.465 56.666 46.362 76.918c1.296.878 2.616 1.731 3.949 2.573.648 5.234 2.352 10.197 4.684 14.909 2.316 4.716 2.894 10.121 1.629 15.21-1.967 7.885-3.759 16.093-5.325 24.398-4.565 24.207-8.939 49.723-6.786 74.358 2.173 24.867 6.053 49.658 12.108 73.884 1.268 5.107.69 10.517-1.626 15.232-.019.038-.037.076-.055.114l-.556 1.17c-7.789 15.969-5.211 34.054 6.728 47.198 11.877 13.076 29.518 17.375 46.063 11.228l.092-.033c.063-.022.126-.045.189-.069 5.645-2.123 11.824-1.853 17.417.772 22.666 10.58 72.682 28.329 153.002 28.329 80.261 0 130.32-17.748 153.047-28.34 5.403-2.541 11.814-2.872 17.411-.753 16.577 6.198 34.271 1.898 46.178-11.218 11.938-13.155 14.511-31.24 6.711-47.2-7.029-11.713.806-28.602 3.077-40.814zm-484.299-257.866c0-22.508 13.346-43.943 37.579-60.359 25.427-17.225 59.42-26.71 95.718-26.71 33.048 0 67.257 7.709 95.007 26.236 24.518 16.37 44.134 43.677 36.637 74.417-3.516 14.426-12.778 28.222-26.787 39.896-4.516 3.765-4.759 10.849-.505 14.913 4.866 4.652 10.138 8.838 10.151 16.273.009 4.87-2.511 9.257-5.844 12.651-9.121 9.289-23.668 12.642-36.257 12.642-15.565 0-29.839-5.43-37.146-13.686-1.352-1.529-2.466-3.155-3.304-4.862-1.982-4.036-6.246-5.944-10.584-5.481-27.918 2.974-56.76.258-83.341-8.952-23.421-8.115-46.773-21.874-60.642-42.987-6.633-10.098-10.682-21.845-10.682-33.991zm462.681 306.298.579 1.18c4.921 10.087 1.389 19.507-3.56 24.96-4.927 5.427-13.913 9.836-24.325 5.941-10.606-4.016-22.685-3.46-32.934 1.358-21.196 9.88-68.163 26.454-144.567 26.454-76.459 0-123.379-16.573-144.524-26.443-5.724-2.686-11.954-4.04-18.171-4.04-4.987 0-9.966.872-14.666 2.626l-.082.029c-.057.02-.113.041-.169.062-10.448 3.905-19.426-.49-24.346-5.907-4.952-5.451-8.486-14.876-3.514-25.071l.573-1.205c4.367-8.927 5.453-19.155 3.053-28.825-5.693-22.776-9.365-46.077-11.472-69.45-2.098-23.272 2.082-47.375 6.396-70.252 1.495-7.925 3.203-15.752 5.079-23.271 1.807-7.269 1.635-14.865-.427-21.989 29.995 12.27 63.232 16.49 95.447 13.905.823 1.109 1.715 2.183 2.658 3.229 11.248 12.487 30.718 20.372 51.992 20.372 18.475 0 38.485-5.681 51.405-19.555 12.908-13.861 14.177-34.101 2.033-49.031 9.924-9.958 18.098-21.833 22.85-35.119 62.806 3.039 102.212 17.385 120.422 25.875 10.245 4.816 22.314 5.405 32.925 1.387 10.451-3.906 19.438.5 24.364 5.926 4.951 5.456 8.485 14.882 3.56 24.96-8.934 17.859-2.021 34.999 1.386 53.31 3.571 18.936 6.038 38.526 7.333 58.238-1.294 19.695-3.76 39.274-7.337 58.231-3.26 17.533-10.41 34.911-1.961 52.115z" fill="#00a388"/><path d="m360.155 413.961c-63.691 17.259-136.021 12.028-198.449-14.353-5.087-2.149-10.954.231-13.104 5.319-2.149 5.087.231 10.954 5.319 13.104 33.035 13.959 68.158 22.408 104.392 25.11 8.32.621 16.603.93 24.836.93 28.137 0 55.704-3.616 82.236-10.807 5.331-1.444 8.481-6.937 7.037-12.268-1.444-5.329-6.938-8.479-12.267-7.035z" fill="#00a388"/><path d="m408.67 399.02c-7.568-4.96-17.628 2.218-15.186 10.984 1.144 4.106 4.871 7.11 9.138 7.315 4.271.205 8.274-2.404 9.816-6.387 1.68-4.339.046-9.301-3.768-11.912z" fill="#00a388"/><path d="m308.939 297.521c19.027 0 34.507-13.159 34.507-29.334s-15.479-29.334-34.507-29.334-34.507 13.159-34.507 29.334 15.48 29.334 34.507 29.334zm0-38.668c8.549 0 14.507 4.919 14.507 9.334s-5.958 9.334-14.507 9.334-14.507-4.919-14.507-9.334 5.959-9.334 14.507-9.334z" fill="#00a388"/><path d="m75.97 144.554c1.486 2.742 4.354 4.45 7.473 4.45h34.428c4.694 0 8.5-3.806 8.5-8.5s-3.806-8.5-8.5-8.5h-18.744l25.064-38.468c1.703-2.613 1.837-5.948.352-8.69-1.486-2.742-4.354-4.45-7.473-4.45h-32.569c-4.694 0-8.5 3.806-8.5 8.5s3.806 8.5 8.5 8.5h16.885l-25.064 38.468c-1.703 2.612-1.838 5.948-.352 8.69z" fill="#00a388"/><path d="m140.428 144.554c1.486 2.742 4.354 4.45 7.473 4.45h23.898c4.694 0 8.5-3.806 8.5-8.5s-3.806-8.5-8.5-8.5h-8.214l14.779-22.683c1.703-2.613 1.837-5.948.352-8.69-1.486-2.742-4.354-4.45-7.473-4.45h-22.606c-4.694 0-8.5 3.806-8.5 8.5s3.806 8.5 8.5 8.5h6.923l-14.779 22.683c-1.704 2.612-1.839 5.948-.353 8.69z" fill="#00a388"/><path d="m194.053 144.554c1.486 2.742 4.354 4.45 7.473 4.45h23.898c4.694 0 8.5-3.806 8.5-8.5s-3.806-8.5-8.5-8.5h-8.214l14.78-22.683c1.703-2.613 1.837-5.948.352-8.69-1.486-2.742-4.354-4.45-7.473-4.45h-22.607c-4.694 0-8.5 3.806-8.5 8.5s3.806 8.5 8.5 8.5h6.923l-14.78 22.683c-1.703 2.612-1.838 5.948-.352 8.69z" fill="#00a388"/></g><g transform="matrix(0.11718818545341492 0 0 0.11718818545341492 273 294.9999940776472)" id="L1_7"><path d="m501.726 326.683c-8.679-10.654-21.524-16.765-35.245-16.765h-11.728-61.157c.21-3.254.329-6.528.329-9.809 0-29.602 53.922-69.205 74.696-81.965 2.552-1.565 4.268-4.191 4.678-7.156.409-2.965-.531-5.958-2.563-8.156l-21.965-23.76c-2.761-2.988-7.059-4.004-10.865-2.571-.693.261-17.377 6.563-50.715 21.203-5.33 2.34-10.343 2.52-15.325.549-12.775-5.052-22.733-22.851-25.524-29.347-.004-.01-.006-.021-.011-.031-.759-1.809-16.942-38.774-72.459-48.789 2.519-4.682 3.951-10.034 3.951-15.717 0-18.322-14.87-33.228-33.148-33.228-18.277 0-33.147 14.906-33.147 33.228 0 5.617 1.403 10.91 3.868 15.554-58.25 9.844-71.971 47.731-72.603 49.574-.971 2.858-.753 6.008-1.674 8.943-1.453 4.631-3.552 9.072-5.725 13.4-13.366-7.343-28.294-11.19-43.763-11.19-50.526 0-91.631 41.401-91.631 92.29s41.105 92.29 91.63 92.29c6.009 0 11.963-.598 17.796-1.757 3.677 7.876 8.035 15.473 13.1 22.694 9.446 13.467 20.883 25.128 33.866 34.689h-37.252c-5.522 0-10 4.477-10 10s4.478 10 10 10h282.994c1.989 0 4.001-.62 5.642-1.746 15.019-9.454 27.405-22.302 36.775-37.936h21.93c21.467 0 40.208-15.297 44.561-36.374 2.793-13.525-.603-27.418-9.316-38.117zm-270.199-222.315c0-7.293 5.897-13.228 13.147-13.228s13.148 5.934 13.148 13.228-5.898 13.228-13.148 13.228-13.147-5.934-13.147-13.228zm13.148 33.228c39.792 0 61.74 13.924 72.966 25.144h-146.958c10.484-11.1 32.042-25.144 73.992-25.144zm-153.045 207.634c-39.497 0-71.63-32.429-71.63-72.29s32.133-72.29 71.63-72.29c11.991 0 23.567 2.954 33.943 8.606-1.113 1.795-2.266 3.561-3.415 5.333-17.494 25.153-26.738 54.717-26.738 85.521 0 15.001 2.237 30.022 6.662 44.357-3.444.507-6.936.763-10.452.763zm23.905-39.823c-.897-22.84 4.157-45.731 14.852-65.952 5.006-9.464 11.479-18.102 16.839-27.37 5.356-9.261 10.496-19.001 13.41-29.344h50.796v24.157h-8.681c-3.637 0-6.986 1.974-8.748 5.156l-13.595 24.551c-.821 1.482-1.252 3.149-1.252 4.844v39.774c0 5.523 4.478 10 10 10h64.739c5.522 0 10-4.477 10-10v-39.774c0-1.64-.403-3.255-1.175-4.703l-13.083-24.551c-1.737-3.261-5.131-5.297-8.825-5.297h-9.381v-24.158h99.402c5.054 9.567 16.334 27.214 33.599 34.081 9.942 3.954 20.591 3.675 30.797-.805 21.318-9.361 35.874-15.319 43.487-18.356l9.324 10.086c-7.878 5.407-19.378 13.784-30.973 23.94-28.629 25.079-43.145 48.1-43.145 68.423 0 3.285-.122 6.563-.363 9.809h-101.38c-3.568 0-6.901 1.978-8.683 5.049-1.854 3.194-1.337 7.223-1.303 10.768.245 25.724 6.516 51.787 19.397 74.141 3.997 6.937 8.75 13.505 14.093 19.467-1.213.523-2.435 1.028-3.662 1.514h-94.692c-47.428-18.759-79.691-64.505-81.794-115.45zm119.277-78.511 9.085 17.049v27.276h-44.739v-27.19l9.488-17.135zm92.933 193.96c-25.207-16.817-39.102-45.068-43.758-74.369-.871-5.484-1.441-11.019-1.683-16.567h100.225c.011 0 .021-.001.032-.001h62.071c-1.512 34.924-15.491 70.961-45.442 90.938h-71.445zm163.71-60.101c-2.444 11.832-12.947 20.42-24.975 20.42h-12.198c1.805-4.658 3.416-9.472 4.774-14.472 4.001-14.733 5.248-28.054 5.582-36.784h1.843c7.68 0 14.875 3.425 19.738 9.396 4.899 6.014 6.808 13.829 5.236 21.44z" fill="#00a388"/><path d="m83.8 427.03c-1.641-3.939-5.711-6.462-9.972-6.144-4.345.324-8.05 3.533-9.014 7.778-1.985 8.738 8.189 15.481 15.508 10.366 3.8-2.655 5.23-7.726 3.478-12z" fill="#00a388"/></g></defs><g fi:class="KUsePattern" opacity="0.1"><pattern id="pattern_L1_0" width="350" height="350" patternUnits="userSpaceOnUse"><use xlink:href="#L1_0" x="-350" y="-350"/><use xlink:href="#L1_0" x="0" y="-350"/><use xlink:href="#L1_0" x="350" y="-350"/><use xlink:href="#L1_0" x="-350" y="0"/><use xlink:href="#L1_0" x="0" y="0"/><use xlink:href="#L1_0" x="350" y="0"/><use xlink:href="#L1_0" x="-350" y="350"/><use xlink:href="#L1_0" x="0" y="350"/><use xlink:href="#L1_0" x="350" y="350"/></pattern><rect x="0" y="0" width="100%" height="100%" fill="url(#pattern_L1_0)"/></g><g fi:class="KUsePattern" opacity="0.1"><pattern id="pattern_L1_1" width="350" height="350" patternUnits="userSpaceOnUse"><use xlink:href="#L1_1" x="-350" y="-350"/><use xlink:href="#L1_1" x="0" y="-350"/><use xlink:href="#L1_1" x="350" y="-350"/><use xlink:href="#L1_1" x="-350" y="0"/><use xlink:href="#L1_1" x="0" y="0"/><use xlink:href="#L1_1" x="350" y="0"/><use xlink:href="#L1_1" x="-350" y="350"/><use xlink:href="#L1_1" x="0" y="350"/><use xlink:href="#L1_1" x="350" y="350"/></pattern><rect x="0" y="0" width="100%" height="100%" fill="url(#pattern_L1_1)"/></g><g fi:class="KUsePattern" opacity="0.1"><pattern id="pattern_L1_2" width="350" height="350" patternUnits="userSpaceOnUse"><use xlink:href="#L1_2" x="-350" y="-350"/><use xlink:href="#L1_2" x="0" y="-350"/><use xlink:href="#L1_2" x="350" y="-350"/><use xlink:href="#L1_2" x="-350" y="0"/><use xlink:href="#L1_2" x="0" y="0"/><use xlink:href="#L1_2" x="350" y="0"/><use xlink:href="#L1_2" x="-350" y="350"/><use xlink:href="#L1_2" x="0" y="350"/><use xlink:href="#L1_2" x="350" y="350"/></pattern><rect x="0" y="0" width="100%" height="100%" fill="url(#pattern_L1_2)"/></g><g fi:class="KUsePattern" opacity="0.1"><pattern id="pattern_L1_4" width="350" height="350" patternUnits="userSpaceOnUse"><use xlink:href="#L1_4" x="-350" y="-350"/><use xlink:href="#L1_4" x="0" y="-350"/><use xlink:href="#L1_4" x="350" y="-350"/><use xlink:href="#L1_4" x="-350" y="0"/><use xlink:href="#L1_4" x="0" y="0"/><use xlink:href="#L1_4" x="350" y="0"/><use xlink:href="#L1_4" x="-350" y="350"/><use xlink:href="#L1_4" x="0" y="350"/><use xlink:href="#L1_4" x="350" y="350"/></pattern><rect x="0" y="0" width="100%" height="100%" fill="url(#pattern_L1_4)"/></g><g fi:class="KUsePattern" opacity="0.1"><pattern id="pattern_L1_6" width="350" height="350" patternUnits="userSpaceOnUse"><use xlink:href="#L1_6" x="-350" y="-350"/><use xlink:href="#L1_6" x="0" y="-350"/><use xlink:href="#L1_6" x="350" y="-350"/><use xlink:href="#L1_6" x="-350" y="0"/><use xlink:href="#L1_6" x="0" y="0"/><use xlink:href="#L1_6" x="350" y="0"/><use xlink:href="#L1_6" x="-350" y="350"/><use xlink:href="#L1_6" x="0" y="350"/><use xlink:href="#L1_6" x="350" y="350"/></pattern><rect x="0" y="0" width="100%" height="100%" fill="url(#pattern_L1_6)"/></g><g fi:class="KUsePattern" opacity="0.1"><pattern id="pattern_L1_7" width="350" height="350" patternUnits="userSpaceOnUse"><use xlink:href="#L1_7" x="-350" y="-350"/><use xlink:href="#L1_7" x="0" y="-350"/><use xlink:href="#L1_7" x="350" y="-350"/><use xlink:href="#L1_7" x="-350" y="0"/><use xlink:href="#L1_7" x="0" y="0"/><use xlink:href="#L1_7" x="350" y="0"/><use xlink:href="#L1_7" x="-350" y="350"/><use xlink:href="#L1_7" x="0" y="350"/><use xlink:href="#L1_7" x="350" y="350"/></pattern><rect x="0" y="0" width="100%" height="100%" fill="url(#pattern_L1_7)"/></g></svg>