<svg xmlns="http://www.w3.org/2000/svg" xmlns:xlink="http://www.w3.org/1999/xlink" viewBox="0 0 2097.27 1641.09"><defs><style>.cls-1,.cls-36{fill:none;}.cls-2{isolation:isolate;}.cls-28,.cls-3,.cls-5,.cls-53,.cls-8{opacity:0.95;}.cls-3{fill:url(#linear-gradient);}.cls-4{fill:#98e5b4;}.cls-5{fill:url(#linear-gradient-2);}.cls-6{fill:#48e5a2;}.cls-7{fill:url(#linear-gradient-3);}.cls-8{fill:url(#linear-gradient-4);}.cls-9{fill:#0e2d3d;}.cls-10{fill:#163342;}.cls-11{fill:#eea886;}.cls-12{fill:#1d3b54;}.cls-13{fill:#285173;}.cls-14{fill:#ffbf55;}.cls-15{fill:#183c59;}.cls-16{fill:#606060;}.cls-17{fill:#e0cec7;}.cls-18{fill:#eea987;}.cls-19{fill:#a77860;}.cls-20{fill:url(#linear-gradient-5);}.cls-21{fill:url(#linear-gradient-6);}.cls-22{fill:url(#linear-gradient-7);}.cls-23{fill:url(#linear-gradient-8);}.cls-24{fill:url(#linear-gradient-9);}.cls-25{fill:#fff;}.cls-26{fill:url(#linear-gradient-10);}.cls-27{fill:url(#linear-gradient-11);}.cls-28{fill:url(#linear-gradient-12);}.cls-29{fill:#c4aa90;}.cls-30{fill:#85674d;}.cls-31{fill:#a68b6d;}.cls-32{fill:#b1d665;}.cls-33{fill:#e5e6e8;}.cls-34,.cls-44{fill:#cdcfce;}.cls-34,.cls-43{opacity:0.3;}.cls-34,.cls-35,.cls-38,.cls-43,.cls-67{mix-blend-mode:multiply;}.cls-35,.cls-38,.cls-39{fill:#59698b;}.cls-35{opacity:0.1;}.cls-36{stroke:#59698b;stroke-linecap:round;stroke-linejoin:round;stroke-width:1.5px;}.cls-37{fill:#5ca09f;}.cls-38{opacity:0.4;}.cls-40{fill:#87ccc9;}.cls-41{fill:#5a6a8c;}.cls-42{fill:#f5f6f8;}.cls-45{fill:#c4c6c5;}.cls-46{fill:#292c47;}.cls-47{fill:#424773;}.cls-48{fill:#3a3f47;}.cls-49{fill:#e2d2ca;}.cls-50{fill:#323657;}.cls-51{fill:#ffdf69;}.cls-52{fill:#ab9546;}.cls-54{fill:url(#linear-gradient-13);}.cls-55{fill:url(#linear-gradient-14);}.cls-56{fill:url(#linear-gradient-15);}.cls-57{fill:url(#linear-gradient-16);}.cls-58{fill:url(#linear-gradient-17);}.cls-59{fill:url(#linear-gradient-18);}.cls-60{fill:url(#linear-gradient-19);}.cls-61{fill:url(#linear-gradient-20);}.cls-62{fill:url(#linear-gradient-21);}.cls-63{fill:url(#linear-gradient-22);}.cls-64{fill:url(#linear-gradient-23);}.cls-65{fill:#f37350;}.cls-66{fill:#c0584f;}.cls-67{opacity:0.2;}.cls-68{fill:#4c5777;}.cls-69{fill:#cc7e36;}.cls-70{fill:#f89655;}.cls-71{fill:#4a4b4d;}.cls-72{clip-path:url(#clip-path);}.cls-73{fill:#5d6162;}.cls-74{fill:#505656;}.cls-75{fill:#a58a6c;}.cls-76{fill:#095b73;}.cls-77{fill:#e3e8e4;}.cls-78{fill:#ba692a;}.cls-79{fill:#707676;}.cls-80{fill:#5e6263;}.cls-81{fill:#cd7f37;}</style><linearGradient id="linear-gradient" x1="1062.55" y1="1164.51" x2="1021.36" y2="417.95" gradientUnits="userSpaceOnUse"><stop offset="0" stop-color="#d0ddd3"/><stop offset="1" stop-color="#eefff6"/></linearGradient><linearGradient id="linear-gradient-2" x1="1736.33" y1="1372.64" x2="1736.33" y2="604.05" xlink:href="#linear-gradient"/><linearGradient id="linear-gradient-3" y1="1594.72" x2="1981.46" y2="1594.72" gradientUnits="userSpaceOnUse"><stop offset="0.01" stop-color="#76c79d"/><stop offset="1" stop-color="#a6d9c7"/></linearGradient><linearGradient id="linear-gradient-4" x1="1024.87" y1="898.02" x2="1024.87" y2="336.02" xlink:href="#linear-gradient"/><linearGradient id="linear-gradient-5" x1="-4092.39" y1="1219.85" x2="-3965" y2="1219.85" gradientTransform="matrix(-1, 0, 0, 1, -3643.22, 0)" gradientUnits="userSpaceOnUse"><stop offset="0" stop-color="#32a086"/><stop offset="1" stop-color="#48c9b6"/></linearGradient><linearGradient id="linear-gradient-6" x1="-3993.42" y1="1325" x2="-3761.83" y2="1325" xlink:href="#linear-gradient-5"/><linearGradient id="linear-gradient-7" x1="-3973.62" y1="1358.68" x2="-3799.8" y2="1358.68" xlink:href="#linear-gradient-5"/><linearGradient id="linear-gradient-8" x1="-4183.73" y1="1182.11" x2="-3922.71" y2="1182.11" xlink:href="#linear-gradient-5"/><linearGradient id="linear-gradient-9" x1="385.1" y1="1467.03" x2="233.12" y2="1011.1" gradientTransform="matrix(1, 0, 0, 1, 0, 0)" xlink:href="#linear-gradient-5"/><linearGradient id="linear-gradient-10" x1="267.51" y1="1764.79" x2="343.5" y2="1437.22" gradientUnits="userSpaceOnUse"><stop offset="0" stop-color="#c9c4c1"/><stop offset="1" stop-color="#fff6de"/></linearGradient><linearGradient id="linear-gradient-11" x1="233.29" y1="1509.17" x2="420.09" y2="1509.17" gradientTransform="translate(19.53)" xlink:href="#linear-gradient-10"/><linearGradient id="linear-gradient-12" x1="1534.18" y1="422.89" x2="1534.18" y2="106.31" xlink:href="#linear-gradient"/><linearGradient id="linear-gradient-13" x1="1972.66" y1="333.9" x2="2012.03" y2="333.9" xlink:href="#linear-gradient"/><linearGradient id="linear-gradient-14" x1="1958.56" y1="333.9" x2="1974.97" y2="333.9" xlink:href="#linear-gradient"/><linearGradient id="linear-gradient-15" x1="1859.59" y1="315.9" x2="1985.7" y2="315.9" xlink:href="#linear-gradient"/><linearGradient id="linear-gradient-16" x1="1159.26" y1="7.79" x2="1210.98" y2="7.79" xlink:href="#linear-gradient"/><linearGradient id="linear-gradient-17" x1="1159.26" y1="45.17" x2="1210.98" y2="45.17" xlink:href="#linear-gradient"/><linearGradient id="linear-gradient-18" x1="1159.26" y1="82.55" x2="1210.98" y2="82.55" xlink:href="#linear-gradient"/><linearGradient id="linear-gradient-19" x1="1232.34" y1="7.79" x2="1247.05" y2="7.79" xlink:href="#linear-gradient"/><linearGradient id="linear-gradient-20" x1="1232.34" y1="45.17" x2="1247.05" y2="45.17" xlink:href="#linear-gradient"/><linearGradient id="linear-gradient-21" x1="1232.34" y1="82.55" x2="1247.05" y2="82.55" xlink:href="#linear-gradient"/><linearGradient id="linear-gradient-22" x1="1027.43" y1="840.17" x2="1098.1" y2="840.17" xlink:href="#linear-gradient"/><linearGradient id="linear-gradient-23" x1="1002.11" y1="840.17" x2="1031.57" y2="840.17" xlink:href="#linear-gradient"/><clipPath id="clip-path"><polygon class="cls-1" points="934.01 362.57 977.11 313.48 1129.45 313.48 1191.28 404.73 908.53 404.73 934.01 362.57"/></clipPath></defs><title>cari-villa</title><g class="cls-2"><g id="Layer_2" data-name="Layer 2"><g id="Слой_1" data-name="Слой 1"><rect class="cls-3" x="761.14" y="217.96" width="527.46" height="527.46" rx="58.67"/><rect class="cls-4" x="902.77" y="625.34" width="244.21" height="12.06"/><rect class="cls-4" x="937.36" y="663.35" width="175.03" height="12.06"/><rect class="cls-5" x="1375.38" y="400.9" width="721.89" height="847.34" rx="69.12"/><rect class="cls-6" x="1702.69" y="900.77" width="57.26" height="10.6"/><rect class="cls-4" x="1485.32" y="997.94" width="333.16" height="20.53"/><rect class="cls-4" x="1485.32" y="1096.51" width="269.41" height="20.53"/><rect class="cls-4" x="1485.32" y="1047.22" width="157.94" height="20.53"/><path class="cls-6" d="M1905.64,485.4v10.37h61.06v57.29h10.36V485.4Zm-414.58,67.66h10.36V495.77h61.06V485.4h-71.42ZM1966.7,848.72V906h-61.06v10.37h71.42V848.72Zm-465.28,0h-10.36v67.69h71.42V906h-61.06Z"/><path class="cls-6" d="M1944.74,1118.55a61.06,61.06,0,1,1,61.06-61.06A61.13,61.13,0,0,1,1944.74,1118.55Zm0-110.3a49.24,49.24,0,1,0,49.24,49.24A49.3,49.3,0,0,0,1944.74,1008.25Z"/><polygon class="cls-6" points="1940.85 1081.52 1913.11 1053.78 1921.46 1045.43 1940.85 1064.81 1968.02 1037.64 1976.37 1045.99 1940.85 1081.52"/><path class="cls-7" d="M1981.46,1594.72c0,25.61-443.57,46.37-990.73,46.37S0,1620.33,0,1594.72s443.56-46.37,990.73-46.37S1981.46,1569.11,1981.46,1594.72Z"/><rect class="cls-8" x="847.11" y="237.68" width="355.53" height="305.04"/><path class="cls-9" d="M839.22,600.49S871,616,863.16,658.35s-11.34,48-2.55,64.54,19.17,87.05,11.25,100.42-98-58.74-110.44-119.24,7.92-87.4,15.13-97.42S811.15,586.25,839.22,600.49Z"/><path class="cls-10" d="M827.23,1582.36h7.2v-34s14.14,9.42,23,22.44,21.07,11.92,39.63,11.09,17.74-8.32,16.08-18.85-20.51-13.85-26.61-15.52-19.93-25.5-24.38-31.31a79.77,79.77,0,0,1-9.29-15.52s-3.46-14.14-20.65,0S820,1542,822,1544.5,827.23,1582.36,827.23,1582.36Z"/><path class="cls-11" d="M863.53,1547.54c6.38,4.16,23,0,23,0-4.71-6.09-33.67-46.83-33.67-46.83-17.6-10.26-24.55,3.86-24.55,3.86C835.49,1506.76,857.16,1543.39,863.53,1547.54Z"/><path class="cls-11" d="M1048.83,920.62s11.54,2.22,15.48-3.21c3.35-4.61,11-8.15,13.37-9.24,3.15-1.46,11.16-9.56,13-5.6s-12.55,14-15.16,16.69,14.16,3.9,17,6.53-.67,30.28-12.08,28.13-22.17-12-24.25-12a71.3,71.3,0,0,1-8.37-1.23Z"/><path class="cls-11" d="M1090.06,924.66s34.49,8.91,36.3,11.43,1.2,4.36-2.06,3.66-33.57-7.65-33.57-7.65,39,17.41,41,19.15c1.12,1,.19,4.65-1.59,4.44s-41.47-15.26-41.47-15.26,36.43,16.32,37.61,18.26a2.75,2.75,0,0,1-3.45,3.78c-2.79-1-37.46-14.25-37.46-14.25s25.77,13.54,25.8,15.77c0,1.36-.64,4.53-7.18.83S1081.08,954,1081.08,954Z"/><path class="cls-10" d="M733.86,1584.68h4.43v-24.94a54.18,54.18,0,0,1,11.49,20c3.61,11.91,16.5,15.45,36.18,14.89s19.95-8.32,18.29-20S786,1557,786,1557c-7.48-6.66-26.05-34.23-26.05-34.23s-11.92-3.19-21.27,4.36-6.44,24.6-6.17,29S733.86,1584.68,733.86,1584.68Z"/><path class="cls-12" d="M747.44,990.5S724,1021,717.63,1057.15s3.76,157.55,3.48,175.43-16.9,62.36-13.58,96S724,1529.87,724,1529.87l35.93-7.13s-2.08-170.85,0-185,6.25-65.65,7.08-71.47,52.78-158.64,52.78-184.71S804,948,747.44,990.5Z"/><path class="cls-12" d="M865.22,1002.42s38.52,147,43.1,167.39,11.19,37.17,11.19,45.82c0,20.06-7.45,52.29-7.45,52.29l-48.92,233.95H816.55s26-140.36,26.66-167.8,21.87-66.57,17.72-78.21S794,1110,794,1110,746.47,959.74,865.22,1002.42Z"/><path class="cls-11" d="M786,1557l-26.05-34.23-21.27,4.36s5.73,15.32,16.06,26.85C767,1567.6,786,1557,786,1557Z"/><path class="cls-13" d="M849.31,752.58a48.09,48.09,0,0,1,27.88,14.35c12,12.86,23.27,33.36,26.41,40.22s47.2,70.41,49.49,71.84,24.43,8.83,39.1,13.77c22.65,7.62,68,24.11,68,24.11l-9,28.55s-85.35-27.93-106.73-33.2c-26.14-6.44-86.31-83.64-86.31-83.64S813.31,776,849.31,752.58Z"/><path class="cls-14" d="M821.6,741.44s20.57,9.71,27.71,11.14S884.17,790,889,803.15s0,32.86-10,56-.57,30.86-5.15,54-3.1,109.72-2.24,122.58-133.74,32.35-160.31,8.92c0,0,18-78,39.29-100.3,4.6-4.82,4.12-36.92,1-44.92S713,831.72,713,831.72s-2.6-60.56,12.86-72.57c13.43-10.43,50-14.15,56.6-16.43S808.17,739.44,821.6,741.44Z"/><path class="cls-11" d="M831.42,717.7s-.61,5.66-1.32,13.31c-.28,3-.58,6.38-.85,9.8-.82,10.27-1.47,21.28-1.08,26.91,0,0-21.38,21.43-45.69-25,0,0,10.22-19.14,2.53-45.21S831.42,717.7,831.42,717.7Z"/><path class="cls-15" d="M891.25,867.69s5.15-34.23-.32-55c0,0,0,17.9-9.82,43.31Z"/><path class="cls-11" d="M766.05,746s14.71,43.44,55.08,40.24,19.14-36.67,19.14-36.67-10.06-5.77-12.89-6.32-44.64-1.07-44.64-1.07Z"/><path class="cls-13" d="M840.27,749.58s21.15,58.49,21.15,118.11,1.7,156.73,9.09,187.4S898.9,1180.6,898.9,1180.6l16.47-8.52s-39.6-151.37-42.59-162.28,2.27-126.22,5.11-135.88,14.92-52.63,13-64.55c-2.37-15-16.43-37.27-39.15-56.4Z"/><path class="cls-13" d="M774,744.19a607.67,607.67,0,0,1,19.81,96c6.66,53.9-20.45,304.08-38.62,360.87l-70.42-11.36s15.15-176.84,35.73-209,27.13-60.66,4.91-127.83,9.74-100.43,9.74-100.43S767.86,744.88,774,744.19Z"/><polygon class="cls-16" points="850.01 922.65 764.62 1070.55 669.7 1015.74 751.38 865.71 850.01 922.65"/><polygon class="cls-17" points="839.72 927.74 763.88 1059.09 679.58 1010.42 752.12 877.17 839.72 927.74"/><polygon class="cls-16" points="811.74 915.94 817.06 906.72 782.98 887.04 776.32 895.49 811.74 915.94"/><path class="cls-11" d="M807.67,1020.88s-3.88,0-5.58-.81c0,0-3-1.73-5.18-2.83a15.45,15.45,0,0,0-1.73-.78c-1.74-.6-5.74-1.4-9.52-4s-17.14-18.09-17.14-18.09l6.31-9.6,4.63-9.84s28.08,1.81,31.87,3.85a11.66,11.66,0,0,1,1,.63c3,2,4.47,4.83,6,6.08.54.46,5.6,5.42,5.42,7.53a6.92,6.92,0,0,1-3.36,5.82s-.73,5.71-3.54,8.38c0,0-.5,5.29-5,7.6C811.9,1014.79,810.79,1020.11,807.67,1020.88Z"/><path class="cls-13" d="M749.81,752.58s-25.93-7.43-40.79,21.14-14.78,40.77-16.77,54.72c-1.87,13.17-10.34,49.14-11.2,52.86s-20,48-11.23,63.49,98.58,61.36,98,64.79S783.37,975,783.37,975s-36.31-20.24-42.26-26.47c-9.66-10.13-30-21-25.85-33.59,4.92-14.76,19.69-64.53,23.12-71.81S771.67,761.86,749.81,752.58Z"/><path class="cls-18" d="M834.61,605.18s46.17,14.51,21.11,94.18-88.11-9.23-81.52-57.77S834.61,605.18,834.61,605.18Z"/><path class="cls-9" d="M860.43,651.67S837.5,674.18,799.11,677c0,0-14.75,17.3-15.89,24.09,0,0-34.25-58.38,7.85-93.38S875.91,637.25,860.43,651.67Z"/><path class="cls-18" d="M799.57,678.58c-.3-5.8-3.87-19-12.49-15.3s.53,30.56,6.25,28.91C793.33,692.19,800.27,692.29,799.57,678.58Z"/><path class="cls-19" d="M830.1,731c-.28,3-.58,6.38-.85,9.8,0,0-20.37-1.21-34-31.52C796.14,710.61,811.07,732.54,830.1,731Z"/><path class="cls-20" d="M324.6,1459.54c29.6-20.81,64.24-165.88,66.31-252.29,1.06-44.26,14.14-62.7,25.68-79,11-15.55,20.57-29,15-59.82-10.61-58.93,17.28-84.37,17.56-84.62l-3.23-3.68c-1.24,1.09-30.29,27.32-19.15,89.17,5.18,28.81-3.37,40.86-14.19,56.12-11.36,16-25.49,35.93-26.59,81.68-2.21,92.74-37.63,229.71-64.23,248.41Z"/><path class="cls-21" d="M262.55,1417.23c-2.79-6.33-5.68-12.88-9-19.79-16.91-35.7-31.89-41.57-56.71-51.31-6.06-2.38-12.94-5.08-20.48-8.47-35.55-16-28.67-39.52-22.59-60.29.85-2.91,1.69-5.8,2.43-8.67,3.12-12.22-2.88-18.35-12-27.62-6.76-6.9-15.17-15.48-21.66-29-7.09-14.84-3.47-22.79.81-26.85,9-8.55,29.81-7,49.44,3.75,6.1,3.33,11.12,8.58,16.44,14.15,12.51,13.1,28.09,29.41,67.48,29.6,22.47.1,34.77,3.21,41.14,10.37,7.23,8.12,5.87,20.29,4,37.12-.65,5.83-1.39,12.43-1.84,19.56-2.68,42.55,22.44,73.24,22.69,73.54,15,17.87,33.49,54.94,25.51,77.76-3.34,9.56-10.82,15.58-22.23,17.89a63.26,63.26,0,0,1-12.52,1.36C286,1470.3,275.89,1447.45,262.55,1417.23Zm-92-224c-17.53-9.57-36.33-11.5-43.73-4.49-5.63,5.33-3,14.46.24,21.18,6.13,12.82,13.89,20.74,20.73,27.72,9.52,9.71,17,17.38,13.22,32.26-.75,2.92-1.61,5.87-2.47,8.83-6.05,20.69-11.76,40.22,19.9,54.45,7.43,3.35,14.25,6,20.26,8.38,25,9.83,41.6,16.32,59.34,53.77,3.3,7,6.21,13.55,9,19.91,15.32,34.71,24.56,55.66,58,48.89,9.59-1.94,15.85-6.89,18.58-14.71,7-20.11-9.79-55.31-24.65-73-1.08-1.3-26.62-32.43-23.81-77,.45-7.25,1.2-13.91,1.86-19.79,1.74-15.58,3-26.83-2.77-33.33-5.29-5.94-16.86-8.63-37.51-8.73-41.47-.19-57.85-17.33-71-31.11-5.27-5.51-9.81-10.27-15.24-13.24Z"/><path class="cls-22" d="M325.51,1498.56l4.89-.26c-.24-4.59-6.41-112.85-49.88-144.54-47.69-34.76-62.72-72.12-69.88-97.19-8.44-29.55-51.39-37.44-53.21-37.77l-.85,4.83c.41.07,41.75,7.69,49.35,34.28,7.36,25.77,22.8,64.16,71.71,99.81C319.24,1388,325.45,1497.46,325.51,1498.56Z"/><path class="cls-23" d="M317.24,1522.91c-10.23-5.1-9.86-25.58-9.3-56.58.71-39.17,1.68-92.82-18.83-142.16-21.78-52.42-2.35-67.74,16.44-82.56,21-16.59,40.92-32.27,2.77-103-17.52-32.49-23.08-54.47-17.51-69.16,5.52-14.53,21-20.19,37.36-26.18,28.26-10.34,60.3-22.07,56.16-81.89-1.27-18.33.88-29.61,6.78-35.49,6.41-6.38,15.85-5.69,26.78-4.89,16.52,1.21,35.23,2.58,51.53-18.69,1.69-5.31,17.28-52.74,35.92-60.86a13.23,13.23,0,0,1,11.4.06h0c12.87,6.16,20.33,13.46,22.83,22.32,4.34,15.41-7,32.8-20,52.93-20.54,31.63-43.83,67.49-19.68,110.15,31.94,56.42,15.07,76.16-8.27,103.49-13.38,15.65-28.53,33.39-38.67,62.33-8.15,23.28,5.75,45.47,19.2,66.93,16.86,26.93,34.3,54.76-2.41,78.92C409,1378.5,349.05,1508.87,348.45,1510.18l-.25.55-.47.36c-11.18,8.77-19.32,13-25.45,13A11.14,11.14,0,0,1,317.24,1522.91ZM467,1334.47c32.72-21.52,18-45,1-72.23-13.4-21.39-28.6-45.65-19.67-71.14,10.44-29.81,25.91-47.92,39.56-63.9,22.88-26.78,38-44.46,7.74-97.89-25.61-45.26-.41-84.06,19.84-115.24,12.42-19.13,23.15-35.65,19.42-48.93-2.09-7.43-8.71-13.72-20.23-19.23h0a8.4,8.4,0,0,0-7.34,0C490,853.45,474.12,903.66,474,904.17l-.13.41-.25.34c-18,23.73-39.08,22.19-56,21-10.14-.75-18.15-1.33-23,3.47s-6.51,15.1-5.36,31.69c4.39,63.49-31,76.42-59.36,86.82-16,5.84-29.74,10.88-34.46,23.31-5,13.27.44,34,17.24,65.11,40.1,74.37,17.65,92.07-4.05,109.18-18.16,14.32-35.31,27.84-14.95,76.84,20.9,50.29,19.92,104.53,19.2,144.13-.49,27-.87,48.39,6.59,52.1,4.36,2.18,12.71-1.49,24.83-10.91C349.1,1497.06,406.52,1374.27,467,1334.47Z"/><path class="cls-24" d="M221.41,954.67c30.9-10.6,24.48,49,37.54,93s145.23,19.22,89.75,129.55,70.17,36.9,32.63,133.18-3.26,199.25-44.05,173S314.36,1336,271.93,1321.63s-49.35-31.21-7.35-70.38-110.07-78-72.54-157.12S185.72,966.91,221.41,954.67Z"/><path class="cls-25" d="M323.05,1477.14c3.89-16.48,37.07-161.53,6.11-179.06-27.29-15.45-26.62-75.56-22.36-132.32,3.77-50.24-60.75-73.72-63.5-74.69l-1.64,4.61c.64.23,63.75,23.21,60.26,69.72-4.37,58.29-4.84,120.14,24.83,136.94,23.51,13.31,1.86,129.88-8.46,173.67Z"/><polygon class="cls-26" points="439.62 1425.49 395.51 1592.84 296.93 1592.84 252.82 1425.49 439.62 1425.49"/><path class="cls-27" d="M439.62,1425.49s-97.11,18.23-97.11,167.35H296.93l-44.11-167.35Z"/><rect class="cls-28" x="1340.42" y="22.63" width="387.53" height="349.02" rx="48.23"/><rect class="cls-6" x="1517.34" y="305.64" width="30.74" height="5.69"/><path class="cls-6" d="M1626.29,85.79v5.57h32.78v30.76h5.56V85.79Zm-222.56,36.33h5.57V91.36h32.77V85.79h-38.34Zm255.34,158.71V311.6h-32.78v5.57h38.34V280.83Zm-249.77,0h-5.57v36.34h38.34V311.6H1409.3Z"/><rect class="cls-6" x="1004.35" y="566.4" width="41.05" height="7.6"/><path class="cls-6" d="M1147.91,272.75v7.44h43.77v41.08h7.44V272.75ZM850.63,321.27h7.44V280.19h43.77v-7.44H850.63Zm341.05,212v41.1h-43.77v7.43h51.21V533.27Zm-333.61,0h-7.44V581.8h51.21v-7.43H858.07Z"/><path class="cls-29" d="M1634.44,808a.48.48,0,0,1-.34-.83L1645.67,796a.48.48,0,1,1,.67.69l-11.57,11.25A.47.47,0,0,1,1634.44,808Z"/><path class="cls-29" d="M1654,812a.52.52,0,0,1-.35-.14.5.5,0,0,1,0-.69L1665.26,800a.48.48,0,0,1,.67.69l-11.56,11.24A.47.47,0,0,1,1654,812Z"/><path class="cls-30" d="M1631.15,770.09h31.67a7.51,7.51,0,0,1,7.51,7.51v71.73a0,0,0,0,1,0,0h-46.69a0,0,0,0,1,0,0V777.6A7.51,7.51,0,0,1,1631.15,770.09Z"/><path class="cls-31" d="M1633.58,774.63h26.81a6.35,6.35,0,0,1,6.35,6.35v68a.3.3,0,0,1-.3.3h-38.92a.3.3,0,0,1-.3-.3V781A6.35,6.35,0,0,1,1633.58,774.63Z"/><path class="cls-29" d="M1630.65,831.67a.33.33,0,0,1-.24-.1.33.33,0,0,1,0-.47l27.48-27.26a.34.34,0,0,1,.48,0,.34.34,0,0,1,0,.47l-27.48,27.25A.3.3,0,0,1,1630.65,831.67Z"/><path class="cls-29" d="M1630.65,831.74a.4.4,0,0,1-.29-.12.41.41,0,0,1,0-.57l27.48-27.26a.4.4,0,0,1,.56,0,.41.41,0,0,1,0,.58l-27.48,27.25A.36.36,0,0,1,1630.65,831.74Zm27.48-27.92a.26.26,0,0,0-.19.07l-27.48,27.26a.27.27,0,0,0,0,.37.26.26,0,0,0,.37,0l27.48-27.25a.27.27,0,0,0,0-.38A.28.28,0,0,0,1658.13,803.82Z"/><path class="cls-29" d="M1646.44,825.6a.18.18,0,0,1-.12-.05.15.15,0,0,1,0-.23l14.21-13.23a.18.18,0,0,1,.25,0,.16.16,0,0,1,0,.23l-14.22,13.23A.18.18,0,0,1,1646.44,825.6Z"/><path class="cls-29" d="M1646.44,825.77a.34.34,0,0,1-.24-.09.36.36,0,0,1-.11-.25.32.32,0,0,1,.11-.24L1660.41,812a.37.37,0,0,1,.49,0,.33.33,0,0,1,.1.25.37.37,0,0,1-.1.24l-14.22,13.23A.34.34,0,0,1,1646.44,825.77Z"/><path class="cls-29" d="M1637.55,814.73a.24.24,0,0,1-.18-.07.23.23,0,0,1,0-.34L1658,794.6a.27.27,0,0,1,.36,0,.23.23,0,0,1,0,.34l-20.67,19.72A.23.23,0,0,1,1637.55,814.73Z"/><path class="cls-29" d="M1637.54,814.9a.41.41,0,0,1-.42-.41.43.43,0,0,1,.13-.3l20.66-19.72a.45.45,0,0,1,.6,0,.39.39,0,0,1,.13.29.42.42,0,0,1-.13.3l-20.67,19.72A.44.44,0,0,1,1637.54,814.9Zm20.67-20.19s0,0,0,0l-20.67,19.72a0,0,0,0,0,0,.08.08.08,0,0,0,.11,0l20.67-19.72,0,0,0,0A.07.07,0,0,0,1658.21,794.71Z"/><path class="cls-32" d="M1586.49,848.69c-28.84,1.22-57.19,1.53-68.47-7s-13-29.22-.28-35.23c-13.87-6.22-26.38-19-26-34.24s19.7-28.15,31.72-18.84c-6.15-17.66-11.85-38.79-.61-53.74,11.1-14.77,32.66-15.37,51.12-14.6-8.5-20.11-1.75-45.57,15.59-58.84s43.67-13.13,60.87.33c5-13.69,25.18-16,37.06-7.56s17.1,23.38,20.49,37.57c14.27,59.64,8.54,122,2.73,183.06"/><path class="cls-32" d="M1909.58,848.11c15.08,0,25.07-1,34.09-8.45,3.83-3.17,8.11-6.32,9.45-11s-.85-10.47-5.7-11.92c2.95-1,4.08-4.42,4.33-7.4.56-6.77-1.8-14-7.4-18.27s-14.63-4.43-19.53.52c3.21-3.77,1.41-9.77-2.48-12.91s-9.16-4.15-14.19-5a41.5,41.5,0,0,0-9.49-.74,27.73,27.73,0,0,0-11.87,4,37.24,37.24,0,0,0-17.48,23.53,35.6,35.6,0,0,0,5.83,28.26c3.75,5.24,10.42,9.84,16.7,7.71"/><polygon class="cls-33" points="1908.84 848.69 1621.43 848.69 1621.43 528.22 1908.84 549.13 1908.84 848.69"/><polygon class="cls-34" points="1644.63 583.09 1908.84 848.69 1706.34 848.69 1644.63 583.09"/><polygon class="cls-35" points="1621.43 523.36 1621.43 542.07 1908.84 578.38 1908.84 553.5 1621.43 523.36"/><line class="cls-36" x1="1892.18" y1="564.64" x2="1893.93" y2="499.36"/><line class="cls-36" x1="1883.7" y1="532.85" x2="1904.82" y2="528.84"/><line class="cls-36" x1="1883.24" y1="515.31" x2="1911.55" y2="515.52"/><rect class="cls-37" x="1807.56" y="597.15" width="40.43" height="54.53"/><path class="cls-38" d="M1851.65,657.27h-47.76a2.79,2.79,0,0,1-2.79-2.79h0a2.79,2.79,0,0,1,2.79-2.8h47.76a2.8,2.8,0,0,1,2.8,2.8h0A2.79,2.79,0,0,1,1851.65,657.27Z"/><path class="cls-39" d="M1851.65,656.67h-47.76a2.79,2.79,0,0,1-2.79-2.79h0a2.79,2.79,0,0,1,2.79-2.8h47.76a2.8,2.8,0,0,1,2.8,2.8h0A2.79,2.79,0,0,1,1851.65,656.67Z"/><path class="cls-40" d="M1819.09,627.52a.28.28,0,0,1-.2-.09.27.27,0,0,1,0-.39l6.71-6.53a.28.28,0,0,1,.4,0,.29.29,0,0,1,0,.4l-6.71,6.53A.32.32,0,0,1,1819.09,627.52Z"/><path class="cls-40" d="M1823.28,634.61a.29.29,0,0,1-.19-.49l6.71-6.52a.28.28,0,1,1,.39.4l-6.71,6.53A.32.32,0,0,1,1823.28,634.61Z"/><path class="cls-40" d="M1830,608.35a.28.28,0,0,1-.2-.09.27.27,0,0,1,0-.39l6.71-6.53a.28.28,0,0,1,.4,0,.29.29,0,0,1,0,.4l-6.71,6.53A.32.32,0,0,1,1830,608.35Z"/><path class="cls-40" d="M1816,634.17a.29.29,0,0,1-.21-.09.29.29,0,0,1,0-.4l21.26-19a.27.27,0,0,1,.4,0,.28.28,0,0,1,0,.39l-21.26,19A.28.28,0,0,1,1816,634.17Z"/><rect class="cls-41" x="1826.64" y="597.15" width="2.27" height="56.23"/><rect class="cls-41" x="1807.56" y="615.32" width="40.43" height="2.27"/><rect class="cls-41" x="1807.56" y="637.19" width="40.43" height="2.27"/><rect class="cls-37" x="1682.28" y="597.15" width="40.43" height="54.53"/><path class="cls-38" d="M1726.37,657.27h-47.76a2.79,2.79,0,0,1-2.79-2.79h0a2.79,2.79,0,0,1,2.79-2.8h47.76a2.8,2.8,0,0,1,2.8,2.8h0A2.79,2.79,0,0,1,1726.37,657.27Z"/><path class="cls-39" d="M1726.37,656.67h-47.76a2.79,2.79,0,0,1-2.79-2.79h0a2.79,2.79,0,0,1,2.79-2.8h47.76a2.8,2.8,0,0,1,2.8,2.8h0A2.79,2.79,0,0,1,1726.37,656.67Z"/><path class="cls-40" d="M1693.81,627.52a.28.28,0,0,1-.2-.09.27.27,0,0,1,0-.39l6.71-6.53a.28.28,0,0,1,.4,0,.29.29,0,0,1,0,.4l-6.71,6.53A.32.32,0,0,1,1693.81,627.52Z"/><path class="cls-40" d="M1698,634.61a.29.29,0,0,1-.19-.49l6.71-6.52a.28.28,0,1,1,.39.4l-6.71,6.53A.32.32,0,0,1,1698,634.61Z"/><path class="cls-40" d="M1704.72,608.35a.28.28,0,0,1-.2-.09.27.27,0,0,1,0-.39l6.71-6.53a.28.28,0,0,1,.4,0,.29.29,0,0,1,0,.4l-6.71,6.53A.32.32,0,0,1,1704.72,608.35Z"/><path class="cls-40" d="M1690.73,634.17a.29.29,0,0,1-.21-.09.29.29,0,0,1,0-.4l21.26-19a.27.27,0,0,1,.4,0,.28.28,0,0,1,0,.39l-21.26,19A.28.28,0,0,1,1690.73,634.17Z"/><rect class="cls-41" x="1701.36" y="597.15" width="2.27" height="56.23"/><rect class="cls-41" x="1682.28" y="615.32" width="40.43" height="2.27"/><rect class="cls-41" x="1682.28" y="637.19" width="40.43" height="2.27"/><rect class="cls-37" x="1807.56" y="719.65" width="40.43" height="54.53"/><path class="cls-38" d="M1851.65,779.76h-47.76a2.79,2.79,0,0,1-2.79-2.79h0a2.79,2.79,0,0,1,2.79-2.79h47.76a2.79,2.79,0,0,1,2.8,2.79h0A2.79,2.79,0,0,1,1851.65,779.76Z"/><path class="cls-39" d="M1851.65,779.16h-47.76a2.79,2.79,0,0,1-2.79-2.79h0a2.79,2.79,0,0,1,2.79-2.79h47.76a2.79,2.79,0,0,1,2.8,2.79h0A2.79,2.79,0,0,1,1851.65,779.16Z"/><path class="cls-40" d="M1819.09,750a.32.32,0,0,1-.2-.08.28.28,0,0,1,0-.4l6.71-6.53a.28.28,0,0,1,.4,0,.28.28,0,0,1,0,.39l-6.71,6.53A.32.32,0,0,1,1819.09,750Z"/><path class="cls-40" d="M1823.28,757.1a.28.28,0,0,1-.2-.09.27.27,0,0,1,0-.39l6.71-6.53a.28.28,0,0,1,.4,0,.27.27,0,0,1,0,.39l-6.71,6.53A.32.32,0,0,1,1823.28,757.1Z"/><path class="cls-40" d="M1830,730.84a.28.28,0,0,1-.2-.09.27.27,0,0,1,0-.39l6.71-6.53a.28.28,0,0,1,.4,0,.28.28,0,0,1,0,.39l-6.71,6.53A.32.32,0,0,1,1830,730.84Z"/><path class="cls-40" d="M1816,756.66a.29.29,0,0,1-.21-.09.29.29,0,0,1,0-.4l21.26-19a.28.28,0,1,1,.38.42l-21.26,19A.28.28,0,0,1,1816,756.66Z"/><rect class="cls-41" x="1826.64" y="719.65" width="2.27" height="56.23"/><rect class="cls-41" x="1807.56" y="737.81" width="40.43" height="2.27"/><rect class="cls-41" x="1807.56" y="759.68" width="40.43" height="2.27"/><rect class="cls-37" x="1682.28" y="719.65" width="40.43" height="54.53"/><path class="cls-38" d="M1726.37,779.76h-47.76a2.79,2.79,0,0,1-2.79-2.79h0a2.79,2.79,0,0,1,2.79-2.79h47.76a2.79,2.79,0,0,1,2.8,2.79h0A2.79,2.79,0,0,1,1726.37,779.76Z"/><path class="cls-39" d="M1726.37,779.16h-47.76a2.79,2.79,0,0,1-2.79-2.79h0a2.79,2.79,0,0,1,2.79-2.79h47.76a2.79,2.79,0,0,1,2.8,2.79h0A2.79,2.79,0,0,1,1726.37,779.16Z"/><path class="cls-40" d="M1693.81,750a.32.32,0,0,1-.2-.08.28.28,0,0,1,0-.4l6.71-6.53a.28.28,0,0,1,.4,0,.28.28,0,0,1,0,.39l-6.71,6.53A.32.32,0,0,1,1693.81,750Z"/><path class="cls-40" d="M1698,757.1a.28.28,0,0,1-.2-.09.27.27,0,0,1,0-.39l6.71-6.53a.28.28,0,0,1,.4,0,.27.27,0,0,1,0,.39L1698.2,757A.32.32,0,0,1,1698,757.1Z"/><path class="cls-40" d="M1704.72,730.84a.28.28,0,0,1-.2-.09.27.27,0,0,1,0-.39l6.71-6.53a.28.28,0,0,1,.4,0,.28.28,0,0,1,0,.39l-6.71,6.53A.32.32,0,0,1,1704.72,730.84Z"/><path class="cls-40" d="M1690.73,756.66a.29.29,0,0,1-.21-.09.29.29,0,0,1,0-.4l21.26-19a.28.28,0,1,1,.38.42l-21.26,19A.28.28,0,0,1,1690.73,756.66Z"/><rect class="cls-41" x="1701.36" y="719.65" width="2.27" height="56.23"/><rect class="cls-41" x="1682.28" y="737.81" width="40.43" height="2.27"/><rect class="cls-41" x="1682.28" y="759.68" width="40.43" height="2.27"/><polygon class="cls-39" points="1604.35 512.1 1604.35 533.6 1925.91 573.61 1925.91 548.55 1604.35 512.1"/><polygon class="cls-42" points="1706.34 848.69 1573.37 848.69 1573.37 654.31 1639.85 588.51 1706.34 663.4 1706.34 848.69"/><path class="cls-35" d="M1706.34,660.91l-61.71-70.16a4.54,4.54,0,0,0-6.65-.18l-64.74,66,.13,12.81,65-65.15a4.55,4.55,0,0,1,6.64.22l61.29,70.18Z"/><path class="cls-39" d="M1718.34,666.91l-73.71-83.82a4.56,4.56,0,0,0-6.66-.18L1555.47,667a4.38,4.38,0,0,0,0,6.16h0a4.55,4.55,0,0,0,6.43,0l76.46-76.6a4.55,4.55,0,0,1,6.64.22l66.35,76a4.67,4.67,0,0,0,6.21.84A4.54,4.54,0,0,0,1718.34,666.91Z"/><path class="cls-37" d="M1650.18,639.69a11.13,11.13,0,1,1-11.12-11.12A11.12,11.12,0,0,1,1650.18,639.69Z"/><g class="cls-43"><rect class="cls-44" x="1675.1" y="756.76" width="20.71" height="10.85"/></g><g class="cls-43"><rect class="cls-44" x="1693.22" y="769.47" width="13.12" height="10.85"/></g><g class="cls-43"><rect class="cls-44" x="1573.37" y="808.15" width="13.12" height="10.85"/></g><g class="cls-43"><rect class="cls-44" x="1663.12" y="663.66" width="17.12" height="10.85"/></g><rect class="cls-37" x="1619.64" y="676.18" width="40.43" height="54.53"/><path class="cls-38" d="M1663.73,736.3H1616a2.79,2.79,0,0,1-2.79-2.8h0a2.79,2.79,0,0,1,2.79-2.79h47.76a2.79,2.79,0,0,1,2.79,2.79h0A2.79,2.79,0,0,1,1663.73,736.3Z"/><path class="cls-39" d="M1663.73,735.7H1616a2.8,2.8,0,0,1-2.79-2.8h0a2.79,2.79,0,0,1,2.79-2.79h47.76a2.79,2.79,0,0,1,2.79,2.79h0A2.8,2.8,0,0,1,1663.73,735.7Z"/><path class="cls-40" d="M1631.17,713a.32.32,0,0,1-.2-.08.28.28,0,0,1,0-.4l6.71-6.53a.28.28,0,0,1,.4,0,.28.28,0,0,1,0,.39l-6.71,6.53A.27.27,0,0,1,1631.17,713Z"/><path class="cls-40" d="M1635.36,720.12a.28.28,0,0,1-.2-.09.27.27,0,0,1,0-.39l6.71-6.53a.28.28,0,0,1,.4,0,.27.27,0,0,1,0,.39l-6.71,6.53A.32.32,0,0,1,1635.36,720.12Z"/><path class="cls-40" d="M1642.08,693.86a.32.32,0,0,1-.2-.08.28.28,0,0,1,0-.4l6.71-6.53a.28.28,0,0,1,.4,0,.28.28,0,0,1,0,.39l-6.71,6.53A.32.32,0,0,1,1642.08,693.86Z"/><path class="cls-40" d="M1628.09,719.68a.29.29,0,0,1-.21-.09.28.28,0,0,1,0-.39l21.26-19a.28.28,0,0,1,.38.42l-21.26,19A.3.3,0,0,1,1628.09,719.68Z"/><rect class="cls-41" x="1638.72" y="676.18" width="2.27" height="56.23"/><rect class="cls-41" x="1619.64" y="694.34" width="40.43" height="2.27"/><rect class="cls-41" x="1619.64" y="716.21" width="40.43" height="2.27"/><g class="cls-43"><rect class="cls-45" x="1858.13" y="670.76" width="20.71" height="10.85"/></g><g class="cls-43"><rect class="cls-45" x="1894.26" y="681.35" width="13.49" height="10.85"/></g><g class="cls-43"><rect class="cls-45" x="1878.84" y="656.67" width="20.71" height="10.85"/></g><path class="cls-29" d="M1627,806.44a.51.51,0,0,1-.36-.15.5.5,0,0,1,0-.7l11.84-11.51a.5.5,0,0,1,.69.71l-11.84,11.51A.51.51,0,0,1,1627,806.44Z"/><path class="cls-29" d="M1647.06,810.53a.5.5,0,0,1-.35-.15.49.49,0,0,1,0-.69l11.84-11.51a.48.48,0,0,1,.69,0,.5.5,0,0,1,0,.7l-11.84,11.5A.47.47,0,0,1,1647.06,810.53Z"/><path class="cls-30" d="M1639.85,767.61h0a23.89,23.89,0,0,1,23.89,23.88v57.2H1616v-57.2A23.88,23.88,0,0,1,1639.85,767.61Z"/><path class="cls-31" d="M1639.85,772.26h0a20.21,20.21,0,0,1,20.22,20.21v55.27a1,1,0,0,1-1,1h-38.53a1,1,0,0,1-.95-1V792.47A20.21,20.21,0,0,1,1639.85,772.26Z"/><path class="cls-29" d="M1623.14,830.62a.33.33,0,0,1-.24-.1.34.34,0,0,1,0-.48L1651,802.15a.33.33,0,0,1,.48,0,.34.34,0,0,1,0,.48l-28.12,27.89A.33.33,0,0,1,1623.14,830.62Z"/><path class="cls-29" d="M1623.14,830.69a.4.4,0,0,1-.29-.12.41.41,0,0,1,0-.58L1651,802.1a.41.41,0,0,1,.58.58l-28.12,27.89A.38.38,0,0,1,1623.14,830.69Zm28.12-28.57a.24.24,0,0,0-.19.08L1623,830.09a.28.28,0,0,0,0,.38.27.27,0,0,0,.38,0l28.12-27.89a.26.26,0,0,0,0-.38A.24.24,0,0,0,1651.26,802.12Z"/><path class="cls-29" d="M1639.3,824.41a.21.21,0,0,1-.13,0,.18.18,0,0,1,0-.24l14.55-13.54a.2.2,0,0,1,.25,0,.16.16,0,0,1,0,.24l-14.55,13.54A.18.18,0,0,1,1639.3,824.41Z"/><path class="cls-29" d="M1639.3,824.59a.37.37,0,0,1-.25-.1.36.36,0,0,1-.11-.25.33.33,0,0,1,.11-.25l14.55-13.54a.36.36,0,0,1,.6.25.34.34,0,0,1-.11.25l-14.55,13.54A.35.35,0,0,1,1639.3,824.59Z"/><path class="cls-29" d="M1630.2,813.29a.25.25,0,0,1-.18-.08.24.24,0,0,1,0-.35l21.14-20.17a.27.27,0,0,1,.37,0,.24.24,0,0,1,0,.35l-21.14,20.17A.27.27,0,0,1,1630.2,813.29Z"/><path class="cls-29" d="M1630.2,813.46a.43.43,0,0,1-.44-.42.46.46,0,0,1,.13-.31L1651,792.56a.45.45,0,0,1,.61,0,.44.44,0,0,1,.13.31.43.43,0,0,1-.13.3l-21.15,20.18A.46.46,0,0,1,1630.2,813.46Zm21.14-20.66s0,0,0,0L1630.14,813a0,0,0,0,0,0,.08.09.09,0,0,0,.12,0l21.14-20.17a.06.06,0,0,0,0,0,0,0,0,0,0,0,0S1651.36,792.8,1651.34,792.8Z"/><polygon class="cls-46" points="1312.88 844.24 1220.47 895.04 1127.66 749 1239.91 710.01 1312.88 844.24"/><polygon class="cls-25" points="1307.02 839.85 1220.6 887.36 1133.81 750.78 1238.78 714.32 1307.02 839.85"/><path class="cls-11" d="M1338.66,814.31s-16.08-7.69-23.14-11.71-25.22-9.54-26.69-10.85-53.83-4.54-57-7.28-6.26,6.42,7.31,9.39,32.46,10.24,33.49,15.55-13.94,6.56-15.45,10.93.42,3.39,2.57,4.33,17.81-7.74,24.7-5.28,17.41-.95,22.69.86,30.95,10.45,30.95,10.45Z"/><path class="cls-11" d="M1216,876.71s-13.51-12.16-20-17.25-18.81-20.05-20.62-20.92-25.24-49-29.06-50.89,3.62-8.4,11.7,3.23,22.29,26.6,27.7,25.51.75-15.69,4.28-18.83,3.36-.91,5.08.74-.36,19.8,4.64,25.33,5.89,16.79,9.65,21.06,21.89,25.1,21.89,25.1Z"/><path class="cls-47" d="M1507,1526.74s2.92,20.29,3.28,23.33,32.52-1.79,32.52-1.79l2.6-24.15S1511,1523.88,1507,1526.74Z"/><path class="cls-46" d="M1509.91,1547.49s-10.18,12.23-20,17.56-25.33,7.44-31.16,13c-4.2,4-15.31,21.13,25.6,20.78s60.65,2.42,65-4.15-6.34-48.51-6.34-48.51S1533.31,1549.61,1509.91,1547.49Z"/><path class="cls-47" d="M1276.61,1526.74s2.92,20.29,3.28,23.33,32.52-1.79,32.52-1.79l2.6-24.15S1280.63,1523.88,1276.61,1526.74Z"/><path class="cls-46" d="M1279.55,1547.49s-10.18,12.23-20,17.56-46.1,9.7-51.93,15.22c-4.2,4-11.2,20,46.38,18.51,40.9-1.07,60.64,2.42,65-4.15s-6.35-48.51-6.35-48.51S1303.51,1549.84,1279.55,1547.49Z"/><path class="cls-46" d="M1480.34,1005.42s30.21,48,28,91.38,11,90.75,15.49,136.08c5.06,50.52,25.76,170.13,26.51,197.16s-3.21,113.33-3.21,113.33l-41.44,1s-34.81-209.12-43.83-230.45-53.72-173.46-55.22-190.52S1480.34,1005.42,1480.34,1005.42Z"/><path class="cls-46" d="M1321.32,1011.92s-22.77,118.91-25.77,145.47-5,128.5-6.51,145.1-10,217.17-18,241.83h53s40.67-145.82,40.67-214.81,31.42-150,51.71-195.5,66.71-46.59,79.18-131C1495.55,1003,1338.2,985.14,1321.32,1011.92Z"/><path class="cls-11" d="M1429.93,601.9s-40.54-15.15-59.24,15.72-16.9,92.66,3.54,100.26,51.14,3.62,61.61-15.69,19.91-47.24,19.45-65.9S1440.58,607.29,1429.93,601.9Z"/><path class="cls-11" d="M1378.63,719.29s1.69,11-1.1,16.34,52.53,5.53,52.53,5.53,4.5-29.33,13-54.11S1378.63,719.29,1378.63,719.29Z"/><path class="cls-48" d="M1443.07,687.05s-3.82,6.29-19.4,3.85-34.6-23.18-41.11-25.46-6.57-6.09-6.57-6.09l-4.07,5.95-6.92.43s6.31-18.54-3.2-26.11,9.87-60,59.85-42.57c0,0,38.39,10.58,37,32.42S1451.66,676.17,1443.07,687.05Z"/><path class="cls-49" d="M1374.25,735s.17-10.3,4.84-11.29,51.56-5.5,57.29-3.24v12S1425.33,739.25,1374.25,735Z"/><path class="cls-11" d="M1377,651.4c.88-3.66,10.19-14.12,13.76-2.92s-5.39,26.28-10.39,25S1374.81,660.69,1377,651.4Z"/><path class="cls-50" d="M1188.19,856.72h.07C1187.94,856.86,1187.9,856.87,1188.19,856.72Z"/><path class="cls-51" d="M1526.43,883.9c-1.63,5.23-9,9.66-13.78,11.59a17.87,17.87,0,0,1-9.94,1l-2.44-.46h0l-42.58-7.89s-9.31-107.3,58.17-133C1517.65,755.73,1541.33,835.86,1526.43,883.9Z"/><path class="cls-52" d="M1512.65,895.49h0a17.87,17.87,0,0,1-9.94,1l-2.44-.46h0l4.2-54.83Z"/><path class="cls-52" d="M1264.35,895.08l-5.2,22s-5.65-22.11-5.38-33.6C1260,890.22,1264.35,895.08,1264.35,895.08Z"/><path class="cls-48" d="M1441.48,605.54s53.14-6.65.9,82.11Z"/><polygon class="cls-46" points="1170.39 741.16 1164.98 731.88 1207.53 717.2 1212.93 726.43 1170.39 741.16"/><path class="cls-51" d="M1514.42,1119.76s-24.86,7.32-67.27,12-148.35-1.68-149-6.69,22.79-186.54,21.46-195.89-2-42.66-2-42.66c-.53,9.12-9.83,46.41-21,66.73-4.06,7.34-17.66,30.36-24.22,25.12-31.74-25.34-80.89-120.84-84-121.64,2.62-1.14,23.29-10.66,26.19-11.63,2.54-.85,25.44,23.4,39.31,38.43,6.19,6.7,10.58,11.56,10.58,11.56,4-9,18.6-65.8,23.14-85.45,10.22-44.32,8.65-46.17,8.65-46.17,31-9.38,78.11-28.48,78.11-28.48l62.13-2.53s57,12.55,79.48,22.69c2.13,1,2.14,50.87,8,64l-18.62,39.28s-10.76,77.81-13,112.42C1491.22,986.68,1514.42,1119.76,1514.42,1119.76Z"/><g class="cls-53"><polygon class="cls-54" points="1981.89 343.47 2012.03 343.47 2002.81 324.33 1972.66 324.33 1981.89 343.47"/><polygon class="cls-55" points="1967.78 343.47 1974.97 343.47 1965.74 324.33 1958.56 324.33 1967.78 343.47"/><polygon class="cls-56" points="1863.64 320.68 1985.7 320.68 1981.64 311.11 1859.59 311.11 1863.64 320.68"/></g><rect class="cls-57" x="1159.26" width="51.72" height="15.59" rx="2.82"/><rect class="cls-58" x="1159.26" y="37.38" width="51.72" height="15.59" rx="2.82"/><rect class="cls-59" x="1159.26" y="74.75" width="51.72" height="15.59" rx="2.82"/><rect class="cls-60" x="1232.34" width="14.72" height="15.59" rx="2.82"/><rect class="cls-61" x="1232.34" y="37.38" width="14.72" height="15.59" rx="2.82"/><rect class="cls-62" x="1232.34" y="74.75" width="14.72" height="15.59" rx="2.82"/><polygon class="cls-63" points="1043.99 857.34 1098.1 857.34 1081.54 822.99 1027.43 822.99 1043.99 857.34"/><polygon class="cls-64" points="1018.67 857.34 1031.57 857.34 1015.01 822.99 1002.11 822.99 1018.67 857.34"/><path class="cls-32" d="M1410,279.54c-.43-9.63,8.3-19.62,17.77-17.8-3.84-6.55-7.61-13.43-8.36-21s2.24-16,9-19.45a14.72,14.72,0,0,1,15.69,1.7c1.61-12.79,6-25.8,15.32-34.66S1484,176,1495,182.9c9.77,6.16,13.65,18.3,16.27,29.55a368.34,368.34,0,0,1,7.54,44.39c1,8.9,1.1,19.16-5.43,25.28"/><rect class="cls-65" x="1606.95" y="106.57" width="22.29" height="55.73"/><rect class="cls-66" x="1602.39" y="98.68" width="31.41" height="10.68" rx="2.58"/><rect class="cls-66" x="1606.95" y="118.53" width="22.29" height="2.09"/><rect class="cls-66" x="1617.05" y="106.4" width="2.09" height="13.18"/><rect class="cls-66" x="1617.05" y="129.73" width="2.09" height="12.37"/><rect class="cls-66" x="1606.95" y="129.56" width="22.29" height="2.09"/><rect class="cls-66" x="1606.95" y="140.59" width="22.29" height="2.09"/><rect class="cls-66" x="1606.95" y="150.26" width="22.29" height="2.09"/><polygon class="cls-65" points="1550.76 92.64 1470.41 172.61 1470.41 195.27 1470.41 300.69 1640.39 300.69 1640.39 195.27 1640.39 180.18 1550.76 92.64"/><g class="cls-67"><path class="cls-68" d="M1553.08,87.18l-82.67,82.43v13.12l82.67-78.37,87.31,82.79V178.9a2.42,2.42,0,0,0,1.65-4.19Z"/></g><rect class="cls-41" x="1468.54" y="263.32" width="151.05" height="11.1"/><rect class="cls-37" x="1491.89" y="215.59" width="65.48" height="54.34"/><rect class="cls-30" x="1579.66" y="213.15" width="43.19" height="87.54"/><rect class="cls-31" x="1583.16" y="218.72" width="36.19" height="77.44"/><rect class="cls-41" x="1576.76" y="208.27" width="49.23" height="7.31" rx="1.89"/><path class="cls-41" d="M1549.23,87.09l-88.58,86.17a5.51,5.51,0,0,0,3.84,9.47h0a5.52,5.52,0,0,0,3.81-1.52l81-77.06a5.54,5.54,0,0,1,7.61,0l81,77.06a5.49,5.49,0,0,0,3.8,1.52h0a5.52,5.52,0,0,0,3.85-9.47l-88.59-86.17A5.52,5.52,0,0,0,1549.23,87.09Z"/><rect class="cls-66" x="1480.05" y="191.21" width="14.63" height="7.66"/><rect class="cls-66" x="1599.63" y="178.9" width="14.63" height="7.66"/><rect class="cls-66" x="1494.68" y="183.55" width="14.63" height="7.66"/><rect class="cls-66" x="1470.41" y="261.57" width="11.9" height="7.66"/><rect class="cls-41" x="1490.01" y="213.15" width="69.25" height="2.44"/><path class="cls-29" d="M1590,249.75a.36.36,0,0,1-.25-.11.34.34,0,0,1,0-.49l8.35-8.13a.36.36,0,0,1,.5,0,.35.35,0,0,1,0,.49l-8.36,8.13A.37.37,0,0,1,1590,249.75Z"/><path class="cls-40" d="M1503.68,237.4a.35.35,0,0,1-.25-.59l8.36-8.13a.35.35,0,1,1,.49.5l-8.36,8.12A.34.34,0,0,1,1503.68,237.4Z"/><path class="cls-40" d="M1514,238.79a.33.33,0,0,1-.25-.11.34.34,0,0,1,0-.49l8.36-8.13a.35.35,0,0,1,.49.5l-8.36,8.13A.34.34,0,0,1,1514,238.79Z"/><path class="cls-40" d="M1499.84,245.68a.36.36,0,0,1-.26-.11.34.34,0,0,1,0-.49l26.47-23.69a.35.35,0,0,1,.49,0,.34.34,0,0,1,0,.49l-26.47,23.69A.4.4,0,0,1,1499.84,245.68Z"/><path class="cls-29" d="M1604.19,252.64a.35.35,0,0,1-.25-.1.36.36,0,0,1,0-.5l8.36-8.12a.35.35,0,1,1,.49.5l-8.36,8.12A.33.33,0,0,1,1604.19,252.64Z"/><path class="cls-29" d="M1586.43,261.85a.34.34,0,0,1-.24-.59l28.74-28.52a.36.36,0,0,1,.5,0,.35.35,0,0,1,0,.49l-28.74,28.51A.35.35,0,0,1,1586.43,261.85Z"/><rect class="cls-41" x="1507.86" y="215.59" width="2.21" height="49.81"/><rect class="cls-41" x="1523.53" y="215.59" width="2.21" height="49.81"/><rect class="cls-41" x="1539.2" y="215.59" width="2.21" height="49.81"/><rect class="cls-41" x="1491.89" y="241.83" width="65.48" height="1.86"/><circle class="cls-37" cx="1555.4" cy="150.46" r="16.72" transform="translate(1151.34 1659.97) rotate(-80.54)"/><path class="cls-41" d="M1555.4,169.61a19.16,19.16,0,1,1,19.16-19.15A19.18,19.18,0,0,1,1555.4,169.61Zm0-33.62a14.47,14.47,0,1,0,14.47,14.47A14.48,14.48,0,0,0,1555.4,136Z"/><rect class="cls-41" x="1553.24" y="134.52" width="4.33" height="31.87"/><rect class="cls-41" x="1553.24" y="134.52" width="4.33" height="31.87" transform="translate(1705.86 -1404.94) rotate(90)"/><path class="cls-32" d="M1499.69,270.2a7.18,7.18,0,0,1-5.53-6.45,3.3,3.3,0,0,1,.23-1.56,2.92,2.92,0,0,1,2.86-1.46,8.57,8.57,0,0,1,3.22,1.07c-2.44-3.16-4.27-7.44-2.64-11.08a2.86,2.86,0,0,1,2.32-1.93c1.12,0,1.94,1,2.55,2a49.37,49.37,0,0,1,4,7.56c.42-2.75,1.29-5.75,3.66-7.21a1.83,1.83,0,0,1,1.15-.34,1.79,1.79,0,0,1,1,.55c2,2,1.86,5.28,1.53,8.11.62-1.88,3.18-2.59,5-1.73a6.58,6.58,0,0,1,3.24,4.75,7.12,7.12,0,0,1-.45,4.67,4.2,4.2,0,0,1-3.83,2.39"/><path class="cls-32" d="M1524.16,267.93c-.54.12-.89-.54-1-1.08-.48-2.07-.34-4.66,1.46-5.8a4.17,4.17,0,0,1,3.74-.16,12.1,12.1,0,0,1,3.23,2.14,6.58,6.58,0,0,1,1.7-5.16,3.94,3.94,0,0,1,5.09-.44c1.26,1.07,1.58,3,3,3.92a23.36,23.36,0,0,0-.32-3.72,3.9,3.9,0,0,1,1.16-3.4c1.45-1.12,3.73-.18,4.65,1.4s.87,3.54.79,5.37c.39-1.15,1-2.48,2.17-2.7a2.79,2.79,0,0,1,2.57,1.44,6.68,6.68,0,0,1-.75,8.22"/><rect class="cls-41" x="1487.97" y="265.4" width="73.32" height="15.33" rx="4.12"/><path class="cls-32" d="M896,523.39c-11.93,2.17-25.33,2.76-35-4.53s-11.22-25.11-.25-30.27c-11.91-5.35-22.66-16.38-22.32-29.43S855.37,435,865.69,443c-5.28-15.17-10.18-33.33-.52-46.17s28.06-13.21,43.92-12.54c-7.3-17.28-1.5-39.16,13.39-50.56s37.53-11.28,52.31.28c4.31-11.76,21.63-13.76,31.84-6.49s14.69,20.09,17.61,32.28c12.26,51.24,7.34,104.84,2.34,157.29"/><path class="cls-32" d="M1169.67,525c16.06,0,26.69-1.13,36.29-9.48,4.08-3.55,8.63-7.08,10.06-12.3s-.91-11.74-6.06-13.37c3.13-1.17,4.34-5,4.6-8.3.6-7.59-1.91-15.75-7.87-20.49s-15.59-5-20.8.59c3.42-4.23,1.5-11-2.63-14.49s-9.75-4.65-15.11-5.55a41.45,41.45,0,0,0-10.11-.82,28.59,28.59,0,0,0-12.63,4.46,41.11,41.11,0,0,0-12.4,58.1c4,5.87,11.08,11,17.77,8.64"/><rect class="cls-69" x="962.25" y="395.18" width="207.42" height="129.85"/><rect class="cls-70" x="1156.43" y="492.19" width="13.24" height="4.6"/><polygon class="cls-71" points="1181.73 395.18 1191.28 404.73 1191.28 413.17 908.53 413.17 908.53 404.73 970.93 390.68 1181.73 395.18"/><g class="cls-43"><polygon class="cls-71" points="1160.84 397.29 1169.67 406.84 1169.67 415.27 908.53 415.27 908.53 406.84 966.16 392.79 1160.84 397.29"/></g><g class="cls-72"><polygon class="cls-73" points="934.01 362.57 977.11 313.48 1129.45 313.48 1191.28 404.73 908.53 404.73 934.01 362.57"/><path class="cls-73" d="M924.89,444.72s3.8,15.16,15.73,15.38,16.43-9.5,17.61-15.28l-13.11-7Z"/><path class="cls-74" d="M941,460.62h-.4c-12.18-.23-16.18-15.61-16.22-15.76l-.11-.46,20.89-7.1,13.64,7.26-.08.37C957.18,452.55,951.71,460.62,941,460.62Zm-15.49-15.57c.75,2.49,4.86,14.34,15.11,14.54H941c12.46,0,15.91-11.34,16.62-14.5l-12.56-6.69Z"/><path class="cls-73" d="M958.23,444.72S962,459.88,974,460.1s16.43-9.5,17.61-15.28l-13.11-7Z"/><path class="cls-74" d="M974.35,460.62H974c-12.18-.23-16.18-15.61-16.22-15.76l-.12-.46,20.89-7.1,13.65,7.26-.08.37C990.52,452.55,985.05,460.62,974.35,460.62Zm-15.49-15.57c.75,2.49,4.86,14.34,15.11,14.54h.39c12.46,0,15.91-11.34,16.62-14.5l-12.56-6.69Z"/><path class="cls-73" d="M991.57,444.72s3.8,15.16,15.73,15.38,16.43-9.5,17.6-15.28l-13.1-7Z"/><path class="cls-74" d="M1007.69,460.62h-.4c-12.18-.23-16.18-15.61-16.22-15.76l-.12-.46,20.89-7.1,13.64,7.26-.07.37C1023.86,452.55,1018.39,460.62,1007.69,460.62Zm-15.5-15.57c.75,2.49,4.87,14.34,15.12,14.54h.39c12.46,0,15.9-11.34,16.62-14.5l-12.57-6.69Z"/><path class="cls-73" d="M1024.9,444.72s3.81,15.16,15.74,15.38,16.43-9.5,17.6-15.28l-13.1-7Z"/><path class="cls-74" d="M1041,460.62h-.4c-12.18-.23-16.19-15.61-16.22-15.76l-.12-.46,20.89-7.1,13.64,7.26-.08.37C1057.2,452.55,1051.73,460.62,1041,460.62Zm-15.5-15.57c.75,2.49,4.87,14.34,15.12,14.54h.39c12.46,0,15.9-11.34,16.62-14.5l-12.57-6.69Z"/><path class="cls-73" d="M1058.24,444.72s3.8,15.16,15.74,15.38,16.43-9.5,17.6-15.28l-13.11-7Z"/><path class="cls-74" d="M1074.37,460.62h-.4c-12.19-.23-16.19-15.61-16.23-15.76l-.11-.46,20.89-7.1,13.64,7.26-.08.37C1090.53,452.55,1085.07,460.62,1074.37,460.62Zm-15.5-15.57c.75,2.49,4.86,14.34,15.12,14.54h.38c12.46,0,15.91-11.34,16.63-14.5l-12.57-6.69Z"/><path class="cls-73" d="M1091.58,444.72s3.8,15.16,15.73,15.38,16.43-9.5,17.61-15.28l-13.11-7Z"/><path class="cls-74" d="M1107.71,460.62h-.41c-12.18-.23-16.18-15.61-16.22-15.76l-.11-.46,20.89-7.1,13.64,7.26-.08.37C1123.87,452.55,1118.41,460.62,1107.71,460.62Zm-15.5-15.57c.75,2.49,4.86,14.34,15.11,14.54h.39c12.46,0,15.91-11.34,16.62-14.5l-12.56-6.69Z"/><path class="cls-73" d="M1124.92,444.72s3.8,15.16,15.73,15.38,16.43-9.5,17.61-15.28l-13.11-7Z"/><path class="cls-74" d="M1141,460.62h-.4c-12.18-.23-16.18-15.61-16.22-15.76l-.12-.46,20.89-7.1,13.64,7.26-.07.37C1157.21,452.55,1151.74,460.62,1141,460.62Zm-15.5-15.57c.75,2.49,4.87,14.34,15.12,14.54h.39c12.46,0,15.9-11.34,16.62-14.5l-12.56-6.69Z"/><path class="cls-73" d="M1158.26,444.72s3.8,15.16,15.73,15.38,16.43-9.5,17.6-15.28l-13.1-7Z"/><path class="cls-74" d="M1174.38,460.62h-.4c-12.18-.23-16.18-15.61-16.22-15.76l-.12-.46,20.89-7.1,13.64,7.26-.07.37C1190.55,452.55,1185.08,460.62,1174.38,460.62Zm-15.5-15.57c.75,2.49,4.87,14.34,15.12,14.54h.39c12.46,0,15.9-11.34,16.62-14.5l-12.57-6.69Z"/><path class="cls-73" d="M908.22,433.6S912,448.75,924,449s16.43-9.5,17.61-15.28l-13.11-7Z"/><path class="cls-74" d="M924.35,449.49h-.41c-12.18-.22-16.18-15.6-16.22-15.76l-.11-.46,20.89-7.1,13.64,7.26-.08.37C940.51,441.42,935,449.49,924.35,449.49Zm-15.5-15.57c.75,2.49,4.86,14.35,15.11,14.54h.39c12.46,0,15.91-11.33,16.63-14.5l-12.57-6.68Z"/><path class="cls-73" d="M941.56,433.6s3.8,15.15,15.73,15.37,16.43-9.5,17.61-15.28l-13.11-7Z"/><path class="cls-74" d="M957.68,449.49h-.4c-12.18-.22-16.18-15.6-16.22-15.76l-.11-.46,20.89-7.1,13.64,7.26-.08.37C973.85,441.42,968.38,449.49,957.68,449.49Zm-15.49-15.57c.75,2.49,4.86,14.35,15.11,14.54h.39c12.46,0,15.91-11.33,16.62-14.5l-12.56-6.68Z"/><path class="cls-73" d="M974.9,433.6s3.8,15.15,15.73,15.37,16.43-9.5,17.6-15.28l-13.1-7Z"/><path class="cls-74" d="M991,449.49h-.4c-12.18-.22-16.18-15.6-16.22-15.76l-.12-.46,20.89-7.1,13.64,7.26-.07.37C1007.19,441.42,1001.72,449.49,991,449.49Zm-15.5-15.57c.75,2.49,4.87,14.35,15.12,14.54H991c12.46,0,15.9-11.33,16.62-14.5l-12.56-6.68Z"/><path class="cls-73" d="M1008.23,433.6S1012,448.75,1024,449s16.43-9.5,17.6-15.28l-13.1-7Z"/><path class="cls-74" d="M1024.36,449.49h-.4c-12.18-.22-16.19-15.6-16.22-15.76l-.12-.46,20.89-7.1,13.64,7.26-.08.37C1040.53,441.42,1035.06,449.49,1024.36,449.49Zm-15.5-15.57c.75,2.49,4.87,14.35,15.12,14.54h.39c12.46,0,15.9-11.33,16.62-14.5l-12.57-6.68Z"/><path class="cls-73" d="M1041.57,433.6s3.8,15.15,15.74,15.37,16.43-9.5,17.6-15.28l-13.1-7Z"/><path class="cls-74" d="M1057.7,449.49h-.4c-12.19-.22-16.19-15.6-16.23-15.76l-.11-.46,20.89-7.1,13.64,7.26-.08.37C1073.87,441.42,1068.4,449.49,1057.7,449.49Zm-15.5-15.57c.75,2.49,4.87,14.35,15.12,14.54h.39c12.46,0,15.9-11.33,16.62-14.5l-12.57-6.68Z"/><path class="cls-73" d="M1074.91,433.6s3.8,15.15,15.73,15.37,16.43-9.5,17.61-15.28l-13.11-7Z"/><path class="cls-74" d="M1091,449.49h-.41c-12.18-.22-16.18-15.6-16.22-15.76l-.11-.46,20.89-7.1,13.64,7.26-.08.37C1107.2,441.42,1101.74,449.49,1091,449.49Zm-15.5-15.57c.75,2.49,4.86,14.35,15.11,14.54h.39c12.46,0,15.91-11.33,16.62-14.5l-12.56-6.68Z"/><path class="cls-73" d="M1108.25,433.6s3.8,15.15,15.73,15.37,16.43-9.5,17.61-15.28l-13.11-7Z"/><path class="cls-74" d="M1124.38,449.49H1124c-12.18-.22-16.18-15.6-16.22-15.76l-.12-.46,20.89-7.1,13.65,7.26-.08.37C1140.54,441.42,1135.07,449.49,1124.38,449.49Zm-15.5-15.57c.74,2.49,4.86,14.35,15.11,14.54h.39c12.46,0,15.91-11.33,16.62-14.5l-12.56-6.68Z"/><path class="cls-73" d="M1141.59,433.6s3.8,15.15,15.73,15.37,16.43-9.5,17.6-15.28l-13.1-7Z"/><path class="cls-74" d="M1157.71,449.49h-.4c-12.18-.22-16.18-15.6-16.22-15.76l-.12-.46,20.89-7.1,13.64,7.26-.07.37C1173.88,441.42,1168.41,449.49,1157.71,449.49Zm-15.5-15.57c.75,2.49,4.87,14.35,15.12,14.54h.39c12.46,0,15.9-11.33,16.62-14.5l-12.57-6.68Z"/><path class="cls-73" d="M924.89,422.47s3.8,15.15,15.73,15.37,16.43-9.5,17.61-15.28l-13.11-7Z"/><path class="cls-74" d="M941,438.36h-.4c-12.18-.23-16.18-15.61-16.22-15.77l-.11-.46,20.89-7.1,13.64,7.26-.08.38C957.18,430.29,951.71,438.36,941,438.36ZM925.52,422.8c.75,2.48,4.86,14.34,15.11,14.53,12.78.27,16.29-11.3,17-14.5l-12.56-6.68Z"/><path class="cls-73" d="M958.23,422.47S962,437.62,974,437.84s16.43-9.5,17.61-15.28l-13.11-7Z"/><path class="cls-74" d="M974.35,438.36H974c-12.18-.23-16.18-15.61-16.22-15.77l-.12-.46L978.5,415l13.65,7.26-.08.38C990.52,430.29,985.05,438.36,974.35,438.36ZM958.86,422.8c.75,2.48,4.86,14.34,15.11,14.53h.39c12.46,0,15.91-11.33,16.62-14.5l-12.56-6.68Z"/><path class="cls-73" d="M991.57,422.47s3.8,15.15,15.73,15.37,16.43-9.5,17.6-15.28l-13.1-7Z"/><path class="cls-74" d="M1007.69,438.36h-.4c-12.18-.23-16.18-15.61-16.22-15.77l-.12-.46,20.89-7.1,13.64,7.26-.07.38C1023.86,430.29,1018.39,438.36,1007.69,438.36Zm-15.5-15.56c.75,2.48,4.87,14.34,15.12,14.53h.39c12.46,0,15.9-11.33,16.62-14.5l-12.57-6.68Z"/><path class="cls-73" d="M1024.9,422.47s3.81,15.15,15.74,15.37,16.43-9.5,17.6-15.28l-13.1-7Z"/><path class="cls-74" d="M1041,438.36h-.4c-12.18-.23-16.19-15.61-16.22-15.77l-.12-.46,20.89-7.1,13.64,7.26-.08.38C1057.2,430.29,1051.73,438.36,1041,438.36Zm-15.5-15.56c.75,2.48,4.87,14.34,15.12,14.53h.39c12.46,0,15.9-11.33,16.62-14.5l-12.57-6.68Z"/><path class="cls-73" d="M1058.24,422.47s3.8,15.15,15.74,15.37,16.43-9.5,17.6-15.28l-13.11-7Z"/><path class="cls-74" d="M1074.37,438.36h-.4c-12.19-.23-16.19-15.61-16.23-15.77l-.11-.46,20.89-7.1,13.64,7.26-.08.38C1090.53,430.29,1085.07,438.36,1074.37,438.36Zm-15.5-15.56c.75,2.48,4.86,14.34,15.12,14.53h.38c12.46,0,15.91-11.33,16.63-14.5l-12.57-6.68Z"/><path class="cls-73" d="M1091.58,422.47s3.8,15.15,15.73,15.37,16.43-9.5,17.61-15.28l-13.11-7Z"/><path class="cls-74" d="M1107.71,438.36h-.41c-12.18-.23-16.18-15.61-16.22-15.77l-.11-.46,20.89-7.1,13.64,7.26-.08.38C1123.87,430.29,1118.41,438.36,1107.71,438.36Zm-15.5-15.56c.75,2.48,4.86,14.34,15.11,14.53h.39c12.46,0,15.91-11.33,16.62-14.5l-12.56-6.68Z"/><path class="cls-73" d="M1124.92,422.47s3.8,15.15,15.73,15.37,16.43-9.5,17.61-15.28l-13.11-7Z"/><path class="cls-74" d="M1141,438.36h-.4c-12.18-.23-16.18-15.61-16.22-15.77l-.12-.46,20.89-7.1,13.64,7.26-.07.38C1157.21,430.29,1151.74,438.36,1141,438.36Zm-15.5-15.56c.75,2.48,4.87,14.34,15.12,14.53h.39c12.46,0,15.9-11.33,16.62-14.5l-12.56-6.68Z"/><path class="cls-73" d="M1158.26,422.47s3.8,15.15,15.73,15.37,16.43-9.5,17.6-15.28l-13.1-7Z"/><path class="cls-74" d="M1174.38,438.36h-.4c-12.18-.23-16.18-15.61-16.22-15.77l-.12-.46,20.89-7.1,13.64,7.26-.07.38C1190.55,430.29,1185.08,438.36,1174.38,438.36Zm-15.5-15.56c.75,2.48,4.87,14.34,15.12,14.53h.39c12.46,0,15.9-11.33,16.62-14.5l-12.57-6.68Z"/><path class="cls-73" d="M908.22,411.34S912,426.49,924,426.72s16.43-9.51,17.61-15.28l-13.11-7Z"/><path class="cls-74" d="M924.35,427.23h-.41c-12.18-.23-16.18-15.61-16.22-15.76l-.11-.46,20.89-7.1,13.64,7.25-.08.38C940.51,419.16,935,427.23,924.35,427.23Zm-15.5-15.56c.75,2.49,4.86,14.34,15.11,14.53h.39c12.46,0,15.91-11.34,16.63-14.5L928.41,405Z"/><path class="cls-73" d="M941.56,411.34s3.8,15.15,15.73,15.38,16.43-9.51,17.61-15.28l-13.11-7Z"/><path class="cls-74" d="M957.68,427.23h-.4c-12.18-.23-16.18-15.61-16.22-15.76L941,411l20.89-7.1,13.64,7.25-.08.38C973.85,419.16,968.38,427.23,957.68,427.23Zm-15.49-15.56c.75,2.49,4.86,14.34,15.11,14.53h.39c12.46,0,15.91-11.34,16.62-14.5L961.75,405Z"/><path class="cls-73" d="M974.9,411.34s3.8,15.15,15.73,15.38,16.43-9.51,17.6-15.28l-13.1-7Z"/><path class="cls-74" d="M991,427.23h-.4c-12.18-.23-16.18-15.61-16.22-15.76l-.12-.46,20.89-7.1,13.64,7.25-.07.38C1007.19,419.16,1001.72,427.23,991,427.23Zm-15.5-15.56c.75,2.49,4.87,14.34,15.12,14.53H991c12.46,0,15.9-11.34,16.62-14.5L995.09,405Z"/><path class="cls-73" d="M1008.23,411.34s3.81,15.15,15.74,15.38,16.43-9.51,17.6-15.28l-13.1-7Z"/><path class="cls-74" d="M1024.36,427.23h-.4c-12.18-.23-16.19-15.61-16.22-15.76l-.12-.46,20.89-7.1,13.64,7.25-.08.38C1040.53,419.16,1035.06,427.23,1024.36,427.23Zm-15.5-15.56c.75,2.49,4.87,14.34,15.12,14.53h.39c12.46,0,15.9-11.34,16.62-14.5L1028.42,405Z"/><path class="cls-73" d="M1041.57,411.34s3.8,15.15,15.74,15.38,16.43-9.51,17.6-15.28l-13.1-7Z"/><path class="cls-74" d="M1057.7,427.23h-.4c-12.19-.23-16.19-15.61-16.23-15.76L1041,411l20.89-7.1,13.64,7.25-.08.38C1073.87,419.16,1068.4,427.23,1057.7,427.23Zm-15.5-15.56c.75,2.49,4.87,14.34,15.12,14.53h.39c12.46,0,15.9-11.34,16.62-14.5L1061.76,405Z"/><path class="cls-73" d="M1074.91,411.34s3.8,15.15,15.73,15.38,16.43-9.51,17.61-15.28l-13.11-7Z"/><path class="cls-74" d="M1091,427.23h-.41c-12.18-.23-16.18-15.61-16.22-15.76l-.11-.46,20.89-7.1,13.64,7.25-.08.38C1107.2,419.16,1101.74,427.23,1091,427.23Zm-15.5-15.56c.75,2.49,4.86,14.34,15.11,14.53h.39c12.47,0,15.91-11.34,16.62-14.5L1095.1,405Z"/><path class="cls-73" d="M1108.25,411.34s3.8,15.15,15.73,15.38,16.43-9.51,17.61-15.28l-13.11-7Z"/><path class="cls-74" d="M1124.38,427.23H1124c-12.18-.23-16.18-15.61-16.22-15.76l-.12-.46,20.89-7.1,13.65,7.25-.08.38C1140.54,419.16,1135.08,427.23,1124.38,427.23Zm-15.5-15.56c.74,2.49,4.86,14.34,15.11,14.53h.39c12.46,0,15.91-11.34,16.62-14.5L1128.44,405Z"/><path class="cls-73" d="M1141.59,411.34s3.8,15.15,15.73,15.38,16.43-9.51,17.6-15.28l-13.1-7Z"/><path class="cls-74" d="M1157.71,427.23h-.4c-12.18-.23-16.18-15.61-16.22-15.76L1141,411l20.89-7.1,13.64,7.25-.07.38C1173.88,419.16,1168.41,427.23,1157.71,427.23Zm-15.5-15.56c.75,2.49,4.87,14.34,15.12,14.53h.39c12.46,0,15.9-11.34,16.62-14.5L1161.77,405Z"/><path class="cls-73" d="M924.89,400.21s3.8,15.16,15.73,15.38,16.43-9.51,17.61-15.28l-13.11-7Z"/><path class="cls-74" d="M941,416.1h-.4c-12.18-.23-16.18-15.61-16.22-15.76l-.11-.46,20.89-7.1L958.81,400l-.08.37C957.18,408,951.71,416.1,941,416.1Zm-15.49-15.56c.75,2.49,4.86,14.34,15.11,14.53,12.78.3,16.29-11.3,17-14.49l-12.56-6.69Z"/><path class="cls-73" d="M958.23,400.21S962,415.37,974,415.59s16.43-9.51,17.61-15.28l-13.11-7Z"/><path class="cls-74" d="M974.35,416.1H974c-12.18-.23-16.18-15.61-16.22-15.76l-.12-.46,20.89-7.1L992.15,400l-.08.37C990.52,408,985.05,416.1,974.35,416.1Zm-15.49-15.56c.75,2.49,4.86,14.34,15.11,14.53h.39c12.46,0,15.91-11.34,16.62-14.5l-12.56-6.69Z"/><path class="cls-73" d="M991.57,400.21s3.8,15.16,15.73,15.38,16.43-9.51,17.6-15.28l-13.1-7Z"/><path class="cls-74" d="M1007.69,416.1h-.4c-12.18-.23-16.18-15.61-16.22-15.76l-.12-.46,20.89-7.1,13.64,7.25-.07.38C1023.86,408,1018.39,416.1,1007.69,416.1Zm-15.5-15.56c.75,2.49,4.87,14.34,15.12,14.53h.39c12.46,0,15.9-11.34,16.62-14.5l-12.57-6.69Z"/><path class="cls-73" d="M1024.9,400.21s3.81,15.16,15.74,15.38,16.43-9.51,17.6-15.28l-13.1-7Z"/><path class="cls-74" d="M1041,416.1h-.4c-12.18-.23-16.19-15.61-16.22-15.76l-.12-.46,20.89-7.1,13.64,7.25-.08.38C1057.2,408,1051.73,416.1,1041,416.1Zm-15.5-15.56c.75,2.49,4.87,14.34,15.12,14.53h.39c12.46,0,15.9-11.34,16.62-14.5l-12.57-6.69Z"/><path class="cls-73" d="M1058.24,400.21s3.8,15.16,15.74,15.38,16.43-9.51,17.6-15.28l-13.11-7Z"/><path class="cls-74" d="M1074.37,416.1h-.4c-12.19-.23-16.19-15.61-16.23-15.76l-.11-.46,20.89-7.1,13.64,7.25-.08.38C1090.53,408,1085.07,416.1,1074.37,416.1Zm-15.5-15.56c.75,2.49,4.86,14.34,15.12,14.53h.38c12.46,0,15.91-11.34,16.63-14.5l-12.57-6.69Z"/><path class="cls-73" d="M1091.58,400.21s3.8,15.16,15.73,15.38,16.43-9.51,17.61-15.28l-13.11-7Z"/><path class="cls-74" d="M1107.71,416.1h-.41c-12.18-.23-16.18-15.61-16.22-15.76l-.11-.46,20.89-7.1L1125.5,400l-.08.38C1123.87,408,1118.41,416.1,1107.71,416.1Zm-15.5-15.56c.75,2.49,4.86,14.34,15.11,14.53h.39c12.46,0,15.91-11.34,16.62-14.5l-12.56-6.69Z"/><path class="cls-73" d="M1124.92,400.21s3.8,15.16,15.73,15.38,16.43-9.51,17.61-15.28l-13.11-7Z"/><path class="cls-74" d="M1141,416.1h-.4c-12.18-.23-16.18-15.61-16.22-15.76l-.12-.46,20.89-7.1,13.64,7.25-.07.38C1157.21,408,1151.74,416.1,1141,416.1Zm-15.5-15.56c.75,2.49,4.87,14.34,15.12,14.53h.39c12.46,0,15.9-11.34,16.62-14.5l-12.56-6.69Z"/><path class="cls-73" d="M1158.26,400.21s3.8,15.16,15.73,15.38,16.43-9.51,17.6-15.28l-13.1-7Z"/><path class="cls-74" d="M1174.38,416.1h-.4c-12.18-.23-16.18-15.61-16.22-15.76l-.12-.46,20.89-7.1,13.64,7.25-.07.38C1190.55,408,1185.08,416.1,1174.38,416.1Zm-15.5-15.56c.75,2.49,4.87,14.34,15.12,14.53h.39c12.46,0,15.9-11.34,16.62-14.5l-12.57-6.69Z"/><path class="cls-73" d="M908.22,389.08S912,404.24,924,404.46s16.43-9.5,17.61-15.28l-13.11-7Z"/><path class="cls-74" d="M924.35,405h-.41c-12.18-.22-16.18-15.6-16.22-15.76l-.11-.46,20.89-7.1,13.64,7.26-.08.37C940.51,396.91,935,405,924.35,405Zm-15.5-15.57c.75,2.49,4.86,14.35,15.11,14.54h.39c12.46,0,15.91-11.34,16.63-14.5l-12.57-6.68Z"/><path class="cls-73" d="M941.56,389.08s3.8,15.16,15.73,15.38,16.43-9.5,17.61-15.28l-13.11-7Z"/><path class="cls-74" d="M957.69,405h-.41c-12.18-.22-16.18-15.6-16.22-15.76l-.11-.46,20.89-7.1,13.64,7.26-.08.37C973.85,396.91,968.38,405,957.69,405Zm-15.5-15.57c.75,2.49,4.86,14.35,15.11,14.54h.39c12.46,0,15.91-11.34,16.62-14.5l-12.56-6.68Z"/><path class="cls-73" d="M974.9,389.08s3.8,15.16,15.73,15.38,16.43-9.5,17.6-15.28l-13.1-7Z"/><path class="cls-74" d="M991,405h-.4c-12.18-.22-16.18-15.6-16.22-15.76l-.12-.46,20.89-7.1,13.64,7.26-.07.37C1007.19,396.91,1001.72,405,991,405Zm-15.5-15.57c.75,2.49,4.87,14.35,15.12,14.54H991c12.46,0,15.9-11.34,16.62-14.5l-12.56-6.68Z"/><path class="cls-73" d="M1008.23,389.08s3.81,15.16,15.74,15.38,16.43-9.5,17.6-15.28l-13.1-7Z"/><path class="cls-74" d="M1024.36,405h-.4c-12.18-.22-16.19-15.6-16.22-15.76l-.12-.46,20.89-7.1,13.64,7.26-.08.37C1040.53,396.91,1035.06,405,1024.36,405Zm-15.5-15.57c.75,2.49,4.87,14.35,15.12,14.54h.39c12.46,0,15.9-11.34,16.62-14.5l-12.57-6.68Z"/><path class="cls-73" d="M1041.57,389.08s3.8,15.16,15.74,15.38,16.43-9.5,17.6-15.28l-13.1-7Z"/><path class="cls-74" d="M1057.7,405h-.4c-12.19-.22-16.19-15.6-16.23-15.76l-.11-.46,20.89-7.1,13.64,7.26-.08.37C1073.87,396.91,1068.4,405,1057.7,405Zm-15.5-15.57c.75,2.49,4.87,14.35,15.12,14.54h.39c12.46,0,15.9-11.34,16.62-14.5l-12.57-6.68Z"/><path class="cls-73" d="M1074.91,389.08s3.8,15.16,15.73,15.38,16.43-9.5,17.61-15.28l-13.11-7Z"/><path class="cls-74" d="M1091,405h-.41c-12.18-.22-16.18-15.6-16.22-15.76l-.11-.46,20.89-7.1,13.64,7.26-.08.37C1107.2,396.91,1101.74,405,1091,405Zm-15.5-15.57c.75,2.49,4.86,14.35,15.11,14.54h.39c12.47,0,15.91-11.34,16.62-14.5l-12.56-6.68Z"/><path class="cls-73" d="M1108.25,389.08s3.8,15.16,15.73,15.38,16.43-9.5,17.61-15.28l-13.11-7Z"/><path class="cls-74" d="M1124.38,405H1124c-12.18-.22-16.18-15.6-16.22-15.76l-.12-.46,20.89-7.1,13.65,7.26-.08.37C1140.54,396.91,1135.08,405,1124.38,405Zm-15.5-15.57c.74,2.49,4.86,14.35,15.11,14.54h.39c12.46,0,15.91-11.34,16.62-14.5l-12.56-6.68Z"/><path class="cls-73" d="M1141.59,389.08s3.8,15.16,15.73,15.38,16.43-9.5,17.6-15.28l-13.1-7Z"/><path class="cls-74" d="M1157.71,405h-.4c-12.18-.22-16.18-15.6-16.22-15.76l-.12-.46,20.89-7.1,13.64,7.26-.07.37C1173.88,396.91,1168.41,405,1157.71,405Zm-15.5-15.57c.75,2.49,4.87,14.35,15.12,14.54h.39c12.46,0,15.9-11.34,16.62-14.5l-12.57-6.68Z"/><path class="cls-73" d="M924.89,378s3.8,15.15,15.73,15.37,16.43-9.5,17.61-15.28l-13.11-7Z"/><path class="cls-74" d="M941,393.85h-.41c-12.18-.22-16.18-15.6-16.22-15.76l-.11-.46,20.89-7.1,13.64,7.26-.08.37C957.18,385.78,951.71,393.85,941,393.85Zm-15.5-15.56c.75,2.48,4.86,14.34,15.11,14.53H941c12.46,0,15.91-11.33,16.62-14.5l-12.56-6.68Z"/><path class="cls-73" d="M958.23,378S962,393.11,974,393.33s16.43-9.5,17.61-15.28l-13.11-7Z"/><path class="cls-74" d="M974.35,393.85H974c-12.18-.22-16.18-15.6-16.22-15.76l-.12-.46,20.89-7.1,13.65,7.26-.08.37C990.52,385.78,985.05,393.85,974.35,393.85Zm-15.49-15.56c.75,2.48,4.86,14.34,15.11,14.53h.39c12.46,0,15.91-11.33,16.62-14.5l-12.56-6.68Z"/><path class="cls-73" d="M991.57,378s3.8,15.15,15.73,15.37,16.43-9.5,17.6-15.28l-13.1-7Z"/><path class="cls-74" d="M1007.69,393.85h-.4c-12.18-.22-16.18-15.6-16.22-15.76l-.12-.46,20.89-7.1,13.64,7.26-.07.37C1023.86,385.78,1018.39,393.85,1007.69,393.85Zm-15.5-15.56c.75,2.48,4.87,14.34,15.12,14.53h.39c12.46,0,15.9-11.33,16.62-14.5l-12.57-6.68Z"/><path class="cls-73" d="M1024.9,378s3.81,15.15,15.74,15.37,16.43-9.5,17.6-15.28l-13.1-7Z"/><path class="cls-74" d="M1041,393.85h-.4c-12.18-.22-16.19-15.6-16.22-15.76l-.12-.46,20.89-7.1,13.64,7.26-.08.37C1057.2,385.78,1051.73,393.85,1041,393.85Zm-15.5-15.56c.75,2.48,4.87,14.34,15.12,14.53h.39c12.46,0,15.9-11.33,16.62-14.5l-12.57-6.68Z"/><path class="cls-73" d="M1058.24,378s3.8,15.15,15.74,15.37,16.43-9.5,17.6-15.28l-13.11-7Z"/><path class="cls-74" d="M1074.37,393.85h-.4c-12.19-.22-16.19-15.6-16.23-15.76l-.11-.46,20.89-7.1,13.64,7.26-.08.37C1090.53,385.78,1085.07,393.85,1074.37,393.85Zm-15.5-15.56c.75,2.48,4.86,14.34,15.12,14.53h.38c12.47,0,15.91-11.33,16.63-14.5l-12.57-6.68Z"/><path class="cls-73" d="M1091.58,378s3.8,15.15,15.73,15.37,16.43-9.5,17.61-15.28l-13.11-7Z"/><path class="cls-74" d="M1107.71,393.85h-.41c-12.18-.22-16.18-15.6-16.22-15.76l-.11-.46,20.89-7.1,13.64,7.26-.08.37C1123.87,385.78,1118.41,393.85,1107.71,393.85Zm-15.5-15.56c.75,2.48,4.86,14.34,15.11,14.53h.39c12.46,0,15.91-11.33,16.62-14.5l-12.56-6.68Z"/><path class="cls-73" d="M1124.92,378s3.8,15.15,15.73,15.37,16.43-9.5,17.61-15.28l-13.11-7Z"/><path class="cls-74" d="M1141,393.85h-.4c-12.18-.22-16.18-15.6-16.22-15.76l-.12-.46,20.89-7.1,13.64,7.26-.07.37C1157.21,385.78,1151.75,393.85,1141,393.85Zm-15.5-15.56c.75,2.48,4.87,14.34,15.12,14.53h.39c12.46,0,15.9-11.33,16.62-14.5l-12.56-6.68Z"/><path class="cls-73" d="M1158.26,378s3.8,15.15,15.73,15.37,16.43-9.5,17.6-15.28l-13.1-7Z"/><path class="cls-74" d="M1174.38,393.85h-.4c-12.18-.22-16.18-15.6-16.22-15.76l-.12-.46,20.89-7.1,13.64,7.26-.07.37C1190.55,385.78,1185.08,393.85,1174.38,393.85Zm-15.5-15.56c.75,2.48,4.87,14.34,15.12,14.53h.39c12.46,0,15.9-11.33,16.62-14.5l-12.57-6.68Z"/><path class="cls-73" d="M908.22,366.83S912,382,924,382.2s16.43-9.5,17.61-15.28l-13.11-7Z"/><path class="cls-74" d="M924.35,382.72h-.41c-12.18-.23-16.18-15.61-16.22-15.77l-.11-.45,20.89-7.1,13.64,7.25-.08.38C940.51,374.65,935,382.72,924.35,382.72Zm-15.5-15.56c.75,2.48,4.86,14.34,15.11,14.53h.39c12.46,0,15.91-11.34,16.63-14.51l-12.57-6.68Z"/><path class="cls-73" d="M941.56,366.83s3.8,15.15,15.73,15.37,16.43-9.5,17.61-15.28l-13.11-7Z"/><path class="cls-74" d="M957.68,382.72h-.4c-12.18-.23-16.18-15.61-16.22-15.77l-.11-.45,20.89-7.1,13.64,7.25-.08.38C973.85,374.65,968.38,382.72,957.68,382.72Zm-15.49-15.56c.75,2.48,4.86,14.34,15.11,14.53h.39c12.46,0,15.91-11.34,16.62-14.51l-12.56-6.68Z"/><path class="cls-73" d="M974.9,366.83s3.8,15.15,15.73,15.37,16.43-9.5,17.6-15.28l-13.1-7Z"/><path class="cls-74" d="M991,382.72h-.4c-12.18-.23-16.18-15.61-16.22-15.77l-.12-.45,20.89-7.1,13.64,7.25-.07.38C1007.19,374.65,1001.72,382.72,991,382.72Zm-15.5-15.56c.75,2.48,4.87,14.34,15.12,14.53H991c12.46,0,15.9-11.34,16.62-14.51l-12.56-6.68Z"/><path class="cls-73" d="M1008.23,366.83S1012,382,1024,382.2s16.43-9.5,17.6-15.28l-13.1-7Z"/><path class="cls-74" d="M1024.36,382.72h-.4c-12.18-.23-16.19-15.61-16.22-15.77l-.12-.45,20.89-7.1,13.64,7.25-.08.38C1040.53,374.65,1035.06,382.72,1024.36,382.72Zm-15.5-15.56c.75,2.48,4.87,14.34,15.12,14.53h.39c12.46,0,15.9-11.34,16.62-14.51l-12.57-6.68Z"/><path class="cls-73" d="M1041.57,366.83s3.8,15.15,15.74,15.37,16.43-9.5,17.6-15.28l-13.1-7Z"/><path class="cls-74" d="M1057.7,382.72h-.4c-12.19-.23-16.19-15.61-16.23-15.77l-.11-.45,20.89-7.1,13.64,7.25-.08.38C1073.87,374.65,1068.4,382.72,1057.7,382.72Zm-15.5-15.56c.75,2.48,4.87,14.34,15.12,14.53h.39c12.46,0,15.9-11.34,16.62-14.51l-12.57-6.68Z"/><path class="cls-73" d="M1074.91,366.83s3.8,15.15,15.73,15.37,16.43-9.5,17.61-15.28l-13.11-7Z"/><path class="cls-74" d="M1091,382.72h-.41c-12.18-.23-16.18-15.61-16.22-15.77l-.11-.45,20.89-7.1,13.64,7.25-.08.38C1107.2,374.65,1101.74,382.72,1091,382.72Zm-15.5-15.56c.75,2.48,4.86,14.34,15.11,14.53h.39c12.47,0,15.91-11.34,16.62-14.51l-12.56-6.68Z"/><path class="cls-73" d="M1108.25,366.83s3.8,15.15,15.73,15.37,16.43-9.5,17.61-15.28l-13.11-7Z"/><path class="cls-74" d="M1124.38,382.72H1124c-12.18-.23-16.18-15.61-16.22-15.77l-.12-.45,20.89-7.1,13.65,7.25-.08.38C1140.54,374.65,1135.08,382.72,1124.38,382.72Zm-15.5-15.56c.74,2.48,4.86,14.34,15.11,14.53h.39c12.46,0,15.91-11.34,16.62-14.51l-12.56-6.68Z"/><path class="cls-73" d="M1141.59,366.83s3.8,15.15,15.73,15.37,16.43-9.5,17.6-15.28l-13.1-7Z"/><path class="cls-74" d="M1157.71,382.72h-.4c-12.18-.23-16.18-15.61-16.22-15.77l-.12-.45,20.89-7.1,13.64,7.25-.07.38C1173.88,374.65,1168.41,382.72,1157.71,382.72Zm-15.5-15.56c.75,2.48,4.87,14.34,15.12,14.53h.39c12.46,0,15.9-11.34,16.62-14.51l-12.57-6.68Z"/><path class="cls-73" d="M924.89,355.7s3.8,15.15,15.73,15.38,16.43-9.51,17.61-15.28l-13.11-7Z"/><path class="cls-74" d="M941,371.59h-.4c-12.18-.23-16.18-15.61-16.22-15.76l-.11-.46,20.89-7.1,13.64,7.25-.08.38C957.18,363.52,951.71,371.59,941,371.59ZM925.52,356c.75,2.49,4.86,14.34,15.11,14.53H941c12.46,0,15.91-11.34,16.62-14.5l-12.56-6.69Z"/><path class="cls-73" d="M958.23,355.7S962,370.85,974,371.08s16.43-9.51,17.61-15.28l-13.11-7Z"/><path class="cls-74" d="M974.35,371.59H974c-12.18-.23-16.18-15.61-16.22-15.76l-.12-.46,20.89-7.1,13.65,7.25-.08.38C990.52,363.52,985.05,371.59,974.35,371.59ZM958.86,356c.75,2.49,4.86,14.34,15.11,14.53h.39c12.46,0,15.91-11.34,16.62-14.5l-12.56-6.69Z"/><path class="cls-73" d="M991.57,355.7s3.8,15.15,15.73,15.38,16.43-9.51,17.6-15.28l-13.1-7Z"/><path class="cls-74" d="M1007.69,371.59h-.4c-12.18-.23-16.18-15.61-16.22-15.76l-.12-.46,20.89-7.1,13.64,7.25-.07.38C1023.86,363.52,1018.39,371.59,1007.69,371.59ZM992.19,356c.75,2.49,4.87,14.34,15.12,14.53h.39c12.46,0,15.9-11.34,16.62-14.5l-12.57-6.69Z"/><path class="cls-73" d="M1024.9,355.7s3.81,15.15,15.74,15.38,16.43-9.51,17.6-15.28l-13.1-7Z"/><path class="cls-74" d="M1041,371.59h-.4c-12.18-.23-16.19-15.61-16.22-15.76l-.12-.46,20.89-7.1,13.64,7.25-.08.38C1057.2,363.52,1051.73,371.59,1041,371.59ZM1025.53,356c.75,2.49,4.87,14.34,15.12,14.53h.39c12.46,0,15.9-11.34,16.62-14.5l-12.57-6.69Z"/><path class="cls-73" d="M1058.24,355.7s3.8,15.15,15.74,15.38,16.43-9.51,17.6-15.28l-13.11-7Z"/><path class="cls-74" d="M1074.37,371.59h-.4c-12.19-.23-16.19-15.61-16.23-15.76l-.11-.46,20.89-7.1,13.64,7.25-.08.38C1090.53,363.52,1085.07,371.59,1074.37,371.59ZM1058.87,356c.75,2.49,4.86,14.34,15.12,14.53h.38c12.46,0,15.91-11.34,16.63-14.5l-12.57-6.69Z"/><path class="cls-73" d="M1091.58,355.7s3.8,15.15,15.73,15.38,16.43-9.51,17.61-15.28l-13.11-7Z"/><path class="cls-74" d="M1107.71,371.59h-.41c-12.18-.23-16.18-15.61-16.22-15.76l-.11-.46,20.89-7.1,13.64,7.25-.08.38C1123.87,363.52,1118.41,371.59,1107.71,371.59ZM1092.21,356c.75,2.49,4.86,14.34,15.11,14.53h.39c12.46,0,15.91-11.34,16.62-14.5l-12.56-6.69Z"/><path class="cls-73" d="M1124.92,355.7s3.8,15.15,15.73,15.38,16.43-9.51,17.61-15.28l-13.11-7Z"/><path class="cls-74" d="M1141,371.59h-.4c-12.18-.23-16.18-15.61-16.22-15.76l-.12-.46,20.89-7.1,13.64,7.25-.07.38C1157.21,363.52,1151.74,371.59,1141,371.59ZM1125.54,356c.75,2.49,4.87,14.34,15.12,14.53h.39c12.46,0,15.9-11.34,16.62-14.5l-12.56-6.69Z"/><path class="cls-73" d="M1158.26,355.7s3.8,15.15,15.73,15.38,16.43-9.51,17.6-15.28l-13.1-7Z"/><path class="cls-74" d="M1174.38,371.59h-.4c-12.18-.23-16.18-15.61-16.22-15.76l-.12-.46,20.89-7.1,13.64,7.25-.07.38C1190.55,363.52,1185.08,371.59,1174.38,371.59ZM1158.88,356c.75,2.49,4.87,14.34,15.12,14.53h.39c12.46,0,15.9-11.34,16.62-14.5l-12.57-6.69Z"/><path class="cls-73" d="M908.22,344.57S912,359.73,924,360s16.43-9.51,17.61-15.28l-13.11-7Z"/><path class="cls-74" d="M924.35,360.47h-.41c-12.18-.23-16.18-15.61-16.22-15.76l-.11-.46,20.89-7.1,13.64,7.26-.08.37C940.51,352.4,935,360.47,924.35,360.47Zm-15.5-15.57c.75,2.49,4.86,14.34,15.11,14.54,12.83.27,16.29-11.3,17-14.5l-12.57-6.69Z"/><path class="cls-73" d="M941.56,344.57s3.8,15.16,15.73,15.38,16.43-9.51,17.61-15.28l-13.11-7Z"/><path class="cls-74" d="M957.68,360.47h-.4c-12.18-.23-16.18-15.61-16.22-15.76l-.11-.46,20.89-7.1,13.64,7.26-.08.37C973.85,352.4,968.38,360.47,957.68,360.47ZM942.19,344.9c.75,2.49,4.86,14.34,15.11,14.54,12.83.27,16.29-11.3,17-14.5l-12.56-6.69Z"/><path class="cls-73" d="M974.9,344.57s3.8,15.16,15.73,15.38,16.43-9.51,17.6-15.28l-13.1-7Z"/><path class="cls-74" d="M991,360.47h-.4c-12.18-.23-16.18-15.61-16.22-15.76l-.12-.46,20.89-7.1,13.64,7.26-.07.37C1007.19,352.4,1001.72,360.47,991,360.47Zm-15.5-15.57c.75,2.49,4.87,14.34,15.12,14.54H991c12.46,0,15.9-11.34,16.62-14.5l-12.56-6.69Z"/><path class="cls-73" d="M1008.23,344.57S1012,359.73,1024,360s16.43-9.51,17.6-15.28l-13.1-7Z"/><path class="cls-74" d="M1024.36,360.47h-.4c-12.18-.23-16.19-15.61-16.22-15.76l-.12-.46,20.89-7.1,13.64,7.26-.08.37C1040.53,352.4,1035.06,360.47,1024.36,360.47Zm-15.5-15.57c.75,2.49,4.87,14.34,15.12,14.54h.39c12.46,0,15.9-11.34,16.62-14.5l-12.57-6.69Z"/><path class="cls-73" d="M1041.57,344.57s3.8,15.16,15.74,15.38,16.43-9.51,17.6-15.28l-13.1-7Z"/><path class="cls-74" d="M1057.7,360.47h-.4c-12.19-.23-16.19-15.61-16.23-15.76l-.11-.46,20.89-7.1,13.64,7.26-.08.37C1073.87,352.4,1068.4,360.47,1057.7,360.47Zm-15.5-15.57c.75,2.49,4.87,14.34,15.12,14.54h.39c12.46,0,15.9-11.34,16.62-14.5l-12.57-6.69Z"/><path class="cls-73" d="M1074.91,344.57s3.8,15.16,15.73,15.38,16.43-9.51,17.61-15.28l-13.11-7Z"/><path class="cls-74" d="M1091,360.47h-.41c-12.18-.23-16.18-15.61-16.22-15.76l-.11-.46,20.89-7.1,13.64,7.26-.08.37C1107.2,352.4,1101.74,360.47,1091,360.47Zm-15.5-15.57c.75,2.49,4.86,14.34,15.11,14.54h.39c12.46,0,15.91-11.34,16.62-14.5l-12.56-6.69Z"/><path class="cls-73" d="M1108.25,344.57s3.8,15.16,15.73,15.38,16.43-9.51,17.61-15.28l-13.11-7Z"/><path class="cls-74" d="M1124.38,360.47H1124c-12.18-.23-16.18-15.61-16.22-15.76l-.12-.46,20.89-7.1,13.65,7.26-.08.37C1140.54,352.4,1135.07,360.47,1124.38,360.47Zm-15.5-15.57c.74,2.49,4.86,14.34,15.11,14.54h.39c12.46,0,15.91-11.34,16.62-14.5l-12.56-6.69Z"/><path class="cls-73" d="M1141.59,344.57s3.8,15.16,15.73,15.38,16.43-9.51,17.6-15.28l-13.1-7Z"/><path class="cls-74" d="M1157.71,360.47h-.4c-12.18-.23-16.18-15.61-16.22-15.76l-.12-.46,20.89-7.1,13.64,7.26-.07.37C1173.88,352.4,1168.41,360.47,1157.71,360.47Zm-15.5-15.57c.75,2.49,4.87,14.34,15.12,14.54h.39c12.46,0,15.9-11.34,16.62-14.5l-12.57-6.69Z"/><path class="cls-73" d="M924.89,333.45s3.8,15.15,15.73,15.37,16.43-9.5,17.61-15.28l-13.11-7Z"/><path class="cls-74" d="M941,349.34h-.4c-12.18-.22-16.18-15.6-16.22-15.76l-.11-.46,20.89-7.1,13.64,7.26-.08.37C957.18,341.27,951.71,349.34,941,349.34Zm-15.49-15.57c.75,2.49,4.86,14.35,15.11,14.54,12.78.29,16.29-11.3,17-14.5l-12.56-6.68Z"/><path class="cls-73" d="M958.23,333.45S962,348.6,974,348.82s16.43-9.5,17.61-15.28l-13.11-7Z"/><path class="cls-74" d="M974.35,349.34H974c-12.18-.22-16.18-15.6-16.22-15.76l-.12-.46L978.5,326l13.65,7.26-.08.37C990.52,341.27,985.05,349.34,974.35,349.34Zm-15.49-15.57c.75,2.49,4.86,14.35,15.11,14.54h.39c12.46,0,15.91-11.33,16.62-14.5l-12.56-6.68Z"/><path class="cls-73" d="M991.57,333.45s3.8,15.15,15.73,15.37,16.43-9.5,17.6-15.28l-13.1-7Z"/><path class="cls-74" d="M1007.69,349.34h-.4c-12.18-.22-16.18-15.6-16.22-15.76l-.12-.46,20.89-7.1,13.64,7.26-.07.37C1023.86,341.27,1018.39,349.34,1007.69,349.34Zm-15.5-15.57c.75,2.49,4.87,14.35,15.12,14.54h.39c12.46,0,15.9-11.33,16.62-14.5l-12.57-6.68Z"/><path class="cls-73" d="M1024.9,333.45s3.81,15.15,15.74,15.37,16.43-9.5,17.6-15.28l-13.1-7Z"/><path class="cls-74" d="M1041,349.34h-.4c-12.18-.22-16.19-15.6-16.22-15.76l-.12-.46,20.89-7.1,13.64,7.26-.08.37C1057.2,341.27,1051.73,349.34,1041,349.34Zm-15.5-15.57c.75,2.49,4.87,14.35,15.12,14.54h.39c12.46,0,15.9-11.33,16.62-14.5l-12.57-6.68Z"/><path class="cls-73" d="M1058.24,333.45s3.8,15.15,15.74,15.37,16.43-9.5,17.6-15.28l-13.11-7Z"/><path class="cls-74" d="M1074.37,349.34h-.4c-12.19-.22-16.19-15.6-16.23-15.76l-.11-.46,20.89-7.1,13.64,7.26-.08.37C1090.53,341.27,1085.07,349.34,1074.37,349.34Zm-15.5-15.57c.75,2.49,4.86,14.35,15.12,14.54h.38c12.46,0,15.91-11.33,16.63-14.5l-12.57-6.68Z"/><path class="cls-73" d="M1091.58,333.45s3.8,15.15,15.73,15.37,16.43-9.5,17.61-15.28l-13.11-7Z"/><path class="cls-74" d="M1107.71,349.34h-.41c-12.18-.22-16.18-15.6-16.22-15.76l-.11-.46,20.89-7.1,13.64,7.26-.08.37C1123.87,341.27,1118.41,349.34,1107.71,349.34Zm-15.5-15.57c.75,2.49,4.86,14.35,15.11,14.54h.39c12.46,0,15.91-11.33,16.62-14.5l-12.56-6.68Z"/><path class="cls-73" d="M1124.92,333.45s3.8,15.15,15.73,15.37,16.43-9.5,17.61-15.28l-13.11-7Z"/><path class="cls-74" d="M1141,349.34h-.4c-12.18-.22-16.18-15.6-16.22-15.76l-.12-.46,20.89-7.1,13.64,7.26-.07.37C1157.21,341.27,1151.74,349.34,1141,349.34Zm-15.5-15.57c.75,2.49,4.87,14.35,15.12,14.54h.39c12.46,0,15.9-11.33,16.62-14.5l-12.56-6.68Z"/><path class="cls-73" d="M1158.26,333.45s3.8,15.15,15.73,15.37,16.43-9.5,17.6-15.28l-13.1-7Z"/><path class="cls-74" d="M1174.38,349.34h-.4c-12.18-.22-16.18-15.6-16.22-15.76l-.12-.46,20.89-7.1,13.64,7.26-.07.37C1190.55,341.27,1185.08,349.34,1174.38,349.34Zm-15.5-15.57c.75,2.49,4.87,14.35,15.12,14.54h.39c12.46,0,15.9-11.33,16.62-14.5l-12.57-6.68Z"/><path class="cls-73" d="M908.22,322.32S912,337.47,924,337.69s16.43-9.5,17.61-15.28l-13.11-7Z"/><path class="cls-74" d="M924.35,338.21h-.41c-12.18-.23-16.18-15.61-16.22-15.77l-.11-.46,20.89-7.1,13.64,7.26-.08.38C940.51,330.14,935,338.21,924.35,338.21Zm-15.5-15.56c.75,2.48,4.86,14.34,15.11,14.53h.39c12.46,0,15.91-11.33,16.63-14.5L928.41,316Z"/><path class="cls-73" d="M941.56,322.32s3.8,15.15,15.73,15.37,16.43-9.5,17.61-15.28l-13.11-7Z"/><path class="cls-74" d="M957.68,338.21h-.4c-12.18-.23-16.18-15.61-16.22-15.77L941,322l20.89-7.1,13.64,7.26-.08.38C973.85,330.14,968.38,338.21,957.68,338.21Zm-15.49-15.56c.75,2.48,4.86,14.34,15.11,14.53h.39c12.46,0,15.91-11.33,16.62-14.5L961.75,316Z"/><path class="cls-73" d="M974.9,322.32s3.8,15.15,15.73,15.37,16.43-9.5,17.6-15.28l-13.1-7Z"/><path class="cls-74" d="M991,338.21h-.4c-12.18-.23-16.18-15.61-16.22-15.77l-.12-.46,20.89-7.1,13.64,7.26-.07.38C1007.19,330.14,1001.72,338.21,991,338.21Zm-15.5-15.56c.75,2.48,4.87,14.34,15.12,14.53H991c12.46,0,15.9-11.33,16.62-14.5L995.09,316Z"/><path class="cls-73" d="M1008.23,322.32s3.81,15.15,15.74,15.37,16.43-9.5,17.6-15.28l-13.1-7Z"/><path class="cls-74" d="M1024.36,338.21h-.4c-12.18-.23-16.19-15.61-16.22-15.77l-.12-.46,20.89-7.1,13.64,7.26-.08.38C1040.53,330.14,1035.06,338.21,1024.36,338.21Zm-15.5-15.56c.75,2.48,4.87,14.34,15.12,14.53h.39c12.46,0,15.9-11.33,16.62-14.5L1028.42,316Z"/><path class="cls-73" d="M1041.57,322.32s3.8,15.15,15.74,15.37,16.43-9.5,17.6-15.28l-13.1-7Z"/><path class="cls-74" d="M1057.7,338.21h-.4c-12.19-.23-16.19-15.61-16.23-15.77L1041,322l20.89-7.1,13.64,7.26-.08.38C1073.87,330.14,1068.4,338.21,1057.7,338.21Zm-15.5-15.56c.75,2.48,4.87,14.34,15.12,14.53h.39c12.46,0,15.9-11.33,16.62-14.5L1061.76,316Z"/><path class="cls-73" d="M1074.91,322.32s3.8,15.15,15.73,15.37,16.43-9.5,17.61-15.28l-13.11-7Z"/><path class="cls-74" d="M1091,338.21h-.41c-12.18-.23-16.18-15.61-16.22-15.77l-.11-.46,20.89-7.1,13.64,7.26-.08.38C1107.2,330.14,1101.74,338.21,1091,338.21Zm-15.5-15.56c.75,2.48,4.86,14.34,15.11,14.53h.39c12.46,0,15.91-11.33,16.62-14.5L1095.1,316Z"/><path class="cls-73" d="M1108.25,322.32s3.8,15.15,15.73,15.37,16.43-9.5,17.61-15.28l-13.11-7Z"/><path class="cls-74" d="M1124.38,338.21H1124c-12.18-.23-16.18-15.61-16.22-15.77l-.12-.46,20.89-7.1,13.65,7.26-.08.38C1140.54,330.14,1135.07,338.21,1124.38,338.21Zm-15.5-15.56c.74,2.48,4.86,14.34,15.11,14.53h.39c12.46,0,15.91-11.33,16.62-14.5L1128.44,316Z"/><path class="cls-73" d="M1141.59,322.32s3.8,15.15,15.73,15.37,16.43-9.5,17.6-15.28l-13.1-7Z"/><path class="cls-74" d="M1157.71,338.21h-.4c-12.18-.23-16.18-15.61-16.22-15.77L1141,322l20.89-7.1,13.64,7.26-.07.38C1173.88,330.14,1168.41,338.21,1157.71,338.21Zm-15.5-15.56c.75,2.48,4.87,14.34,15.12,14.53h.39c12.46,0,15.9-11.33,16.62-14.5L1161.77,316Z"/><path class="cls-73" d="M924.89,311.19s3.8,15.15,15.73,15.38,16.43-9.51,17.61-15.28l-13.11-7Z"/><path class="cls-74" d="M941,327.08h-.4c-12.18-.23-16.18-15.61-16.22-15.77l-.11-.45,20.89-7.1L958.81,311l-.08.38C957.18,319,951.71,327.08,941,327.08Zm-15.49-15.56c.75,2.49,4.86,14.34,15.11,14.53H941c12.46,0,15.91-11.34,16.62-14.5l-12.56-6.69Z"/><path class="cls-73" d="M958.23,311.19S962,326.34,974,326.57s16.43-9.51,17.61-15.28l-13.11-7Z"/><path class="cls-74" d="M974.35,327.08H974c-12.18-.23-16.18-15.61-16.22-15.77l-.12-.45,20.89-7.1L992.15,311l-.08.38C990.52,319,985.05,327.08,974.35,327.08Zm-15.49-15.56c.75,2.49,4.86,14.34,15.11,14.53h.39c12.46,0,15.91-11.34,16.62-14.5l-12.56-6.69Z"/><path class="cls-73" d="M991.57,311.19s3.8,15.15,15.73,15.38,16.43-9.51,17.6-15.28l-13.1-7Z"/><path class="cls-74" d="M1007.69,327.08h-.4c-12.18-.23-16.18-15.61-16.22-15.77l-.12-.45,20.89-7.1,13.64,7.25-.07.38C1023.86,319,1018.39,327.08,1007.69,327.08Zm-15.5-15.56c.75,2.49,4.87,14.34,15.12,14.53h.39c12.46,0,15.9-11.34,16.62-14.5l-12.57-6.69Z"/><path class="cls-73" d="M1024.9,311.19s3.81,15.15,15.74,15.38,16.43-9.51,17.6-15.28l-13.1-7Z"/><path class="cls-74" d="M1041,327.08h-.4c-12.18-.23-16.19-15.61-16.22-15.77l-.12-.45,20.89-7.1,13.64,7.25-.08.38C1057.2,319,1051.73,327.08,1041,327.08Zm-15.5-15.56c.75,2.49,4.87,14.34,15.12,14.53h.39c12.46,0,15.9-11.34,16.62-14.5l-12.57-6.69Z"/><path class="cls-73" d="M1058.24,311.19s3.8,15.15,15.74,15.38,16.43-9.51,17.6-15.28l-13.11-7Z"/><path class="cls-74" d="M1074.37,327.08h-.4c-12.19-.23-16.19-15.61-16.23-15.77l-.11-.45,20.89-7.1,13.64,7.25-.08.38C1090.53,319,1085.07,327.08,1074.37,327.08Zm-15.5-15.56c.75,2.49,4.86,14.34,15.12,14.53h.38c12.46,0,15.91-11.34,16.63-14.5l-12.57-6.69Z"/><path class="cls-73" d="M1091.58,311.19s3.8,15.15,15.73,15.38,16.43-9.51,17.61-15.28l-13.11-7Z"/><path class="cls-74" d="M1107.71,327.08h-.41c-12.18-.23-16.18-15.61-16.22-15.77l-.11-.45,20.89-7.1L1125.5,311l-.08.38C1123.87,319,1118.41,327.08,1107.71,327.08Zm-15.5-15.56c.75,2.49,4.86,14.34,15.11,14.53h.39c12.46,0,15.91-11.34,16.62-14.5l-12.56-6.69Z"/><path class="cls-73" d="M1124.92,311.19s3.8,15.15,15.73,15.38,16.43-9.51,17.61-15.28l-13.11-7Z"/><path class="cls-74" d="M1141,327.08h-.4c-12.18-.23-16.18-15.61-16.22-15.77l-.12-.45,20.89-7.1,13.64,7.25-.07.38C1157.21,319,1151.74,327.08,1141,327.08Zm-15.5-15.56c.75,2.49,4.87,14.34,15.12,14.53h.39c12.46,0,15.9-11.34,16.62-14.5l-12.56-6.69Z"/><path class="cls-73" d="M1158.26,311.19s3.8,15.15,15.73,15.38,16.43-9.51,17.6-15.28l-13.1-7Z"/><path class="cls-74" d="M1174.38,327.08h-.4c-12.18-.23-16.18-15.61-16.22-15.77l-.12-.45,20.89-7.1,13.64,7.25-.07.38C1190.55,319,1185.08,327.08,1174.38,327.08Zm-15.5-15.56c.75,2.49,4.87,14.34,15.12,14.53h.39c12.46,0,15.9-11.34,16.62-14.5l-12.57-6.69Z"/><path class="cls-73" d="M908.22,300.06S912,315.21,924,315.44s16.43-9.51,17.61-15.28l-13.11-7Z"/><path class="cls-74" d="M924.35,316h-.41c-12.18-.23-16.18-15.61-16.22-15.76l-.11-.46,20.89-7.1,13.64,7.26-.08.37C940.51,307.88,935,316,924.35,316Zm-15.5-15.56c.75,2.49,4.86,14.34,15.11,14.53h.39c12.46,0,15.91-11.34,16.63-14.5l-12.57-6.69Z"/><path class="cls-73" d="M941.56,300.06s3.8,15.15,15.73,15.38,16.43-9.51,17.61-15.28l-13.11-7Z"/><path class="cls-74" d="M957.68,316h-.4c-12.18-.23-16.18-15.61-16.22-15.76l-.11-.46,20.89-7.1,13.64,7.26-.08.37C973.85,307.88,968.38,316,957.68,316Zm-15.49-15.56c.75,2.49,4.86,14.34,15.11,14.53h.39c12.46,0,15.91-11.34,16.62-14.5l-12.56-6.69Z"/><path class="cls-73" d="M974.9,300.06s3.8,15.15,15.73,15.38,16.43-9.51,17.6-15.28l-13.1-7Z"/><path class="cls-74" d="M991,316h-.4c-12.18-.23-16.18-15.61-16.22-15.76l-.12-.46,20.89-7.1,13.64,7.25-.07.38C1007.19,307.88,1001.72,316,991,316Zm-15.5-15.56c.75,2.49,4.87,14.34,15.12,14.53H991c12.46,0,15.9-11.34,16.62-14.5l-12.56-6.69Z"/><path class="cls-73" d="M1008.23,300.06s3.81,15.15,15.74,15.38,16.43-9.51,17.6-15.28l-13.1-7Z"/><path class="cls-74" d="M1024.36,316h-.4c-12.18-.23-16.19-15.61-16.22-15.76l-.12-.46,20.89-7.1,13.64,7.25-.08.38C1040.53,307.88,1035.06,316,1024.36,316Zm-15.5-15.56c.75,2.49,4.87,14.34,15.12,14.53h.39c12.46,0,15.9-11.34,16.62-14.5l-12.57-6.69Z"/><path class="cls-73" d="M1041.57,300.06s3.8,15.15,15.74,15.38,16.43-9.51,17.6-15.28l-13.1-7Z"/><path class="cls-74" d="M1057.7,316h-.4c-12.19-.23-16.19-15.61-16.23-15.76l-.11-.46,20.89-7.1,13.64,7.25-.08.38C1073.87,307.88,1068.4,316,1057.7,316Zm-15.5-15.56c.75,2.49,4.87,14.34,15.12,14.53h.39c12.46,0,15.9-11.34,16.62-14.5l-12.57-6.69Z"/><path class="cls-73" d="M1074.91,300.06s3.8,15.15,15.73,15.38,16.43-9.51,17.61-15.28l-13.11-7Z"/><path class="cls-74" d="M1091,316h-.41c-12.18-.23-16.18-15.61-16.22-15.76l-.11-.46,20.89-7.1,13.64,7.25-.08.38C1107.2,307.88,1101.74,316,1091,316Zm-15.5-15.56c.75,2.49,4.86,14.34,15.11,14.53h.39c12.46,0,15.91-11.34,16.62-14.5l-12.56-6.69Z"/><path class="cls-73" d="M1108.25,300.06s3.8,15.15,15.73,15.38,16.43-9.51,17.61-15.28l-13.11-7Z"/><path class="cls-74" d="M1124.38,316H1124c-12.18-.23-16.18-15.61-16.22-15.76l-.12-.46,20.89-7.1,13.65,7.25-.08.38C1140.54,307.88,1135.07,316,1124.38,316Zm-15.5-15.56c.74,2.49,4.86,14.34,15.11,14.53h.39c12.46,0,15.91-11.34,16.62-14.5l-12.56-6.69Z"/><path class="cls-73" d="M1141.59,300.06s3.8,15.15,15.73,15.38,16.43-9.51,17.6-15.28l-13.1-7Z"/><path class="cls-74" d="M1157.71,316h-.4c-12.18-.23-16.18-15.61-16.22-15.76l-.12-.46,20.89-7.1,13.64,7.25-.07.38C1173.88,307.88,1168.41,316,1157.71,316Zm-15.5-15.56c.75,2.49,4.87,14.34,15.12,14.53h.39c12.46,0,15.9-11.34,16.62-14.5l-12.57-6.69Z"/><path class="cls-73" d="M924.89,288.93s3.8,15.16,15.73,15.38,16.43-9.5,17.61-15.28l-13.11-7Z"/><path class="cls-74" d="M941,304.83h-.41c-12.18-.22-16.18-15.61-16.22-15.76l-.11-.46,20.89-7.1,13.64,7.26-.08.37C957.18,296.76,951.71,304.83,941,304.83Zm-15.5-15.57c.75,2.49,4.86,14.34,15.11,14.54H941c12.46,0,15.91-11.34,16.62-14.5l-12.56-6.69Z"/><path class="cls-73" d="M958.23,288.93S962,304.09,974,304.31s16.43-9.5,17.61-15.28l-13.11-7Z"/><path class="cls-74" d="M974.35,304.83H974c-12.18-.22-16.18-15.61-16.22-15.76l-.12-.46,20.89-7.1,13.65,7.26-.08.37C990.52,296.76,985.05,304.83,974.35,304.83Zm-15.49-15.57c.75,2.49,4.86,14.34,15.11,14.54h.39c12.46,0,15.91-11.34,16.62-14.5l-12.56-6.69Z"/><path class="cls-73" d="M991.57,288.93s3.8,15.16,15.73,15.38,16.43-9.5,17.6-15.28l-13.1-7Z"/><path class="cls-74" d="M1007.69,304.83h-.4c-12.18-.22-16.18-15.61-16.22-15.76l-.12-.46,20.89-7.1,13.64,7.26-.07.37C1023.86,296.76,1018.39,304.83,1007.69,304.83Zm-15.5-15.57c.75,2.49,4.87,14.34,15.12,14.54h.39c12.46,0,15.9-11.34,16.62-14.5l-12.57-6.69Z"/><path class="cls-73" d="M1024.9,288.93s3.81,15.16,15.74,15.38,16.43-9.5,17.6-15.28l-13.1-7Z"/><path class="cls-74" d="M1041,304.83h-.4c-12.18-.22-16.19-15.61-16.22-15.76l-.12-.46,20.89-7.1,13.64,7.26-.08.37C1057.2,296.76,1051.73,304.83,1041,304.83Zm-15.5-15.57c.75,2.49,4.87,14.34,15.12,14.54h.39c12.46,0,15.9-11.34,16.62-14.5l-12.57-6.69Z"/><path class="cls-73" d="M1058.24,288.93s3.8,15.16,15.74,15.38,16.43-9.5,17.6-15.28l-13.11-7Z"/><path class="cls-74" d="M1074.37,304.83h-.4c-12.19-.22-16.19-15.61-16.23-15.76l-.11-.46,20.89-7.1,13.64,7.26-.08.37C1090.53,296.76,1085.07,304.83,1074.37,304.83Zm-15.5-15.57c.75,2.49,4.86,14.34,15.12,14.54h.38c12.47,0,15.91-11.34,16.63-14.5l-12.57-6.69Z"/><path class="cls-73" d="M1091.58,288.93s3.8,15.16,15.73,15.38,16.43-9.5,17.61-15.28l-13.11-7Z"/><path class="cls-74" d="M1107.71,304.83h-.41c-12.18-.22-16.18-15.61-16.22-15.76l-.11-.46,20.89-7.1,13.64,7.26-.08.37C1123.87,296.76,1118.41,304.83,1107.71,304.83Zm-15.5-15.57c.75,2.49,4.86,14.34,15.11,14.54h.39c12.46,0,15.91-11.34,16.62-14.5l-12.56-6.69Z"/><path class="cls-73" d="M1124.92,288.93s3.8,15.16,15.73,15.38,16.43-9.5,17.61-15.28l-13.11-7Z"/><path class="cls-74" d="M1141,304.83h-.4c-12.18-.22-16.18-15.61-16.22-15.76l-.12-.46,20.89-7.1,13.64,7.26-.07.37C1157.21,296.76,1151.75,304.83,1141,304.83Zm-15.5-15.57c.75,2.49,4.87,14.34,15.12,14.54h.39c12.46,0,15.9-11.34,16.62-14.5l-12.56-6.69Z"/><path class="cls-73" d="M1158.26,288.93s3.8,15.16,15.73,15.38,16.43-9.5,17.6-15.28l-13.1-7Z"/><path class="cls-74" d="M1174.38,304.83h-.4c-12.18-.22-16.18-15.61-16.22-15.76l-.12-.46,20.89-7.1,13.64,7.26-.07.37C1190.55,296.76,1185.08,304.83,1174.38,304.83Zm-15.5-15.57c.75,2.49,4.87,14.34,15.12,14.54h.39c12.46,0,15.9-11.34,16.62-14.5l-12.57-6.69Z"/><path class="cls-73" d="M908.22,280.92S912,296.07,924,296.3s16.43-9.51,17.61-15.28l-13.11-7Z"/><path class="cls-74" d="M924.35,296.81h-.41c-12.18-.23-16.18-15.61-16.22-15.76l-.11-.46,20.89-7.1,13.64,7.25-.08.38C940.51,288.74,935,296.81,924.35,296.81Zm-15.5-15.56c.75,2.49,4.86,14.34,15.11,14.53h.39c12.46,0,15.91-11.34,16.63-14.5l-12.57-6.69Z"/><path class="cls-73" d="M941.56,280.92s3.8,15.15,15.73,15.38,16.43-9.51,17.61-15.28l-13.11-7Z"/><path class="cls-74" d="M957.68,296.81h-.4c-12.18-.23-16.18-15.61-16.22-15.76l-.11-.46,20.89-7.1,13.64,7.25-.08.38C973.85,288.74,968.38,296.81,957.68,296.81Zm-15.49-15.56c.75,2.49,4.86,14.34,15.11,14.53h.39c12.46,0,15.91-11.34,16.62-14.5l-12.56-6.69Z"/><path class="cls-73" d="M974.9,280.92s3.8,15.15,15.73,15.38,16.43-9.51,17.6-15.28l-13.1-7Z"/><path class="cls-74" d="M991,296.81h-.4c-12.18-.23-16.18-15.61-16.22-15.76l-.12-.46,20.89-7.1,13.64,7.25-.07.38C1007.19,288.74,1001.72,296.81,991,296.81Zm-15.5-15.56c.75,2.49,4.87,14.34,15.12,14.53H991c12.46,0,15.9-11.34,16.62-14.5l-12.56-6.69Z"/><path class="cls-73" d="M1008.23,280.92S1012,296.07,1024,296.3s16.43-9.51,17.6-15.28l-13.1-7Z"/><path class="cls-74" d="M1024.36,296.81h-.4c-12.18-.23-16.19-15.61-16.22-15.76l-.12-.46,20.89-7.1,13.64,7.25-.08.38C1040.53,288.74,1035.06,296.81,1024.36,296.81Zm-15.5-15.56c.75,2.49,4.87,14.34,15.12,14.53h.39c12.46,0,15.9-11.34,16.62-14.5l-12.57-6.69Z"/><path class="cls-73" d="M1041.57,280.92s3.8,15.15,15.74,15.38,16.43-9.51,17.6-15.28l-13.1-7Z"/><path class="cls-74" d="M1057.7,296.81h-.4c-12.19-.23-16.19-15.61-16.23-15.76l-.11-.46,20.89-7.1,13.64,7.25-.08.38C1073.87,288.74,1068.4,296.81,1057.7,296.81Zm-15.5-15.56c.75,2.49,4.87,14.34,15.12,14.53h.39c12.46,0,15.9-11.34,16.62-14.5l-12.57-6.69Z"/><path class="cls-73" d="M1074.91,280.92s3.8,15.15,15.73,15.38,16.43-9.51,17.61-15.28l-13.11-7Z"/><path class="cls-74" d="M1091,296.81h-.41c-12.18-.23-16.18-15.61-16.22-15.76l-.11-.46,20.89-7.1,13.64,7.25-.08.38C1107.2,288.74,1101.74,296.81,1091,296.81Zm-15.5-15.56c.75,2.49,4.86,14.34,15.11,14.53h.39c12.46,0,15.91-11.34,16.62-14.5l-12.56-6.69Z"/><path class="cls-73" d="M1108.25,280.92s3.8,15.15,15.73,15.38,16.43-9.51,17.61-15.28l-13.11-7Z"/><path class="cls-74" d="M1124.38,296.81H1124c-12.18-.23-16.18-15.61-16.22-15.76l-.12-.46,20.89-7.1,13.65,7.25-.08.38C1140.54,288.74,1135.07,296.81,1124.38,296.81Zm-15.5-15.56c.74,2.49,4.86,14.34,15.11,14.53h.39c12.46,0,15.91-11.34,16.62-14.5l-12.56-6.69Z"/><path class="cls-73" d="M1141.59,280.92s3.8,15.15,15.73,15.38,16.43-9.51,17.6-15.28l-13.1-7Z"/><path class="cls-74" d="M1157.71,296.81h-.4c-12.18-.23-16.18-15.61-16.22-15.76l-.12-.46,20.89-7.1,13.64,7.25-.07.38C1173.88,288.74,1168.41,296.81,1157.71,296.81Zm-15.5-15.56c.75,2.49,4.87,14.34,15.12,14.53h.39c12.46,0,15.9-11.34,16.62-14.5l-12.57-6.69Z"/></g><polygon class="cls-70" points="971.49 525.03 885.16 525.03 885.16 398.83 928.33 356.11 971.49 404.73 971.49 525.03"/><g class="cls-43"><polyline class="cls-71" points="884.92 403 929.1 356.11 971.49 404.73 971.49 413.17 929.36 364.37 885.16 408.98 885.16 402.24"/></g><path class="cls-71" d="M979.28,407l-47.85-54.42a3,3,0,0,0-4.32-.12l-53.57,54.61a2.85,2.85,0,0,0,0,4h0a3,3,0,0,0,4.17,0l49.65-49.74a3,3,0,0,1,4.31.15l43.08,49.31a3,3,0,0,0,4,.55A3,3,0,0,0,979.28,407Z"/><rect class="cls-30" x="986.82" y="434.95" width="42.57" height="76.03"/><rect class="cls-75" x="989.07" y="437.38" width="37.51" height="71.53"/><rect class="cls-37" x="1076.24" y="429.01" width="57.79" height="47.95"/><path class="cls-40" d="M1092.19,454.37a.27.27,0,0,1-.2-.08.27.27,0,0,1,0-.37l6.36-6.19a.27.27,0,0,1,.38,0,.26.26,0,0,1,0,.37l-6.36,6.19A.26.26,0,0,1,1092.19,454.37Z"/><path class="cls-40" d="M1100,455.43a.27.27,0,0,1-.19-.08.28.28,0,0,1,0-.38l6.37-6.18a.27.27,0,0,1,.37,0,.28.28,0,0,1,0,.38l-6.37,6.18A.25.25,0,0,1,1100,455.43Z"/><path class="cls-40" d="M1089.26,460.68a.25.25,0,0,1-.19-.09.27.27,0,0,1,0-.38l20.14-18a.27.27,0,0,1,.38,0,.27.27,0,0,1,0,.37l-20.15,18A.29.29,0,0,1,1089.26,460.68Z"/><path class="cls-40" d="M1121.61,473.41a.27.27,0,0,1-.19-.08.27.27,0,0,1,0-.37l6.36-6.19a.27.27,0,0,1,.38,0,.26.26,0,0,1,0,.37l-6.36,6.19A.26.26,0,0,1,1121.61,473.41Z"/><path class="cls-40" d="M1111.74,471.54a.28.28,0,0,1-.2-.09.28.28,0,0,1,0-.38l20.15-18a.26.26,0,0,1,.37,0,.27.27,0,0,1,0,.38l-20.14,18A.31.31,0,0,1,1111.74,471.54Z"/><rect class="cls-41" x="1093.45" y="429.01" width="1.95" height="47.95"/><rect class="cls-41" x="1114.88" y="429.01" width="1.95" height="47.95"/><rect class="cls-76" x="1072.81" y="476.96" width="64.65" height="4.69" rx="1.65"/><rect class="cls-41" x="1076.24" y="452.16" width="57.79" height="1.64"/><rect class="cls-77" x="1049.91" y="413.17" width="7.03" height="103.03"/><rect class="cls-77" x="1153.34" y="413.17" width="7.03" height="103.03"/><rect class="cls-77" x="1053.42" y="486.8" width="103.43" height="5.38"/><rect class="cls-77" x="1065.6" y="489.5" width="4.12" height="28.23"/><rect class="cls-77" x="1084.34" y="489.5" width="4.12" height="28.23"/><rect class="cls-77" x="1103.08" y="489.5" width="4.12" height="28.23"/><rect class="cls-77" x="1121.81" y="489.5" width="4.12" height="28.23"/><rect class="cls-77" x="1140.55" y="489.5" width="4.12" height="28.23"/><rect class="cls-78" x="1044.88" y="516.2" width="124.79" height="8.83"/><path class="cls-69" d="M913,410c0-11.06,6.84-20,15.29-20s15.29,9,15.29,20"/><path class="cls-78" d="M944.64,410h-2c0-10.47-6.4-19-14.26-19s-14.27,8.52-14.27,19h-2c0-11.6,7.32-21.05,16.32-21.05S944.64,398.35,944.64,410Z"/><path class="cls-77" d="M1059.65,417.38h-12.46a2.11,2.11,0,0,1-2.11-2.11h0a2.11,2.11,0,0,1,2.11-2.1h12.46a2.11,2.11,0,0,1,2.11,2.1h0A2.11,2.11,0,0,1,1059.65,417.38Z"/><path class="cls-77" d="M1163.08,417.38h-12.46a2.11,2.11,0,0,1-2.11-2.11h0a2.11,2.11,0,0,1,2.11-2.1h12.46a2.1,2.1,0,0,1,2.11,2.1h0A2.1,2.1,0,0,1,1163.08,417.38Z"/><path class="cls-77" d="M1059.65,516.2h-12.46a2.12,2.12,0,0,1-2.11-2.11h0a2.11,2.11,0,0,1,2.11-2.11h12.46a2.11,2.11,0,0,1,2.11,2.11h0A2.12,2.12,0,0,1,1059.65,516.2Z"/><path class="cls-77" d="M1163.08,516.2h-12.46a2.12,2.12,0,0,1-2.11-2.11h0a2.11,2.11,0,0,1,2.11-2.11h12.46a2.1,2.1,0,0,1,2.11,2.11h0A2.11,2.11,0,0,1,1163.08,516.2Z"/><rect class="cls-73" x="971.49" y="510.98" width="73.59" height="3.93"/><rect class="cls-79" x="971.49" y="514.91" width="73.59" height="3.93"/><rect class="cls-80" x="971.49" y="518.85" width="73.59" height="3.94"/><rect class="cls-79" x="971.49" y="522.78" width="73.59" height="2.25"/><path class="cls-29" d="M996.73,466a.18.18,0,0,1-.13-.06.18.18,0,0,1,0-.25l4.23-4.11a.18.18,0,0,1,.25.25l-4.24,4.12A.17.17,0,0,1,996.73,466Z"/><path class="cls-29" d="M1003.9,467.41a.18.18,0,0,1-.12-.05.18.18,0,0,1,0-.25L1008,463a.18.18,0,0,1,.25,0,.18.18,0,0,1,0,.25l-4.24,4.11A.13.13,0,0,1,1003.9,467.41Z"/><path class="cls-29" d="M1001.61,501a.17.17,0,0,1-.13-.05.18.18,0,0,1,0-.25l4.23-4.11a.17.17,0,1,1,.24.25l-4.23,4.11A.15.15,0,0,1,1001.61,501Z"/><path class="cls-29" d="M994.91,472.08a.21.21,0,0,1-.13-.05.2.2,0,0,1,0-.25l14.56-14.44a.18.18,0,0,1,.25.25L995,472A.18.18,0,0,1,994.91,472.08Z"/><g class="cls-67"><polyline class="cls-71" points="971.49 430.18 885.16 430.18 885.2 418.84 971.49 418.56"/></g><rect class="cls-37" x="905.84" y="447.66" width="44.97" height="55.95"/><rect class="cls-78" x="882.77" y="417.38" width="91.11" height="11.63" rx="2.34"/><rect class="cls-81" x="885.16" y="437.4" width="8.79" height="4.6"/><rect class="cls-81" x="889.56" y="444.11" width="8.79" height="4.6"/><rect class="cls-81" x="955.61" y="516.54" width="8.79" height="4.6"/><rect class="cls-81" x="962.25" y="510.64" width="8.79" height="4.6"/><rect class="cls-70" x="1009.64" y="421.74" width="8.79" height="4.6"/><rect class="cls-70" x="1022.18" y="426.71" width="8.79" height="4.6"/><rect class="cls-70" x="1165.27" y="432.65" width="4.39" height="4.6"/><rect class="cls-70" x="1165.27" y="498.74" width="4.39" height="4.6"/><rect class="cls-81" x="905.04" y="512.94" width="8.79" height="4.6"/><path class="cls-40" d="M919.41,476.39a.27.27,0,0,1-.19-.08.28.28,0,0,1,0-.38l6.36-6.18a.27.27,0,1,1,.37.38l-6.36,6.18A.27.27,0,0,1,919.41,476.39Z"/><path class="cls-40" d="M927.22,477.44a.27.27,0,0,1-.19-.08.26.26,0,0,1,0-.37l6.36-6.19a.27.27,0,0,1,.37.38l-6.36,6.19A.26.26,0,0,1,927.22,477.44Z"/><path class="cls-40" d="M916.49,482.69a.25.25,0,0,1-.2-.09.26.26,0,0,1,0-.37l20.15-18a.26.26,0,0,1,.37,0,.27.27,0,0,1,0,.38l-20.15,18A.23.23,0,0,1,916.49,482.69Z"/><rect class="cls-41" x="927.35" y="447.66" width="1.95" height="58.6"/><rect class="cls-41" x="905.93" y="465.26" width="44.78" height="1.95"/><rect class="cls-41" x="905.93" y="484.06" width="44.78" height="1.95"/><path class="cls-76" d="M950.27,508.91H906.39a2.65,2.65,0,0,1-2.66-2.65h0a2.66,2.66,0,0,1,2.66-2.65h43.88a2.65,2.65,0,0,1,2.65,2.65h0A2.65,2.65,0,0,1,950.27,508.91Z"/><rect class="cls-78" x="909.43" y="409.04" width="37.78" height="4.59" rx="1.56"/></g></g></g></svg>