<svg xmlns="http://www.w3.org/2000/svg" xmlns:xlink="http://www.w3.org/1999/xlink" viewBox="0 0 587.19 420.98"><defs><style>.cls-1,.cls-13,.cls-14,.cls-19,.cls-24,.cls-25,.cls-26,.cls-5{fill:none;}.cls-2{fill:#d7fff0;}.cls-3{fill:#9aefd5;}.cls-4{fill:#74d6c4;}.cls-13,.cls-5{stroke:#2b284f;}.cls-13,.cls-14,.cls-5{stroke-miterlimit:10;}.cls-6{fill:#4be8ca;}.cls-7{fill:#35aa9f;}.cls-8{fill:#6edbbf;}.cls-9{fill:#99f2d5;}.cls-10{fill:#80ddc2;}.cls-11{fill:#7eedd0;}.cls-12{fill:#6ecec7;}.cls-13,.cls-14,.cls-19,.cls-24,.cls-25,.cls-26{stroke-linecap:round;}.cls-13,.cls-14{stroke-width:3px;}.cls-14{stroke:#defff0;}.cls-15{fill:#e9efff;}.cls-16{fill:#2b284f;}.cls-17{fill:#d7ffdf;}.cls-18{clip-path:url(#clip-path);}.cls-19{stroke:#fff;stroke-width:5px;}.cls-19,.cls-24,.cls-25,.cls-26{stroke-linejoin:round;}.cls-20{fill:#80ffbf;}.cls-21{fill:#1abc9c;}.cls-22{fill:#fff;}.cls-23{fill:url(#Degradado_sin_nombre_5);}.cls-24{stroke:#99f2c1;}.cls-25{stroke:#99f2e1;}.cls-26{stroke:#99f2e3;}.cls-27{fill:#e5827c;}.cls-28{fill:#252e64;}.cls-29{fill:#ecb32b;}.cls-30{fill:#211d35;}.cls-31{fill:#43ba9e;}.cls-32{fill:#cc9527;}.cls-33{fill:#873548;}.cls-34{fill:#242c67;}.cls-35{fill:#ffdf9f;}.cls-36{fill:#d4ffd7;}.cls-37{clip-path:url(#clip-path-2);}</style><clipPath id="clip-path"><rect class="cls-1" x="134.71" y="90.04" width="290.04" height="180.14" rx="5.64"/></clipPath><linearGradient id="Degradado_sin_nombre_5" x1="352.58" y1="118.57" x2="160.58" y2="268.87" gradientUnits="userSpaceOnUse"><stop offset="0" stop-color="#fff" stop-opacity="0.7"/><stop offset="1" stop-color="#fff" stop-opacity="0"/></linearGradient><clipPath id="clip-path-2"><circle class="cls-1" cx="297.86" cy="156.68" r="31.59"/></clipPath></defs><title>header</title><g id="Layer_2" data-name="Layer 2"><g id="OBJECTS"><path class="cls-2" d="M102.34,317s-37.65-16-53.15-56.65-2.21-68,26.58-70.89,31.07-26.55,30.67-64.2,49.79-76,117-88.59S305.35,64.74,343,71.38s109.26-1.48,129.93,17,29.53,51.06,11.81,96.77-5.75,59,10.78,86.31,15.8,62.75-7.09,87.11H140.73S134.93,341,102.34,317Z"/><path class="cls-3" d="M453.51,358.55s-3.4-4.53,2.27-10.2c0,0-3.28-19.18,16.29-21.77,0,0,3.69-12.92,14.76-14.39s19.93,5.53,22.52,15.13c0,0,8.49-2.95,16.24,2.22s7,15.87,7,15.87,8.49,3,5.17,13.14Z"/><path class="cls-4" d="M481.72,350.38c-5.86-.65-7.16-7.6-3.69-12.81s12.2-2.3,12.2-2.3-7.42-5.09-3.73-12.92a21.06,21.06,0,0,1,9.15-9.48,20.9,20.9,0,0,0-8.82-.68c-11.07,1.47-14.76,14.39-14.76,14.39-19.57,2.59-16.29,21.77-16.29,21.77-5.67,5.67-2.27,10.2-2.27,10.2h27.05C479.27,354.69,481.72,350.38,481.72,350.38Z"/><line class="cls-5" x1="490.84" y1="358.55" x2="490.84" y2="328.98"/><line class="cls-5" x1="476.33" y1="335.27" x2="490.84" y2="347.13"/><line class="cls-5" x1="490.84" y1="353.53" x2="511.02" y2="341.2"/><path class="cls-6" d="M418.05,356.84s-5.9-10.09-7.38-20.67.49-20.92,3.69-20.67,5.27,9.1,10.39,5.9,1.52-22.14,5.85-37.4,13.29-18.81,18-16.42.24,25.77,6.4,23.55,1.72-23.86,18.45-38.87,21.41-6.65,19.44,0-22.15,33.22-18.7,41.09,12.65-.25,19.12,3.44-1.9,14.52-14.69,19.44-9.35,8.12-3.69,12.8,12.79,17.72-5.17,23.62S424,362,418.05,356.84Z"/><path class="cls-7" d="M419.21,357.59c3.6-4.86,10.44-14.39,18.75-27.3,12.38-19.22,25.09-40.76,32.25-56.21,4.7-10.12,14.09-22.54,20-29.91-3-1.11-8.37.52-16.81,8.09-16.73,15-12.3,36.66-18.45,38.87s-1.73-21.16-6.4-23.55-13.63,1.16-18,16.42-.73,34.2-5.85,37.4-7.19-5.66-10.39-5.9-5.16,10.08-3.69,20.67,7.38,20.67,7.38,20.67A6.45,6.45,0,0,0,419.21,357.59Z"/><line class="cls-5" x1="419.21" y1="357.59" x2="457.87" y2="299.01"/><line class="cls-5" x1="437.96" y1="293.35" x2="442.62" y2="322.35"/><line class="cls-5" x1="431.55" y1="338.89" x2="467.22" y2="338.6"/><path class="cls-6" d="M44,85.8H154.26s.5-4.43-7.38-10.58-5.41-13.29-16-15-12.8,5.66-20.67,1.48-8.37-11.32-19.44-12.55S75.52,65.87,70.35,67.47,49.93,69.07,46.24,76,44,85.8,44,85.8Z"/><path class="cls-6" d="M381.21,59.16h115.9s-.93-6.46-13.48-8.86S473.11,42,465.92,37.75s-5.17-13.1-17.17-13.65S432.51,41.63,427,41.63s-8.68-9.06-18.28,0S391.54,49.75,386,51,381.21,59.16,381.21,59.16Z"/><path class="cls-8" d="M83.2,70c.9-9.15,6-16.13,10.22-20.41a21.35,21.35,0,0,0-2.64-.44C79.7,47.91,75.52,65.87,70.35,67.47S49.93,69.07,46.24,76,44,85.8,44,85.8H93.84C87.59,81.6,82.59,76.24,83.2,70Z"/><path class="cls-8" d="M433.07,49.14c-1.26-7.34,2.92-15.69,6.63-21.4-5.64,5.14-8.87,13.89-12.72,13.89-5.54,0-8.68-9.06-18.28,0S391.54,49.75,386,51s-4.79,8.12-4.79,8.12h61.43C437.52,56.18,433.7,52.79,433.07,49.14Z"/><path class="cls-9" d="M96.81,222.49s6.24,14.77-7,21-12.19,19.33-8.86,26.65,6.64,18.38-5.54,29.83-18.09,23.25-14.76,39.86S75,358.55,75,358.55h66.81s20.67-18.7,6.27-46.56-14-29.57-10.7-41.81,3.69-15.94-7.75-30.71-2.08-37.28-4.55-45.4-13.91-13.65-22.4-5.9S91.31,206.25,96.81,222.49Z"/><path class="cls-10" d="M111.56,184.46a13.43,13.43,0,0,0-8.88,3.71c-8.49,7.75-11.37,18.08-5.87,34.32,0,0,6.24,14.77-7,21s-12.19,19.33-8.86,26.65,6.64,18.38-5.54,29.83-18.09,23.25-14.76,39.86S75,358.55,75,358.55h36.56Z"/><line class="cls-5" x1="111.84" y1="358.55" x2="111.84" y2="270.18"/><line class="cls-5" x1="101.03" y1="296.69" x2="111.84" y2="311.99"/><line class="cls-5" x1="111.84" y1="337.29" x2="134.74" y2="314.36"/><path class="cls-11" d="M21.41,358.55S18,354,23.68,348.35c0,0-3.28-19.18,16.28-21.77,0,0,3.69-12.92,14.77-14.39s19.93,5.53,22.51,15.13c0,0,8.49-2.95,16.24,2.22s7,15.87,7,15.87,8.49,3,5.17,13.14Z"/><path class="cls-12" d="M43.75,348.35c2-12.89,16.41-11.06,16.41-11.06s-10.54-2.11-9.57-12c.66-6.63,5.39-11,8.46-13.22a21.73,21.73,0,0,0-4.32.14C43.65,313.66,40,326.58,40,326.58c-19.56,2.59-16.28,21.77-16.28,21.77-5.67,5.67-2.27,10.2-2.27,10.2H46.53C44.3,356.17,43.07,352.88,43.75,348.35Z"/><line class="cls-5" x1="59.97" y1="358.55" x2="59.97" y2="328.98"/><line class="cls-5" x1="45.45" y1="335.27" x2="59.97" y2="347.13"/><line class="cls-5" x1="59.97" y1="353.53" x2="80.15" y2="341.2"/><line class="cls-13" x1="12.72" y1="358.55" x2="545.72" y2="358.55"/><line class="cls-14" x1="134.71" y1="381.58" x2="220.46" y2="381.58"/><line class="cls-14" x1="110.65" y1="396.84" x2="166.94" y2="396.84"/><line class="cls-14" x1="371.01" y1="401.76" x2="473.37" y2="401.76"/><line class="cls-14" x1="344.85" y1="419.48" x2="390.87" y2="419.48"/><rect class="cls-15" x="124.51" y="79.84" width="310.43" height="241.32" rx="14.34"/><path class="cls-16" d="M434.94,280.37V96.08A16.24,16.24,0,0,0,418.7,79.84H140.75a16.24,16.24,0,0,0-16.24,16.24V280.37Z"/><rect class="cls-17" x="134.71" y="90.04" width="290.04" height="180.14" rx="5.64"/><g class="cls-18"><line class="cls-19" x1="134.71" y1="121.36" x2="188.3" y2="192.87"/><line class="cls-19" x1="134.71" y1="231.42" x2="335.87" y2="90.04"/><line class="cls-19" x1="211.97" y1="90.04" x2="252.69" y2="148.5"/><line class="cls-19" x1="154.27" y1="147.47" x2="220.46" y2="102.22"/><line class="cls-19" x1="173.2" y1="172.73" x2="238.64" y2="128.34"/><line class="cls-19" x1="195.73" y1="270.18" x2="344.85" y2="156.68"/><line class="cls-19" x1="198.92" y1="186.29" x2="260.69" y2="270.18"/><line class="cls-19" x1="291.85" y1="197.47" x2="346.69" y2="270.18"/><polyline class="cls-19" points="384.71 90.03 326.22 132 424.75 263.79"/><line class="cls-19" x1="366.81" y1="186.29" x2="424.75" y2="142.64"/><line class="cls-19" x1="375.47" y1="96.67" x2="416.97" y2="148.5"/></g><polygon class="cls-15" points="255.65 321.16 242.34 375.54 313.72 375.54 303.88 321.16 255.65 321.16"/><polygon class="cls-20" points="255.65 321.16 253.73 328.98 305.29 328.98 303.88 321.16 255.65 321.16"/><path class="cls-21" d="M258.11,129.29a23,23,0,0,0-45.13-6.6,22.31,22.31,0,0,0-.13,12.84h0c2.51,10.35,14.32,21.42,19.62,26a4,4,0,0,0,5.17,0c5.3-4.54,17.12-15.61,19.63-26h0A22.89,22.89,0,0,0,258.11,129.29Z"/><path class="cls-21" d="M238.26,218.63a8.89,8.89,0,0,0-17.41-2.55,8.53,8.53,0,0,0,0,4.95h0c1,4,5.53,8.27,7.57,10a1.53,1.53,0,0,0,2,0c2.05-1.75,6.61-6,7.58-10h0A9,9,0,0,0,238.26,218.63Z"/><path class="cls-21" d="M372.05,134.67a8.9,8.9,0,0,0-9.39-8.88,9,9,0,0,0-8,6.34,8.61,8.61,0,0,0-.05,5h0c1,4,5.53,8.26,7.58,10a1.53,1.53,0,0,0,2,0c2.05-1.76,6.6-6,7.57-10h0A9,9,0,0,0,372.05,134.67Z"/><path class="cls-21" d="M309.65,226.29a8.89,8.89,0,0,0-17.41-2.55,8.61,8.61,0,0,0-.05,4.95h0c1,4,5.53,8.27,7.57,10a1.54,1.54,0,0,0,2,0c2-1.75,6.6-6,7.57-10h0A8.64,8.64,0,0,0,309.65,226.29Z"/><path class="cls-21" d="M184.74,178.16a8.91,8.91,0,0,0-9.39-8.89,9,9,0,0,0-8,6.34,8.73,8.73,0,0,0,0,5h0c1,4,5.52,8.26,7.57,10a1.51,1.51,0,0,0,2,0c2-1.75,6.61-6,7.57-10h0A9.11,9.11,0,0,0,184.74,178.16Z"/><polygon class="cls-22" points="238.18 121.36 238.18 126.89 232.64 121.36 226.61 126.89 226.61 142.64 243.47 142.64 243.47 129.6 243.47 126.89 243.47 121.36 238.18 121.36"/><polygon class="cls-23" points="124.51 280.37 390.87 79.84 423.43 79.84 155.71 280.37 124.51 280.37"/><line class="cls-24" x1="326.89" y1="24.09" x2="326.89" y2="28.97"/><line class="cls-24" x1="326.89" y1="31.42" x2="326.89" y2="36.31"/><line class="cls-24" x1="333" y1="30.2" x2="328.11" y2="30.2"/><line class="cls-24" x1="325.67" y1="30.2" x2="320.78" y2="30.2"/><path class="cls-24" d="M241.31,3.56A3.06,3.06,0,1,1,238.26.5,3,3,0,0,1,241.31,3.56Z"/><line class="cls-25" x1="511.02" y1="173.99" x2="511.02" y2="178.88"/><line class="cls-25" x1="511.02" y1="181.33" x2="511.02" y2="186.22"/><line class="cls-25" x1="517.13" y1="180.11" x2="512.25" y2="180.11"/><line class="cls-25" x1="509.8" y1="180.11" x2="504.91" y2="180.11"/><line class="cls-25" x1="538.54" y1="274.26" x2="538.54" y2="279.15"/><line class="cls-25" x1="538.54" y1="281.6" x2="538.54" y2="286.49"/><line class="cls-25" x1="544.65" y1="280.37" x2="539.76" y2="280.37"/><line class="cls-25" x1="537.31" y1="280.37" x2="532.43" y2="280.37"/><line class="cls-25" x1="580.58" y1="232.97" x2="580.58" y2="237.85"/><line class="cls-25" x1="580.58" y1="240.3" x2="580.58" y2="245.19"/><line class="cls-25" x1="586.69" y1="239.08" x2="581.8" y2="239.08"/><line class="cls-25" x1="579.35" y1="239.08" x2="574.47" y2="239.08"/><path class="cls-25" d="M562.86,207a3.06,3.06,0,1,1-3.05-3.05A3.06,3.06,0,0,1,562.86,207Z"/><path class="cls-25" d="M545.26,128.12a3.06,3.06,0,1,1-3-3.06A3.06,3.06,0,0,1,545.26,128.12Z"/><line class="cls-26" x1="45.45" y1="142.7" x2="45.45" y2="147.59"/><line class="cls-26" x1="45.45" y1="150.04" x2="45.45" y2="154.92"/><line class="cls-26" x1="51.56" y1="148.81" x2="46.68" y2="148.81"/><line class="cls-26" x1="44.23" y1="148.81" x2="39.34" y2="148.81"/><line class="cls-26" x1="6.61" y1="203.61" x2="6.61" y2="208.5"/><line class="cls-26" x1="6.61" y1="210.95" x2="6.61" y2="215.84"/><line class="cls-26" x1="12.72" y1="209.73" x2="7.84" y2="209.73"/><line class="cls-26" x1="5.39" y1="209.73" x2="0.5" y2="209.73"/><path class="cls-26" d="M6.61,252.79a3.06,3.06,0,1,1-3.05-3A3.06,3.06,0,0,1,6.61,252.79Z"/><path class="cls-26" d="M8.44,118.3a3.06,3.06,0,1,1-3-3A3.05,3.05,0,0,1,8.44,118.3Z"/><path class="cls-26" d="M86.26,121.36a3.06,3.06,0,1,1-3.06-3.06A3.05,3.05,0,0,1,86.26,121.36Z"/><path class="cls-27" d="M401.81,182.26A61.5,61.5,0,0,0,396.15,194,3,3,0,0,0,393.2,195c-1,1.47.74,3.23.74,3.23a11.08,11.08,0,0,0-1.48,7.29c.74,3.87,8.31,6.45,8.31,6.45l-2,4.53s3.69.92,5.17,2.67l4.06-8.95s5.16-.18,6.27-3.6-.74-7.93-5.07-4.7C409.17,201.92,398.71,193.15,401.81,182.26Z"/><path class="cls-28" d="M426.88,189.64a16.86,16.86,0,0,0-.92-12.55c-3.23-6.46-11.44-7.84-19.56-4.15,0,0-2.4-5.26-9.42-2.77s-7.82,13.76-.16,22a63.64,63.64,0,0,1,5-9.87c-3.1,10.89,7.36,19.66,7.36,19.66,4.33-3.23,6.18,1.29,5.07,4.7s-6.27,3.6-6.27,3.6l-2,4.37h0s2.72,6,10.29,3,12-14.48,12.37-19.56A14.7,14.7,0,0,0,426.88,189.64Z"/><path class="cls-29" d="M398.74,216.5s-4.18-.1-6.43,3.13S378.62,258,376.78,265.5s-1.2,8-1.2,8,20,5.17,27.85,1.3c0,0,1.58-23.07,1.95-30.46s2.49-19.84-1.47-25.19A10.08,10.08,0,0,0,398.74,216.5Z"/><path class="cls-30" d="M375.58,273.52s-.25-.21,0-2.11h-.1s-9,50.11-10.24,53.58-10.31,37-14.42,47.66c0,0,5.3,4.52,9.06,3.85,0,0,12.33-25.9,15.33-36.12s1.62-12,1.7-13.45,26.53-52.1,26.53-52.1C395.58,278.69,375.58,273.52,375.58,273.52Z"/><path class="cls-31" d="M350.81,372.64s-10.39,8.88-12,11h21.35a22.26,22.26,0,0,0-.51-7.1C355.91,377,350.81,372.64,350.81,372.64Z"/><path class="cls-31" d="M403.78,375.54c-3.2,2.08-9.84,0-9.84,0s-9.1,6-10.7,8.07h21.34A21.16,21.16,0,0,0,403.78,375.54Z"/><path class="cls-32" d="M398.74,216.5s-6.65-1.51-19.07,2.67l-12.43,4.19s.86,7.25,6.52,10.95,17.12,4.55,19,2.09S398.74,216.5,398.74,216.5Z"/><path class="cls-33" d="M412.58,204.59c-.2-.59-.57-1-.95-1a.88.88,0,0,0-.54.09,1.42,1.42,0,0,0-.45.44,12.2,12.2,0,0,0-.85,1.39c-.28.5-.55,1-.9,1.52a5.48,5.48,0,0,1,1-3.52,2.13,2.13,0,0,1,.85-.69,1.52,1.52,0,0,1,1.17,0,1.3,1.3,0,0,1,.74.82A1.56,1.56,0,0,1,412.58,204.59Z"/><path class="cls-33" d="M393.94,200.72l5.47,1.84s-1.1,3.82-4.79,3.51S393.94,200.72,393.94,200.72Z"/><path class="cls-28" d="M400.9,194.91c-.45,1.06-1.37,1.68-2,1.39s-.84-1.39-.38-2.45,1.37-1.68,2-1.39S401.36,193.85,400.9,194.91Z"/><polygon class="cls-34" points="382.74 222.99 328.05 176.54 320.78 184.97 375.47 231.42 382.74 222.99"/><path class="cls-35" d="M398.74,216.5s-5.49-1.44-10.46,13.15c0,0-1.54,4.75-2.55,5.21s-5.54-3.42-12.55-6.55a79.37,79.37,0,0,1-12.92-7.48s-3.23,4-3.42,7.39c0,0,20.86,16.79,28.89,20.57s13.65-4.61,15.68-11.07,4.92-13.19,4-15.46S403.35,217.42,398.74,216.5Z"/><path class="cls-27" d="M338.6,200.11s-.67,2.91.43,4.94l1.11,2s.56,4.43,2.95,5.91,5.52,1.62,8.21-2.1l-2.85-2.41s2.21-7,1.2-9.24-6.47-.9-8,3.47Z"/><path class="cls-27" d="M356.84,228.22s-7-5-8-6.93-.37-12.81-.37-12.81l5,4.27s-1.07-2.16.5-2.9,4.06,1.57,4.89,3.32a6.44,6.44,0,0,1,0,4.16l1.39,3.5S358.23,222.22,356.84,228.22Z"/><path class="cls-16" d="M400.09,323.26c-.49-1.35,3.34-48.44,3.34-48.44-6.2,3.06-20,.47-25.51-.74,0,0,10.48,48.26,10.67,51.95s5,38.12,5.35,49.51c0,0,6.64,2.08,9.84,0,0,0,1.23-28.66,0-39.24S400.58,324.61,400.09,323.26Z"/><circle class="cls-16" cx="297.86" cy="156.68" r="38"/><circle class="cls-36" cx="297.86" cy="156.68" r="31.59"/><g class="cls-37"><line class="cls-19" x1="202.59" y1="129.28" x2="265.44" y2="213.16"/><line class="cls-19" x1="202.59" y1="258.36" x2="438.52" y2="92.54"/><line class="cls-19" x1="293.21" y1="92.54" x2="340.96" y2="161.11"/><line class="cls-19" x1="225.53" y1="159.9" x2="303.16" y2="106.84"/><line class="cls-19" x1="247.74" y1="189.53" x2="324.49" y2="137.47"/><line class="cls-19" x1="274.16" y1="303.82" x2="449.06" y2="170.71"/><line class="cls-19" x1="277.9" y1="205.43" x2="350.35" y2="303.82"/><line class="cls-19" x1="386.9" y1="218.55" x2="451.22" y2="303.82"/><polyline class="cls-19" points="495.81 92.54 427.21 141.76 542.77 296.33"/><line class="cls-19" x1="474.81" y1="205.43" x2="542.77" y2="154.24"/><line class="cls-19" x1="484.97" y1="100.32" x2="533.65" y2="161.11"/></g><path class="cls-22" d="M282.42,132.11a25,25,0,0,0-10.79,11.58,3.72,3.72,0,0,0-.34,2.62,3.49,3.49,0,0,0,1.56,2,3.43,3.43,0,0,0,2.62.34,3.27,3.27,0,0,0,2-1.56,22.4,22.4,0,0,1,2.73-4.56l-.53.69a22.5,22.5,0,0,1,3.87-3.87l-.69.53a23.23,23.23,0,0,1,3-1.93,3.4,3.4,0,1,0-3.43-5.87Z"/><path class="cls-22" d="M297,131.86a3.75,3.75,0,1,1-3.75-3.74A3.75,3.75,0,0,1,297,131.86Z"/></g></g></svg>