<?xml version="1.0"?>
<svg xmlns="http://www.w3.org/2000/svg" xmlns:xlink="http://www.w3.org/1999/xlink" version="1.1" id="Capa_1" x="0px" y="0px" viewBox="0 0 512 512" style="enable-background:new 0 0 512 512;" xml:space="preserve" width="512px" height="512px" class=""><g><g>
	<g>
		<path d="M256,60c-74.472,0-135,61.427-135,136c0,73.434,59.091,135,135,135c75.785,0,135-61.439,135-135    C391,121.521,330.573,60,256,60z M256,301c-58.948,0-105-47.788-105-105c0-58.448,47.103-106,105-106c57.897,0,105,47.552,105,106    C361,253.347,314.809,301,256,301z" data-original="#000000" class="active-path" data-old_color="#000000" fill="#FFFFFF"/>
	</g>
</g><g>
	<g>
		<path d="M256,0C148.477,0,61,87.925,61,196c0,42.537,13.456,82.961,38.891,116.873l144.087,193.098    C246.809,509.765,251.266,512,256,512s9.191-2.235,12.022-6.029l144.065-193.068C437.544,278.961,451,238.537,451,196    C451,87.925,363.523,0,256,0z M388.065,294.931L256,471.918L123.913,294.902C102.381,266.194,91,231.995,91,196    c0-91.533,74.019-166,165-166s165,74.467,165,166C421,231.995,409.619,266.194,388.065,294.931z" data-original="#000000" class="active-path" data-old_color="#000000" fill="#FFFFFF"/>
	</g>
</g><g>
	<g>
		<path d="M286,136c-8.284,0-15,6.716-15,15v30h-30v-30c0-8.284-6.716-15-15-15s-15,6.716-15,15v90c0,8.284,6.716,15,15,15    s15-6.716,15-15v-30h30v30c0,8.284,6.716,15,15,15s15-6.716,15-15v-90C301,142.716,294.284,136,286,136z" data-original="#000000" class="active-path" data-old_color="#000000" fill="#FFFFFF"/>
	</g>
</g></g> </svg>
